<svg xmlns="http://www.w3.org/2000/svg" fill="none" viewBox="0 0 30 24" height="24" width="30">
  <path fill="#FFE000" d="M29.4252 2.50917C29.1294 2.43339 28.8556 2.36738 28.6062 2.3136C28.4693 2.28426 28.3373 2.25737 28.2053 2.23047V1.73175C28.2053 1.40171 27.9706 1.12545 27.6601 1.05944C25.3522 0.414033 23.0542 0.230678 20.871 0.487376C18.7783 0.731849 16.7908 1.38459 14.9988 2.40894C13.2043 1.38459 11.2192 0.731849 9.12652 0.487376C6.94092 0.230678 4.64286 0.414033 2.33503 1.05944C2.0221 1.12545 1.78985 1.40171 1.78985 1.73175V2.23292C1.67006 2.25737 1.54782 2.27692 1.43292 2.30382C1.16889 2.36005 0.88041 2.4285 0.569928 2.50917C0.247223 2.56296 0.000304192 2.84655 0.000304192 3.18637V21.0281C-0.00214055 21.1088 0.0100831 21.1919 0.03942 21.2725C0.166546 21.6295 0.560149 21.8153 0.917081 21.6906C3.01467 20.945 5.46918 20.7372 7.89192 21.0256C10.3049 21.3141 12.6787 22.0989 14.6296 23.3384C14.6418 23.3457 14.6565 23.3506 14.6712 23.3579C14.6932 23.3701 14.7152 23.3824 14.7396 23.3921C14.7592 23.3995 14.7812 23.4068 14.8032 23.4117C14.8252 23.419 14.8448 23.4239 14.8668 23.4288C14.8888 23.4337 14.9108 23.4361 14.9352 23.4361C14.9572 23.4386 14.9792 23.441 15.0012 23.441C15.0232 23.441 15.0452 23.4386 15.0672 23.4361C15.0892 23.4337 15.1112 23.4313 15.1357 23.4288C15.1577 23.4239 15.1772 23.419 15.1992 23.4117C15.2212 23.4044 15.2408 23.3995 15.2628 23.3921C15.2848 23.3824 15.3068 23.3701 15.3288 23.3579C15.3435 23.3506 15.3582 23.3457 15.3704 23.3359C17.3213 22.0964 19.6951 21.3141 22.1081 21.0232C24.5308 20.7323 26.9853 20.9401 29.0829 21.6882C29.4399 21.8153 29.8335 21.6295 29.9606 21.2701C29.9899 21.1894 30.0021 21.1063 29.9997 21.0256V3.18637C29.9948 2.84655 29.7479 2.56296 29.4252 2.50917ZM21.0251 1.8491C22.8928 1.63151 24.8535 1.76108 26.8313 2.25737V17.7815C25.0271 17.2558 23.0273 17.1336 21.0544 17.3903C19.1768 17.6348 17.3188 18.224 15.6809 19.1383V3.58975C17.3091 2.6583 19.1182 2.07157 21.0251 1.8491ZM3.1638 2.25737C5.14159 1.76108 7.10227 1.62907 8.97005 1.8491C10.8769 2.07157 12.6861 2.6583 14.3143 3.58975V19.1407C12.6763 18.2288 10.8183 17.6372 8.94071 17.3927C6.97025 17.136 4.96801 17.2583 3.1638 17.7839V2.25737ZM28.6209 20.104C26.5428 19.5246 24.2252 19.3852 21.9418 19.659C19.4775 19.9548 17.0499 20.7372 14.9963 21.9571C12.9428 20.7347 10.5151 19.9524 8.05083 19.659C5.76744 19.3852 3.44983 19.5246 1.3718 20.104V3.72177C1.48426 3.69487 1.59916 3.67043 1.71896 3.64353C1.74096 3.63864 1.76296 3.6362 1.78741 3.63131V18.7251C1.78496 18.8107 1.79963 18.8987 1.83386 18.9843C1.97076 19.3388 2.36926 19.5148 2.7213 19.3779V19.3754C4.53774 18.6713 6.66222 18.4758 8.7598 18.7496C10.8354 19.0209 12.8792 19.7495 14.5636 20.9034C14.5734 20.9107 14.5832 20.9156 14.5905 20.923C14.6027 20.9327 14.6174 20.9425 14.6321 20.9498C14.6541 20.9645 14.6761 20.9767 14.7005 20.9865C14.7152 20.9938 14.7299 21.0012 14.7445 21.0061C14.7714 21.0159 14.7983 21.0232 14.8276 21.0305C14.8399 21.033 14.8545 21.0379 14.8668 21.0403C14.9083 21.0476 14.9523 21.0525 14.9963 21.0525C15.0403 21.0525 15.0843 21.0476 15.1259 21.0403C15.1406 21.0379 15.1528 21.033 15.165 21.0305C15.1919 21.0232 15.2212 21.0159 15.2481 21.0061C15.2628 21.0012 15.2775 20.9938 15.2921 20.9865C15.3166 20.9743 15.3386 20.9621 15.3606 20.9498C15.3753 20.9401 15.3875 20.9327 15.4022 20.923C15.4119 20.9156 15.4217 20.9107 15.4291 20.9034C17.1135 19.7495 19.1573 19.0185 21.2329 18.7496C23.3304 18.4758 25.4549 18.6713 27.2714 19.3754V19.3779C27.6259 19.5148 28.0219 19.3388 28.1588 18.9843C28.193 18.8987 28.2077 18.8107 28.2053 18.7251V3.63131C28.2419 3.63864 28.2786 3.64598 28.3153 3.65331C28.4204 3.67532 28.5206 3.69976 28.6209 3.72177V20.104Z"></path>
  <path fill="#FFE000" d="M17.4216 6.66278C18.3212 6.07604 19.5509 5.74845 20.7904 5.57487C22.8709 5.28395 24.9611 5.43552 25.6603 5.54064C25.9097 5.57731 26.1444 5.40618 26.1811 5.15682C26.2177 4.90746 26.0466 4.67276 25.7972 4.63609C25.0589 4.52608 22.8538 4.36717 20.6657 4.67032C19.3089 4.85856 17.9496 5.22772 16.9228 5.89758C16.7101 6.03448 16.6515 6.31807 16.7884 6.52832C16.9277 6.73857 17.2089 6.79968 17.4216 6.66278Z"></path>
  <path fill="#FFE000" d="M17.4216 8.98529C18.3212 8.39855 19.5509 8.07096 20.7904 7.89738C22.8709 7.60646 24.9611 7.75803 25.6603 7.86315C25.9097 7.89982 26.1444 7.72869 26.1811 7.47933C26.2177 7.22997 26.0466 6.99527 25.7972 6.9586C25.0589 6.84859 22.8538 6.68968 20.6657 6.99283C19.3089 7.18107 17.9496 7.55023 16.9228 8.22009C16.7101 8.35699 16.6515 8.64058 16.7884 8.85083C16.9277 9.06352 17.2089 9.12219 17.4216 8.98529Z"></path>
  <path fill="#FFE000" d="M17.4216 11.3078C18.3212 10.7211 19.5509 10.3935 20.7904 10.2199C22.8709 9.92897 24.9611 10.0805 25.6603 10.1857C25.9097 10.2223 26.1444 10.0512 26.1811 9.80184C26.2177 9.55248 26.0466 9.31778 25.7972 9.28111C25.0589 9.1711 22.8538 9.01219 20.6657 9.31534C19.3089 9.50358 17.9496 9.87274 16.9228 10.5426C16.7101 10.6795 16.6515 10.9631 16.7884 11.1733C16.9277 11.386 17.2089 11.4447 17.4216 11.3078Z"></path>
  <path fill="#FFE000" d="M17.4216 13.6303C18.3212 13.0436 19.5509 12.716 20.7904 12.5424C22.8709 12.2515 24.9611 12.403 25.6603 12.5082C25.9097 12.5448 26.1444 12.3737 26.1811 12.1243C26.2177 11.875 26.0466 11.6403 25.7972 11.6036C25.0589 11.4936 22.8538 11.3347 20.6657 11.6378C19.3089 11.8261 17.9496 12.1952 16.9228 12.8651C16.7101 13.002 16.6515 13.2856 16.7884 13.4958C16.9277 13.7085 17.2089 13.7672 17.4216 13.6303Z"></path>
  <path fill="#FFE000" d="M17.4216 15.9528C18.3212 15.3661 19.5509 15.0385 20.7904 14.8649C22.8709 14.574 24.9611 14.7255 25.6603 14.8307C25.9097 14.8673 26.1444 14.6962 26.1811 14.4468C26.2177 14.1975 26.0466 13.9628 25.7972 13.9261C25.0589 13.8161 22.8538 13.6572 20.6657 13.9603C19.3089 14.1486 17.9496 14.5177 16.9228 15.1876C16.7101 15.3245 16.6515 15.6081 16.7884 15.8183C16.9277 16.031 17.2089 16.0921 17.4216 15.9528Z"></path>
  <path fill="#FFE000" d="M4.67711 5.54064C5.37631 5.43552 7.46656 5.28639 9.54704 5.57487C10.789 5.74844 12.0187 6.07604 12.9183 6.66278C13.131 6.79968 13.4122 6.74101 13.5491 6.52832C13.686 6.31562 13.6273 6.03448 13.4146 5.89757C12.3878 5.22772 11.0285 4.85856 9.67172 4.67031C7.48368 4.36472 5.27852 4.52363 4.54021 4.63609C4.29085 4.67276 4.11727 4.90745 4.15639 5.15682C4.1955 5.40374 4.42775 5.57731 4.67711 5.54064Z"></path>
  <path fill="#FFE000" d="M4.67711 7.86315C5.37631 7.75803 7.46656 7.6089 9.54704 7.89738C10.789 8.07095 12.0187 8.39855 12.9183 8.98529C13.131 9.12219 13.4122 9.06352 13.5491 8.85083C13.686 8.63813 13.6273 8.35699 13.4146 8.22008C12.3878 7.55022 11.0285 7.18107 9.67172 6.99282C7.48368 6.68723 5.27852 6.84614 4.54021 6.9586C4.29085 6.99527 4.11727 7.22996 4.15639 7.47933C4.1955 7.72869 4.42775 7.89982 4.67711 7.86315Z"></path>
  <path fill="#FFE000" d="M4.67711 10.1857C5.37631 10.0805 7.46656 9.93141 9.54704 10.2199C10.789 10.3935 12.0187 10.7211 12.9183 11.3078C13.131 11.4447 13.4122 11.386 13.5491 11.1733C13.686 10.9606 13.6273 10.6795 13.4146 10.5426C12.3878 9.87273 11.0285 9.50358 9.67172 9.31533C7.48368 9.00974 5.27852 9.16865 4.54021 9.28111C4.29085 9.31778 4.11727 9.55247 4.15639 9.80184C4.1955 10.0512 4.42775 10.2223 4.67711 10.1857Z"></path>
  <path fill="#FFE000" d="M4.67711 12.5081C5.37631 12.403 7.46656 12.2539 9.54704 12.5424C10.789 12.7159 12.0187 13.0435 12.9183 13.6303C13.131 13.7672 13.4122 13.7085 13.5491 13.4958C13.686 13.2856 13.6273 13.002 13.4146 12.8651C12.3878 12.1952 11.0285 11.8261 9.67172 11.6378C7.48368 11.3322 5.27852 11.4911 4.54021 11.6036C4.29085 11.6403 4.11727 11.875 4.15639 12.1243C4.1955 12.3737 4.42775 12.5448 4.67711 12.5081Z"></path>
  <path fill="#FFE000" d="M9.54704 14.8649C10.789 15.0385 12.0187 15.366 12.9183 15.9528C13.131 16.0897 13.4122 16.031 13.5491 15.8183C13.686 15.6081 13.6273 15.3245 13.4146 15.1876C12.3878 14.5177 11.0285 14.1486 9.67172 13.9603C7.48368 13.6547 5.27852 13.8136 4.54021 13.9261C4.29085 13.9628 4.11727 14.1975 4.15639 14.4468C4.19306 14.6962 4.42775 14.8698 4.67711 14.8307C5.37631 14.7255 7.46656 14.5764 9.54704 14.8649Z"></path>
</svg>
