<svg xmlns="http://www.w3.org/2000/svg" fill="none" viewBox="0 0 31 31" height="31" width="31">
  <g clip-path="#FFE000">
    <path fill="#FFE000" d="M5.50711 4.89373H11.1063L15.0654 0.934617L15.5 0.5L15.9346 0.934617L19.8937 4.89373H25.4929H26.1079V5.50875V11.1079L30.067 15.067L30.5016 15.5017L30.067 15.9363L26.1079 19.8954V25.4946V26.1096H25.4929H19.8937L15.9346 30.0687L15.5 30.5033L15.0654 30.0687L11.1063 26.1096H5.50711H4.89208V25.4946V19.8954L0.934616 15.9346L0.5 15.5L0.934616 15.0654L4.89372 11.1063V5.50711V4.89209H5.50711V4.89373ZM11.3605 6.12213H6.12213V11.3605L5.94172 11.7951L2.23682 15.5L5.94172 19.2049L6.12213 19.6395V24.8779H11.3605L11.7951 25.0583L15.5 28.7632L19.2049 25.0583L19.6395 24.8779H24.8779V19.6395L25.0583 19.2049L28.7632 15.5L25.0583 11.7951L24.8779 11.3605V6.12213H19.6395L19.2049 5.94173L15.5 2.23683L11.7951 5.94173L11.3605 6.12213Z"></path>
    <path fill="#FFE000" d="M10.547 9.93361H13.194L15.0654 8.0623L15.5 7.62769L15.9346 8.0623L17.8059 9.93361H20.453H21.068V10.5486V13.194L22.9393 15.0654L23.3739 15.5L22.9393 15.9346L21.068 17.8059V20.453V21.068H20.453H17.8059L15.9346 22.9393L15.5 23.3739L15.0654 22.9393L13.194 21.0663H10.547H9.93197V20.4513V17.8043L8.0623 15.9346L7.62769 15.5L8.0623 15.0654L9.93361 13.194V10.547V9.93197H10.547V9.93361ZM13.4483 11.162H11.162V13.4483V13.7025L10.9816 13.8829L9.36451 15.5L10.9816 17.1171L11.162 17.2975V17.5517V19.8379H13.4483H13.7025L13.8829 20.0183L15.5 21.6354L17.1171 20.0183L17.2975 19.8379H17.5517H19.8379V17.5517V17.2975L20.0183 17.1171L21.6354 15.5L20.0183 13.8829L19.8379 13.7025V13.4483V11.162H17.5517H17.2975L17.1171 10.9816L15.5 9.36451L13.8829 10.9816L13.7025 11.162H13.4483Z"></path>
  </g>
</svg>
