<svg xmlns="http://www.w3.org/2000/svg" fill="none" viewBox="0 0 12 14" height="14" width="12">
<path fill="#A2CC80" d="M4 6.33333H2.66667V7.66666H4V6.33333ZM6.66667 6.33333H5.33333V7.66666H6.66667V6.33333ZM9.33333 6.33333H8V7.66666H9.33333V6.33333ZM10.6667 1.66666H10V0.333328H8.66667V1.66666H3.33333V0.333328H2V1.66666H1.33333C0.593333 1.66666 0.00666666 2.26666 0.00666666 2.99999L0 12.3333C0 12.687 0.140476 13.0261 0.390524 13.2761C0.640573 13.5262 0.979711 13.6667 1.33333 13.6667H10.6667C11.4 13.6667 12 13.0667 12 12.3333V2.99999C12 2.26666 11.4 1.66666 10.6667 1.66666ZM10.6667 12.3333H1.33333V5H10.6667V12.3333Z"></path>
</svg>
