<svg xmlns="http://www.w3.org/2000/svg" fill="none" viewBox="0 0 40 24" height="24" width="40">
<g clip-path="url(#clip0)">
<path fill="#FFE000" d="M16.2629 4.7354C16.3051 4.33912 16.0204 3.98337 15.6289 3.94284C15.2374 3.90006 14.8859 4.18826 14.8459 4.58454L13.9917 12.5282C13.9494 12.9244 14.2342 13.2802 14.6257 13.3207C15.0172 13.3635 15.3686 13.0753 15.4087 12.679L16.2629 4.7354Z"></path>
<path fill="#FFE000" d="M13.2709 3.84599C13.3132 3.44971 13.0285 3.09396 12.637 3.05343C12.2455 3.01065 11.894 3.29886 11.854 3.69514L10.9397 12.1904C10.8974 12.5867 11.1822 12.9424 11.5737 12.983C11.9652 13.0257 12.3166 12.7375 12.3567 12.3412L13.2709 3.84599Z"></path>
<path fill="#FFE000" d="M10.1344 4.28282C10.1767 3.88654 9.89195 3.53079 9.50045 3.49026C9.10895 3.44748 8.75749 3.73569 8.71745 4.13197L7.88551 11.8549C7.84324 12.2512 8.12797 12.6069 8.51947 12.6475C8.91097 12.6903 9.26244 12.4021 9.30248 12.0058L10.1344 4.28282Z"></path>
<path fill="#FFE000" d="M8.73979 3.93158C8.69753 4.32786 8.98226 4.68361 9.37376 4.72414C9.76526 4.76692 10.1167 4.47872 10.1568 4.08244C10.2724 3.00843 9.75637 2.24964 9.03342 1.85786C8.76204 1.71151 8.46396 1.6192 8.16144 1.58767C7.85891 1.5539 7.54972 1.57867 7.25609 1.66198C6.46641 1.88713 5.8013 2.51533 5.68563 3.59384L4.84034 11.4474C4.79808 11.8437 5.0828 12.1994 5.47431 12.2399C5.86581 12.2827 6.21727 11.9945 6.25731 11.5982L7.1026 3.7447C7.14487 3.35067 7.37176 3.12551 7.64092 3.04896C7.75881 3.01518 7.88561 3.00617 8.01018 3.01968C8.13474 3.03319 8.25709 3.06922 8.36164 3.12776C8.60855 3.26286 8.78206 3.5353 8.73979 3.93158Z"></path>
<path fill="#FFE000" d="M11.8162 4.02613C11.7739 4.42241 12.0586 4.77816 12.4501 4.81869C12.8416 4.86147 13.1931 4.57327 13.2331 4.17699L13.3533 3.07146C13.4689 1.99745 12.9529 1.23866 12.2299 0.846887C11.9585 0.700533 11.6605 0.608218 11.3602 0.576696C11.0576 0.547425 10.7484 0.569941 10.4548 0.65325C9.66512 0.878409 9.00001 1.5066 8.88434 2.58511L8.73975 3.93157C8.69749 4.32785 8.98222 4.6836 9.37372 4.72413C9.76522 4.76691 10.1167 4.4787 10.1567 4.08242L10.3013 2.73597C10.3436 2.34194 10.5705 2.11678 10.8396 2.04248C10.9575 2.00871 11.0843 1.9997 11.2089 2.01321C11.3335 2.02672 11.4558 2.06275 11.5604 2.12129C11.805 2.25413 11.9785 2.52432 11.9363 2.9206L11.8162 4.02613Z"></path>
<path fill="#FFE000" d="M14.7391 5.57521C14.6968 5.97149 14.9815 6.32724 15.373 6.36777C15.7645 6.41055 16.116 6.12234 16.156 5.72606L16.2873 4.51246C16.403 3.43845 15.8869 2.67966 15.1639 2.28789C14.8926 2.14153 14.5945 2.04922 14.2942 2.0177C13.9917 1.98392 13.6825 2.00869 13.3888 2.092C12.5991 2.31716 11.934 2.94535 11.8184 4.02386C11.7761 4.42014 12.0608 4.77589 12.4523 4.81642C12.8438 4.8592 13.1953 4.571 13.2353 4.17472C13.2776 3.78069 13.5045 3.55553 13.7737 3.48123C13.8916 3.44746 14.0183 3.43845 14.1429 3.45196C14.2675 3.46547 14.3898 3.50149 14.4944 3.56004C14.7391 3.69288 14.9126 3.96307 14.8703 4.35935L14.7391 5.57521Z"></path>
<path fill="#FFE000" d="M6.64219 14.2348C6.87798 14.5523 7.32509 14.6176 7.63874 14.3789C7.95238 14.1403 8.01689 13.6899 7.7811 13.3702L4.02846 8.31089C3.41674 7.48681 2.59592 7.26165 1.84628 7.42376C1.53263 7.49131 1.23678 7.62641 0.976521 7.81779C0.716261 8.00693 0.493816 8.24785 0.329207 8.52479C-0.0867646 9.22278 -0.162396 10.1392 0.420409 11.0241C1.7751 13.0798 2.39127 14.8022 2.91846 16.2725C3.52129 17.9545 4.01511 19.3324 5.2964 20.5821C6.64664 21.8992 8.03469 22.8246 9.47391 23.2592C10.9621 23.7073 12.4858 23.6352 14.0563 22.935C17.8934 21.2238 18.0269 19.0217 18.2227 15.7839C18.2605 15.14 18.3027 14.451 18.3828 13.7192L19.2059 6.06831C19.3215 4.9943 18.8055 4.23551 18.0825 3.84373C17.8111 3.69738 17.5131 3.60507 17.2105 3.57354C16.908 3.53977 16.5988 3.56454 16.3052 3.64785C15.5155 3.873 14.8504 4.5012 14.7347 5.57971C14.6925 5.97599 14.9772 6.33174 15.3687 6.37227C15.7602 6.41505 16.1117 6.12685 16.1517 5.73057C16.194 5.33654 16.4209 5.11138 16.69 5.03708C16.8079 5.0033 16.9347 4.9943 17.0593 5.00781C17.1838 5.02132 17.3062 5.05734 17.4107 5.11588C17.6554 5.24873 17.8289 5.51892 17.7867 5.9152L16.9636 13.5661C16.8813 14.3294 16.839 15.0386 16.799 15.6984C16.6388 18.407 16.5276 20.2533 13.4846 21.611C12.2433 22.1649 11.0466 22.2235 9.8832 21.8745C8.67088 21.5097 7.47413 20.7014 6.28627 19.5418C5.24301 18.5241 4.80034 17.2902 4.2598 15.7794C3.70369 14.2326 3.05415 12.42 1.60826 10.2247C1.37692 9.8735 1.39694 9.5245 1.55043 9.26782C1.61716 9.15524 1.70614 9.05842 1.80624 8.98412C1.90634 8.90981 2.01979 8.85803 2.13323 8.83326C2.38015 8.78147 2.66265 8.86929 2.88732 9.17325L6.64219 14.2348Z"></path>
<path fill="#FFE000" d="M25.0896 4.65885C25.0429 4.26257 24.6847 3.98112 24.2954 4.02841C23.9039 4.07569 23.6259 4.43595 23.6726 4.83223L24.6358 12.7623C24.6825 13.1586 25.0384 13.4401 25.4299 13.3928C25.8214 13.3455 26.0995 12.9852 26.0528 12.589L25.0896 4.65885Z"></path>
<path fill="#FFE000" d="M28.0703 3.72895C28.0236 3.33267 27.6654 3.05122 27.2762 3.09851C26.8847 3.14579 26.6066 3.5083 26.6533 3.90232L27.6832 12.3841C27.7299 12.7803 28.0859 13.0618 28.4774 13.0145C28.8689 12.9672 29.1469 12.607 29.1002 12.2107L28.0703 3.72895Z"></path>
<path fill="#FFE000" d="M31.2111 4.12296C31.1644 3.72668 30.8063 3.44524 30.417 3.49252C30.0255 3.5398 29.7475 3.90231 29.7942 4.29634L30.7307 12.008C30.7774 12.4043 31.1333 12.6858 31.5248 12.6385C31.9163 12.5912 32.1943 12.2287 32.1476 11.8347L31.2111 4.12296Z"></path>
<path fill="#FFE000"  d="M29.7698 4.09818C29.8165 4.49446 30.1747 4.77591 30.564 4.72863C30.9555 4.68135 31.2335 4.32109 31.1868 3.92481C31.1601 3.69515 31.2246 3.479 31.3536 3.31013C31.4826 3.14351 31.6762 3.02417 31.9008 2.99715C32.1277 2.97014 32.3413 3.03543 32.5081 3.16602C32.6727 3.29662 32.7906 3.49251 32.8173 3.71992L33.7694 11.5622C33.8161 11.9585 34.1742 12.2399 34.5635 12.1927C34.955 12.1454 35.2331 11.7851 35.1864 11.3888L34.2343 3.54654C34.1587 2.92736 33.8383 2.39373 33.3846 2.03347C32.9308 1.67322 32.3413 1.48859 31.7296 1.56514C31.1156 1.6417 30.5906 1.96593 30.2347 2.42525C29.8766 2.88232 29.6942 3.479 29.7698 4.09818Z"></path>
<path fill="#FFE000"  d="M26.6933 4.23555C26.74 4.63183 27.0982 4.91328 27.4874 4.866C27.8789 4.81871 28.157 4.45621 28.1103 4.06218L27.9768 2.9589C27.9501 2.72924 28.0146 2.51308 28.1437 2.34421C28.2727 2.1776 28.4662 2.05826 28.6909 2.03124C28.9178 2.00422 29.1313 2.06952 29.2981 2.20011C29.4628 2.3307 29.5807 2.52659 29.6073 2.754L29.7697 4.0982C29.8164 4.49448 30.1746 4.77593 30.5639 4.72865C30.9554 4.68137 31.2334 4.32111 31.1867 3.92483L31.0243 2.58063C30.9487 1.96144 30.6284 1.42782 30.1746 1.06756C29.7208 0.707307 29.1313 0.522677 28.5196 0.599231C27.9079 0.675785 27.3807 1.00001 27.0248 1.45934C26.6688 1.91866 26.4864 2.51533 26.5621 3.13452L26.6933 4.23555Z"></path>
<path fill="#FFE000"  d="M23.7926 5.82516C23.8393 6.22144 24.1952 6.50289 24.5867 6.45561C24.9782 6.40832 25.2563 6.04582 25.2096 5.65179L25.0628 4.44043C25.0361 4.21077 25.1006 3.99462 25.2296 3.82575C25.3586 3.65913 25.5521 3.5398 25.7768 3.51278C26.0015 3.48576 26.2173 3.55106 26.3841 3.68165C26.5487 3.81224 26.6666 4.00813 26.6933 4.23554C26.74 4.63182 27.0981 4.91327 27.4874 4.86599C27.8789 4.8187 28.157 4.4562 28.1103 4.06217C28.0346 3.44298 27.7143 2.90935 27.2605 2.5491C26.8067 2.18884 26.2173 2.00421 25.6055 2.08077C24.9938 2.15732 24.4666 2.48155 24.1107 2.94088C23.7548 3.40245 23.5724 3.99687 23.648 4.61606L23.7926 5.82516Z"></path>
<path fill="#FFE000"  d="M32.2701 13.35C32.0387 13.672 32.1099 14.1223 32.4258 14.3542C32.7439 14.5884 33.1888 14.5163 33.4179 14.1966L37.1016 9.08547C37.324 8.77925 37.6021 8.68694 37.8512 8.73647C37.9669 8.75899 38.0803 8.81077 38.1804 8.88057C38.285 8.95487 38.3762 9.04944 38.4429 9.15977C38.6008 9.4142 38.6253 9.7632 38.3984 10.1167C36.9792 12.3368 36.3541 14.156 35.8225 15.7074C35.302 17.225 34.8749 18.4656 33.845 19.4991C32.6727 20.6744 31.4871 21.4962 30.2814 21.879C29.1202 22.246 27.9213 22.2032 26.6734 21.6674C23.6147 20.3547 23.479 18.5084 23.2788 15.7975C23.2299 15.1332 23.1765 14.4195 23.0853 13.6675L22.1577 6.02781C22.131 5.79814 22.1955 5.58199 22.3246 5.41312C22.4536 5.24651 22.6471 5.12717 22.8718 5.10015C23.0964 5.07313 23.3122 5.13843 23.479 5.26902C23.6437 5.39961 23.7616 5.5955 23.7882 5.82291C23.835 6.21919 24.1909 6.50064 24.5824 6.45336C24.9739 6.40607 25.2519 6.04357 25.2052 5.64954C25.1296 5.0281 24.8093 4.49673 24.3555 4.13647C23.8995 3.77622 23.3122 3.59159 22.7005 3.66814C22.0888 3.74469 21.5616 4.06892 21.2057 4.52825C20.8498 4.98982 20.6673 5.58424 20.743 6.20343L21.6706 13.8431C21.7595 14.5839 21.8107 15.2683 21.8574 15.9055C22.0954 19.1366 22.26 21.3364 26.1217 22.9958C27.7033 23.6735 29.2248 23.7276 30.7063 23.2592C32.141 22.8044 33.5158 21.861 34.8504 20.5235C36.1139 19.2582 36.5877 17.8734 37.1683 16.1847C37.6755 14.7054 38.2694 12.974 39.5929 10.9048C40.1646 10.0086 40.0779 9.09222 39.653 8.40098C39.4839 8.12404 39.2593 7.88762 38.999 7.70299C38.7365 7.51611 38.4362 7.38326 38.1226 7.32022C37.3707 7.16936 36.5499 7.40803 35.9515 8.23887L32.2701 13.35Z"></path>
</g>
<clipPath id="clip0">
      <rect width="40" height="23" fill="white" transform="translate(0 0.56543)"/>
    </clipPath>
</svg>
