<svg xmlns="http://www.w3.org/2000/svg" fill="none" viewBox="0 0 31 25" height="25" width="31">
  <path fill="#FFE000" d="M20.5376 17.7169C19.5473 18.376 18.7816 18.7071 17.9352 18.7798C17.1064 18.8525 16.2583 18.6684 15.0759 18.3C14.4297 18.0981 13.79 17.6943 13.0146 17.2032C11.0809 15.9803 8.23293 14.1807 2.66296 14.1807C2.30272 14.1807 2.06687 14.2486 1.9231 14.36C1.78902 14.465 1.72763 14.6363 1.71471 14.8285C1.64686 15.8511 2.67104 16.1063 3.6936 16.3615C4.01184 16.4407 4.33007 16.5198 4.6677 16.6329C6.4592 17.2306 7.92923 18.2047 10.2134 19.72L10.3734 19.825C11.6092 20.644 12.916 21.4501 14.2778 22.0785C15.6138 22.694 17.0079 23.1398 18.4472 23.2578C20.2258 23.4048 21.6749 22.9686 23.5956 22.3919C23.7684 22.3402 23.9461 22.2869 24.1271 22.232C25.5179 21.8184 26.5163 21.623 27.4241 21.4469C28.059 21.3225 28.6486 21.2078 29.2916 21.0317V14.0208C27.2917 14.045 24.5584 14.0192 22.8816 13.1323L22.6926 13.0321C20.8348 12.05 20.3631 11.7996 17.0709 11.1421C16.4603 11.0193 16.037 11.1663 15.819 11.4264C15.7398 11.5217 15.6849 11.6348 15.659 11.756C15.6316 11.8787 15.6348 12.0096 15.6687 12.1372C15.7624 12.491 16.1017 12.8302 16.7317 12.9885C18.1274 13.3375 19.5312 14.0692 20.3438 14.8802C20.6232 15.1597 20.8413 15.4601 20.9802 15.7719C21.1402 16.1321 21.1886 16.4972 21.0982 16.8575C21.0287 17.1353 20.8817 17.397 20.6442 17.6329C20.6087 17.6652 20.5748 17.6926 20.5376 17.7169ZM17.8318 17.5747C18.4392 17.5214 19.0304 17.2613 19.8204 16.7395C19.8737 16.6781 19.9076 16.62 19.9205 16.5651C19.9431 16.4762 19.9237 16.3728 19.8737 16.2598C19.8026 16.0982 19.6669 15.9221 19.4827 15.7364C18.8156 15.0692 17.6298 14.4602 16.4344 14.1613C15.3214 13.8835 14.6946 13.1888 14.4975 12.4457C14.4135 12.1307 14.4071 11.8076 14.4733 11.5023C14.5395 11.1954 14.6817 10.903 14.8933 10.6526C15.3747 10.0808 16.205 9.73668 17.3035 9.95638C20.7621 10.6478 21.2662 10.9159 23.2515 11.966L23.4405 12.0661C24.9768 12.8787 27.8215 12.8383 29.718 12.8108L29.8311 12.8092C29.8521 12.8076 29.8715 12.806 29.8925 12.806C30.2269 12.806 30.4983 13.0774 30.4983 13.4118V21.4743C30.5048 21.7377 30.3368 21.9848 30.0718 22.0656L29.8925 21.4873L30.0702 22.064C29.1817 22.3386 28.4499 22.4807 27.6471 22.6374C26.7715 22.8071 25.8071 22.9961 24.4679 23.3935C24.287 23.4484 24.1093 23.5001 23.9365 23.5534C21.8913 24.1689 20.3486 24.6325 18.3439 24.4677C16.7527 24.3369 15.2245 23.8506 13.7674 23.1786C12.3361 22.5195 10.9792 21.6843 9.70135 20.8362L9.54627 20.728C7.33799 19.2628 5.91642 18.3194 4.28807 17.7783C4.03445 17.6943 3.71621 17.6151 3.39798 17.5343C1.88917 17.1579 0.372292 16.7783 0.507987 14.7477C0.541911 14.2324 0.740608 13.7526 1.18 13.4085C1.52732 13.1355 2.01033 12.9675 2.66134 12.9675C8.5754 12.9675 11.6011 14.8818 13.6559 16.1806C14.3554 16.6232 14.9337 16.9883 15.4345 17.145C16.4667 17.4681 17.1888 17.6296 17.8318 17.5747Z"></path>
  <path fill="#FFE000" d="M12.2295 1.95681C11.1359 0.806626 9.67877 0.210536 8.20712 0.173381C6.73709 0.136226 5.25252 0.661238 4.10395 1.75488L4.10557 1.75649C4.09426 1.76619 4.08134 1.77588 4.07003 1.78719L4.05872 1.79688L4.06034 1.7985C2.91823 2.89052 2.32376 4.34279 2.28822 5.80959C2.25106 7.27962 2.77608 8.76419 3.86972 9.91276C4.96336 11.0629 6.42047 11.659 7.89212 11.6962C9.36215 11.7333 10.8467 11.2083 11.9953 10.1147L11.9937 10.1131C12.005 10.1034 12.0179 10.0921 12.0292 10.0824L12.0405 10.0727L12.0389 10.0711C13.181 8.97905 13.7755 7.52678 13.811 6.05998C13.8466 4.58994 13.3232 3.10699 12.2295 1.95681ZM4.90197 2.66436L4.91328 2.65467C4.91974 2.64821 4.92459 2.64336 4.92943 2.6369C4.93105 2.6369 4.93105 2.63528 4.93266 2.63528L4.93105 2.63367C4.93266 2.63205 4.93266 2.63205 4.93428 2.63044C5.84376 1.76619 7.01656 1.35102 8.17805 1.3801C9.33953 1.40918 10.4897 1.88088 11.354 2.79036C12.2182 3.69985 12.6334 4.87264 12.6043 6.03413C12.5752 7.194 12.1035 8.3458 11.194 9.21005L11.2683 9.28759L11.6108 9.64622L11.194 9.20844L11.1924 9.20682L11.1827 9.21813C11.1763 9.22459 11.1714 9.22944 11.1666 9.2359L11.165 9.23751L11.1666 9.23913C11.165 9.24074 11.165 9.24074 11.1633 9.24236C10.2539 10.1066 9.08107 10.5218 7.91958 10.4927C6.75809 10.4636 5.60791 9.99192 4.74366 9.08243C3.87941 8.17457 3.46425 7.00015 3.49332 5.83867C3.5224 4.67879 3.9941 3.52861 4.90197 2.66436Z"></path>
  <path fill="#FFE000" d="M8.8468 6.87093L8.09563 6.08261C7.78224 6.24577 7.50116 6.312 7.24915 6.27807C6.99876 6.24415 6.77583 6.12622 6.5836 5.92268C6.38813 5.71752 6.28798 5.48167 6.28475 5.21836C6.28152 4.95343 6.37844 4.7095 6.57391 4.48173L6.39621 4.29595L6.66922 4.03587L6.84691 4.22164C7.06984 4.05525 7.29277 3.97287 7.51893 3.97125C7.74347 3.97125 7.96155 4.05041 8.17479 4.2071L7.75801 4.72242C7.58839 4.60127 7.41716 4.57219 7.24431 4.63681L7.9454 5.37344C8.32502 5.16828 8.63195 5.07782 8.86296 5.10528C9.09558 5.13112 9.30882 5.24582 9.50267 5.44936C9.71913 5.67552 9.83221 5.93399 9.84352 6.21992C9.85483 6.50746 9.75306 6.78532 9.54305 7.05348L9.87744 7.40564L9.60444 7.66572L9.27812 7.32325C9.03581 7.50418 8.78219 7.59141 8.51726 7.58495C8.25395 7.57849 7.98417 7.47025 7.71116 7.25863L8.15217 6.73847C8.26687 6.81924 8.38803 6.87093 8.51241 6.89032C8.63518 6.9097 8.74665 6.90324 8.8468 6.87093ZM6.96484 4.89366C6.91476 4.98897 6.89699 5.08912 6.9083 5.1909C6.92284 5.29267 6.96322 5.3799 7.03269 5.45259C7.09569 5.51883 7.17484 5.56244 7.26854 5.58021C7.36385 5.5996 7.46885 5.58667 7.58354 5.54467L6.96484 4.89366ZM9.14404 6.63831C9.22158 6.53169 9.25712 6.41538 9.25066 6.28938C9.24258 6.16338 9.19574 6.05353 9.10527 5.95822C9.0245 5.87422 8.93081 5.82576 8.82419 5.81122C8.71596 5.79668 8.58995 5.82899 8.44618 5.9033L9.14404 6.63831Z"></path>
  <path fill="#FFE000" d="M8.06506 2.21042C9.08924 2.21042 10.0165 2.62558 10.6869 3.29598C11.3573 3.96638 11.7725 4.89363 11.7725 5.91781C11.7725 6.94199 11.3573 7.86924 10.6869 8.53964C10.0165 9.21004 9.08924 9.62521 8.06506 9.62521C7.04088 9.62521 6.11363 9.21004 5.44323 8.53964C4.77283 7.86924 4.35767 6.94199 4.35767 5.91781C4.35767 4.89363 4.77283 3.96638 5.44323 3.29598C6.11363 2.62558 7.04088 2.21042 8.06506 2.21042ZM10.367 3.61745C9.77741 3.02944 8.96485 2.66435 8.06506 2.66435C7.16688 2.66435 6.35271 3.02944 5.76308 3.61745C5.17345 4.20708 4.80998 5.01964 4.80998 5.91943C4.80998 6.8176 5.17345 7.63178 5.76308 8.2214C6.3511 8.81103 7.16527 9.1745 8.06506 9.1745C8.96323 9.1745 9.77741 8.81103 10.367 8.2214C10.9567 7.63339 11.3201 6.81922 11.3201 5.91943C11.3201 5.01964 10.955 4.20708 10.367 3.61745Z"></path>
</svg>
