<svg xmlns="http://www.w3.org/2000/svg" fill="none" viewBox="0 0 22 22" height="22" width="22">
<mask height="22" width="22" y="0" x="0" maskUnits="userSpaceOnUse" style="mask-type:alpha" id="mask0">
<path fill="#C4C4C4" d="M11 21.6667C16.891 21.6667 21.6666 16.891 21.6666 11C21.6666 10.2154 21.582 9.45064 21.4212 8.71428H11V13.1333H16.8739C16.0021 15.5333 13.7012 17.2476 11 17.2476C7.54951 17.2476 4.75236 14.4505 4.75236 11C4.75236 7.54953 7.54951 4.75238 11 4.75238C12.7588 4.75238 14.3478 5.47912 15.4832 6.64871L18.5927 3.50811C16.6586 1.54812 13.9711 0.333328 11 0.333328C5.10895 0.333328 0.333313 5.10896 0.333313 11C0.333313 16.891 5.10895 21.6667 11 21.6667Z"></path>
</mask>
<g mask="url(#mask0)">
<path fill="#FEBD01" d="M-6.52368 11.0388L0.333461 5.20951L7.95251 11.1524L0.333462 16.7905L-6.52368 11.0388Z"></path>
<path fill="#FF4131" d="M0.333435 5.20953L8.94296 -3.39999L18.2382 -0.0476078L22.2763 7.1143L10.7715 7.57144L7.95248 11.1524L0.333435 5.20953Z"></path>
<path fill="#0286F7" d="M10.543 8.25715L22.8858 7.95239L22.7334 13.4381L19.6858 19.9905L13.4382 15.1143L10.543 13.7429V8.25715Z"></path>
<path fill="#01A94D" d="M0.333435 16.7905L7.95248 11.1524L8.79058 14.9619L13.4382 15.1143L19.6858 19.9905L13.362 22.7333L5.51439 22.2762L0.333435 16.7905Z"></path>
</g>
</svg>
