<svg width="31" height="24" viewBox="0 0 31 24" fill="none" xmlns="http://www.w3.org/2000/svg">
<path d="M2.90247 1.65876C5.21347 1.01014 7.51647 0.827566 9.70416 1.08221C11.9367 1.34486 14.0507 2.06235 15.9357 3.20904V3.20744C16.1375 3.33076 16.2416 3.55337 16.2208 3.77438V20.9988H16.2224C16.2224 21.3303 15.9533 21.5994 15.6218 21.5994C15.4793 21.5994 15.348 21.5498 15.2455 21.4665C13.5366 20.2942 11.4658 19.5542 9.35983 19.2788C7.233 19.0017 5.08055 19.2003 3.23879 19.913V19.9146C2.92969 20.0347 2.58216 19.881 2.46205 19.5719C2.43322 19.4966 2.42041 19.4197 2.42201 19.3444V2.24652C2.42521 1.95664 2.63021 1.71481 2.90247 1.65876ZM9.56803 2.27375C7.65581 2.04953 5.64749 2.18726 3.62476 2.70456V18.5181C5.45691 17.9639 7.50206 17.831 9.51678 18.0937C11.4482 18.3451 13.3556 18.9617 15.0276 19.9178V4.06266C13.3653 3.10494 11.5171 2.50116 9.56803 2.27375Z" fill="#FFE000"/>
<path d="M15.3032 23.9056C15.5834 24.0834 15.9534 24.0001 16.1312 23.7198C16.3089 23.4396 16.2257 23.0696 15.9454 22.8918C13.8169 21.5401 11.2385 20.6865 8.62479 20.3742C6.29617 20.0956 3.93231 20.2445 1.8247 20.8515V4.17636C1.96083 4.14433 2.10176 4.1123 2.2459 4.08027C2.53577 4.01781 2.82725 3.96016 3.11873 3.90891C3.44544 3.85125 3.66325 3.54216 3.6056 3.21545C3.54794 2.88873 3.23724 2.67093 2.91213 2.72858C2.60784 2.78143 2.30035 2.84229 1.99125 2.90795C1.7222 2.96721 1.43072 3.03607 1.12002 3.11615C0.839755 3.1658 0.62515 3.41243 0.62515 3.70872V21.6635C0.623548 21.7339 0.634759 21.8044 0.660383 21.8749C0.770889 22.1872 1.11522 22.3505 1.42752 22.2384V22.2368C3.55114 21.4809 6.03512 21.2711 8.48706 21.5642C10.9262 21.8573 13.3285 22.65 15.3032 23.9056Z" fill="#FFE000"/>
<path d="M27.6237 2.70458C25.5994 2.18728 23.5911 2.04955 21.6804 2.27377C19.7314 2.50118 17.8832 3.10496 16.2224 4.06267V19.9178C17.8944 18.9617 19.8019 18.3451 21.7333 18.0937C23.7464 17.831 25.7916 17.964 27.6253 18.5181V2.70458H27.6237ZM21.5443 1.08223C23.732 0.825983 26.035 1.00856 28.3476 1.65718C28.6199 1.71323 28.8249 1.95506 28.8249 2.24494V19.3445C28.8265 19.4197 28.8137 19.4966 28.7848 19.5719C28.6647 19.881 28.3172 20.0347 28.0081 19.9146V19.913C26.1663 19.2003 24.0139 19.0001 21.887 19.2788C19.781 19.5527 17.7103 20.2942 16.0014 21.4665C15.8989 21.5498 15.7676 21.5994 15.6251 21.5994C15.2935 21.5994 15.0245 21.3304 15.0245 20.9988H15.0261V3.7744C15.0069 3.55339 15.1094 3.33078 15.3112 3.20746V3.20906C17.1978 2.06236 19.3118 1.34488 21.5443 1.08223Z" fill="#FFE000"/>
<path d="M15.3032 22.8934C15.023 23.0712 14.9413 23.4412 15.1174 23.7214C15.2952 24.0017 15.6652 24.0834 15.9454 23.9072C17.9201 22.6532 20.3224 21.8588 22.7631 21.5674C25.2151 21.2743 27.6991 21.4841 29.8227 22.24V22.2416C30.135 22.3521 30.4777 22.1888 30.5898 21.8781C30.6154 21.8076 30.6251 21.7371 30.6251 21.6667V3.70871C30.6251 3.41243 30.4105 3.1658 30.127 3.11775C29.8307 3.04088 29.5552 2.97521 29.3006 2.91916C29.0011 2.8535 28.7096 2.79584 28.4262 2.74459C28.0994 2.68694 27.7887 2.90315 27.7295 3.22986C27.6718 3.55657 27.888 3.86727 28.2148 3.92652C28.4998 3.97777 28.7769 4.03222 29.0475 4.09148C29.1773 4.12031 29.3038 4.14914 29.4255 4.17796V20.8531C27.3163 20.2461 24.9524 20.0972 22.6254 20.3758C20.0101 20.6881 17.4317 21.5417 15.3032 22.8934Z" fill="#FFE000"/>

</svg>
