<svg width="23" height="25" viewBox="0 0 23 25" fill="none" xmlns="http://www.w3.org/2000/svg">
<path d="M22.4752 10.116L12.3907 0.838207C12.0628 0.536593 11.6311 0.373363 11.1857 0.382638C10.7404 0.391912 10.3158 0.572972 10.0008 0.887972L0.725973 10.1629L0.25 10.6388V24.3119H9.1875V15.7806H14.0625V24.3119H23V10.5988L22.4752 10.116ZM11.2207 2.00729C11.235 2.00729 11.2262 2.01039 11.22 2.01643C11.2137 2.01039 11.2064 2.00729 11.2207 2.00729ZM21.375 22.6869H15.6875V15.7806C15.6875 15.3497 15.5163 14.9363 15.2115 14.6316C14.9068 14.3268 14.4935 14.1556 14.0625 14.1556H9.1875C8.75652 14.1556 8.3432 14.3268 8.03845 14.6316C7.73371 14.9363 7.5625 15.3497 7.5625 15.7806V22.6869H1.875V11.3119L11.2207 2.037C11.2213 2.03639 11.2214 2.03583 11.2219 2.03522L21.375 11.3119V22.6869Z" fill="#FFE000"/>

</svg>
