<svg xmlns="http://www.w3.org/2000/svg" fill="none" viewBox="0 0 12 12" height="12" width="12">
<path fill="#A2CC80" d="M6.65696e-05 4.4915C-0.00158714 4.59286 0.0276048 4.69232 0.0837718 4.77671C0.139939 4.86109 0.220428 4.92641 0.314567 4.964L5.11507 6.8845L7.03557 11.6855C7.07267 11.7784 7.13676 11.858 7.21956 11.914C7.30236 11.9701 7.40007 12 7.50007 12H7.50807C7.60933 11.9984 7.70773 11.9661 7.79023 11.9073C7.87273 11.8486 7.93544 11.7662 7.97007 11.671L11.9701 0.671004C12.0028 0.581517 12.0093 0.484537 11.9888 0.391484C11.9682 0.298431 11.9216 0.213182 11.8542 0.145776C11.7869 0.0783697 11.7016 0.0316136 11.6086 0.0110142C11.5156 -0.00958519 11.4186 -0.00316994 11.3291 0.0295043L0.329067 4.0295C0.233849 4.06422 0.151415 4.12702 0.0926681 4.20961C0.0339212 4.29219 0.00163016 4.39067 6.65696e-05 4.492V4.4915Z"></path>
</svg>
