<svg xmlns="http://www.w3.org/2000/svg" fill="none" viewBox="0 0 63 74" height="74" width="63">
<path fill="white" d="M0 18.5V32.3144L11.7628 11.596L0 18.5Z" opacity="0.4"></path>
<path fill="white" d="M31.5031 0L19.7404 6.90403H43.2596L31.5031 0Z" opacity="0.4"></path>
<path fill="white" d="M63 55.5V41.6855L51.2435 62.4104L63 55.5Z" opacity="0.4"></path>
<path fill="white" d="M31.5031 74L43.2596 67.096H19.7404L31.5031 74Z" opacity="0.4"></path>
<path fill="white" d="M0 55.5L11.7628 62.4104L0 41.6855V55.5Z" opacity="0.4"></path>
<path fill="white" d="M63 18.5L51.2435 11.596L63 32.3144V18.5Z" opacity="0.4"></path>
<path fill="white" d="M45.6849 61.996L52.6159 49.7817L31.8227 61.996H45.6849Z" opacity="0.7"></path>
<path fill="white" d="M3.12712 37L10.0582 49.208V24.7921L3.12712 37Z" opacity="0.7"></path>
<path fill="white" d="M17.3151 12.004L10.3841 24.2183L31.1773 12.004H17.3151Z" opacity="0.7"></path>
<path fill="white" d="M17.3151 61.996H31.1773L10.3841 49.7817L17.3151 61.996Z" opacity="0.7"></path>
<path fill="white" d="M45.6849 12.004H31.8227L52.6159 24.2183L45.6849 12.004Z" opacity="0.7"></path>
<path fill="white" d="M52.9418 24.7921V49.208L59.8729 37L52.9418 24.7921Z" opacity="0.7"></path>
<path fill="white" d="M15.0716 46.6453V27.3548L31.5031 17.7032L47.9284 27.3548V46.6453L31.5031 56.2969L15.0716 46.6453ZM38.5282 44.0953C39.6061 43.1008 40.3894 41.8386 40.59 40.4233C37.8451 40.8441 35.9902 40.4743 34.5175 39.8878C33.051 39.2822 32.0671 38.5236 31.1773 37.6375C30.3062 36.7323 29.5604 35.725 28.9651 34.2397C28.3948 32.7479 28.0251 30.8546 28.4449 28.0688C27.0537 28.2728 25.8129 29.0696 24.8353 30.1661C23.8702 31.2753 23.1808 32.7033 22.8988 34.246C22.6106 35.7888 22.7171 37.4463 23.2059 39.0081C23.6947 40.5763 24.5721 42.0298 25.7189 43.1964C26.8657 44.363 28.3008 45.2555 29.8362 45.7528C31.3715 46.2564 33.0009 46.3648 34.5175 46.0651C36.0403 45.7783 37.444 45.077 38.5282 44.0953Z" clip-rule="evenodd" fill-rule="evenodd"></path>
</svg>
