<svg xmlns="http://www.w3.org/2000/svg" fill="none" height="16" width="15"><path fill="#fff" d="M5.625 1.438H.937v13.124h4.688V1.438zm8.438 0H9.375v4.687h4.688V1.437zm0 8.437v4.688H9.375V9.875h4.688zM0 1.437A.938.938 0 0 1 .938.5h4.687a.937.937 0 0 1 .938.938v13.124a.937.937 0 0 1-.938.938H.937A.938.938 0 0 1 0 14.562V1.438zm8.438 0A.937.937 0 0 1 9.374.5h4.688a.938.938 0 0 1 .937.938v4.687a.938.938 0 0 1-.938.938H9.375a.937.937 0 0 1-.938-.938V1.437zm.937 7.5a.937.937 0 0 0-.938.938v4.688a.937.937 0 0 0 .938.937h4.688a.938.938 0 0 0 .937-.938V9.875a.938.938 0 0 0-.938-.938H9.375z"></path></svg>