<svg xmlns="http://www.w3.org/2000/svg" fill="none" viewBox="0 0 30 31" height="31" width="30">
  <path fill="#FFE000" d="M15.5371 27.0605C15.3653 26.8871 15.1261 26.7795 14.8611 26.7795C14.5978 26.7795 14.3585 26.8871 14.1851 27.0605C14.0117 27.2323 13.9041 27.4715 13.9041 27.7365C13.9041 27.9998 14.0117 28.2391 14.1851 28.4125C14.3585 28.5859 14.5978 28.6935 14.8611 28.6935C15.1245 28.6935 15.3637 28.5859 15.5371 28.4125C15.7106 28.2407 15.8182 28.0014 15.8182 27.7365C15.8182 27.4731 15.7106 27.2339 15.5371 27.0605ZM14.8611 27.38C14.9607 27.38 15.049 27.4202 15.1132 27.4844C15.1775 27.5486 15.2176 27.6385 15.2176 27.7365C15.2176 27.836 15.1775 27.9244 15.1132 27.9886C15.0474 28.0528 14.9591 28.093 14.8611 28.093C14.7632 28.093 14.6749 28.0528 14.6106 27.9886C14.5464 27.9228 14.5063 27.8344 14.5063 27.7365C14.5063 27.6369 14.5464 27.5486 14.6106 27.4844C14.6733 27.4202 14.7632 27.38 14.8611 27.38Z" clip-rule="evenodd" fill-rule="evenodd"></path>
  <path fill="#FFE000" d="M17.2135 24.4817C17.4785 24.4817 17.7177 24.5892 17.8895 24.7627C18.063 24.9361 18.1705 25.1753 18.1705 25.4387C18.1705 25.7036 18.063 25.9429 17.8895 26.1147C17.7161 26.2881 17.4769 26.3957 17.2135 26.3957C16.9502 26.3957 16.7093 26.2881 16.5375 26.1147C16.3641 25.9413 16.2565 25.702 16.2565 25.4387C16.2565 25.1737 16.3641 24.9345 16.5375 24.7627C16.7109 24.5892 16.9502 24.4817 17.2135 24.4817ZM17.4656 25.1882C17.4014 25.124 17.3131 25.0838 17.2135 25.0838C17.1156 25.0838 17.0257 25.124 16.9614 25.1882C16.8972 25.2524 16.857 25.3407 16.857 25.4403C16.857 25.5382 16.8972 25.6265 16.9614 25.6924C17.0257 25.7566 17.114 25.7968 17.2135 25.7968C17.3115 25.7968 17.4014 25.7566 17.4656 25.6924C17.5299 25.6282 17.57 25.5398 17.57 25.4403C17.57 25.3407 17.5299 25.2524 17.4656 25.1882Z" clip-rule="evenodd" fill-rule="evenodd"></path>
  <path fill="#FFE000" d="M20.242 27.0605C20.0686 26.8871 19.8309 26.7795 19.566 26.7795C19.3026 26.7795 19.0634 26.8871 18.8899 27.0605C18.7165 27.2323 18.6089 27.4715 18.6089 27.7365C18.6089 27.9998 18.7165 28.2391 18.8899 28.4125C19.0618 28.5859 19.3026 28.6935 19.566 28.6935C19.8293 28.6935 20.0686 28.5859 20.242 28.4125C20.4154 28.2407 20.523 28.0014 20.523 27.7365C20.523 27.4731 20.4154 27.2339 20.242 27.0605ZM19.5676 27.38C19.6655 27.38 19.7538 27.4202 19.8181 27.4844C19.8823 27.5486 19.9224 27.6385 19.9224 27.7365C19.9224 27.836 19.8823 27.9244 19.8181 27.9886C19.7538 28.0528 19.6655 28.093 19.5676 28.093C19.468 28.093 19.3797 28.0528 19.3155 27.9886C19.2512 27.9228 19.2111 27.8344 19.2111 27.7365C19.2111 27.6369 19.2512 27.5486 19.3155 27.4844C19.3797 27.4202 19.4696 27.38 19.5676 27.38Z" clip-rule="evenodd" fill-rule="evenodd"></path>
  <path fill="#FFE000" d="M2.8031 6.63405C2.62515 6.31178 2.48378 5.95946 2.38453 5.58535C2.28016 5.18552 2.22235 4.76321 2.22235 4.32805C2.22235 3.53803 2.40701 2.79618 2.72655 2.16352C3.06376 1.49553 3.55511 0.946368 4.14281 0.586683V0.585077C4.35637 0.453407 4.62132 0.472676 4.8124 0.612375C5.38084 0.97206 5.85613 1.50998 6.18692 2.16191C6.50646 2.79457 6.69112 3.53642 6.69112 4.32645C6.69112 4.76 6.63492 5.1823 6.52894 5.58374C6.4314 5.95643 6.28898 6.30932 6.11007 6.63283C6.3927 6.99155 6.56266 7.44272 6.56266 7.93294V9.14206H6.89668C6.94485 9.14206 6.99302 9.14688 7.04119 9.15812C7.36555 9.23359 7.56627 9.55634 7.4908 9.87909H7.48919L7.08134 11.6438C7.03638 11.9312 6.78749 12.1512 6.48721 12.1512H6.33951V14.8569H7.33026C7.38646 14.8553 7.44266 14.8633 7.49886 14.8777C7.82001 14.9644 8.00788 15.2952 7.92117 15.6164H7.91957L7.44266 17.3682C7.39128 17.6508 7.1456 17.866 6.84854 17.866H6.60443V22.9787H8.92978L9.97495 21.0694L10.5016 21.3569L9.97334 21.0678C10.0842 20.8682 10.2889 20.7561 10.501 20.7563C8.01324 16.8395 9.76274 14.6311 12.1218 12.9027C12.6402 12.5224 13.1827 12.1736 13.71 11.8346L13.7683 11.7971C15.2081 10.873 16.5286 10.0255 16.6142 9.0712C16.616 9.04744 16.6192 9.02405 16.6236 9.00107C16.6473 8.87916 16.7073 8.77156 16.7911 8.68883C16.8281 8.65237 16.8697 8.62074 16.9149 8.59484V7.08098C16.733 7.02812 16.5705 6.93016 16.4396 6.79928C16.2389 6.59695 16.1136 6.31916 16.1136 6.01086C16.1136 5.81175 16.1682 5.61745 16.2678 5.44885C16.3674 5.28025 16.5087 5.13733 16.6837 5.03938C16.8282 4.9591 17.0129 5.01048 17.0931 5.155C17.1734 5.29951 17.1221 5.48417 16.9775 5.56446C16.8956 5.61103 16.8298 5.67686 16.7832 5.75233C16.7383 5.82941 16.7142 5.91772 16.7142 6.01246C16.7142 6.15377 16.772 6.28223 16.8651 6.37536C16.9583 6.46689 17.0867 6.52469 17.228 6.52469C17.3276 6.52469 17.4223 6.4974 17.501 6.44762C17.5797 6.39784 17.6455 6.32558 17.6889 6.23566C17.7611 6.08633 17.941 6.0237 18.0903 6.09596C18.2396 6.16661 18.3023 6.34646 18.23 6.49579C18.1385 6.68687 17.994 6.84424 17.8189 6.95343C17.725 7.01289 17.6228 7.05801 17.5154 7.08706V8.59642C17.5596 8.62212 17.6001 8.65325 17.636 8.68883C17.7199 8.77156 17.7799 8.87916 17.8035 9.00107C17.808 9.02405 17.8111 9.04747 17.8129 9.07122C17.8986 10.026 19.2206 10.874 20.6596 11.797L20.6611 11.7979L20.6842 11.8128C21.2213 12.1582 21.7734 12.5132 22.3038 12.9011C24.6631 14.6298 26.4142 16.8385 23.9237 20.7563H23.9256C24.1713 20.7563 24.3832 20.904 24.4764 21.116L25.496 22.9787H28.4248C28.7572 22.9787 29.027 23.2485 29.027 23.5809V29.8978C29.027 30.2302 28.7572 30.5 28.4248 30.5H6.00389C5.98894 30.5 5.97412 30.4994 5.95945 30.4984H2.91123C2.57885 30.4984 2.30908 30.2286 2.30908 29.8962V17.866H2.07789C1.80973 17.8708 1.56084 17.6942 1.48698 17.4228L2.06665 17.2639L1.48859 17.4212L1.01168 15.671C0.985991 15.6051 0.973145 15.5329 0.973145 15.459C0.973145 15.1266 1.24291 14.8569 1.5753 14.8569H2.57727V12.1512H2.43594C2.15814 12.156 1.90604 11.9665 1.84181 11.6855L2.42791 11.5507L1.84342 11.6839L1.43396 9.92084C1.41629 9.86464 1.40826 9.80683 1.40826 9.74421C1.40826 9.41182 1.67803 9.14206 2.01042 9.14206H2.35242V7.93294C2.35242 7.44352 2.52069 6.99187 2.8031 6.63405ZM22.4725 20.7563H11.9519C9.38926 17.2313 10.8345 15.3319 12.8299 13.871C13.3341 13.5016 13.8801 13.1516 14.4116 12.8112L14.4199 12.8058C15.5312 12.0921 16.5817 11.4176 17.2135 10.6051C17.8467 11.4202 18.9001 12.0957 20.014 12.8096C20.5455 13.15 21.093 13.5016 21.5956 13.8693C23.5913 15.3305 25.0367 17.2303 22.4725 20.7563ZM3.55511 9.14206V7.93455C3.55511 7.68566 3.65628 7.46086 3.82006 7.29707C3.98385 7.13329 4.21026 7.03212 4.45754 7.03212C4.70482 7.03212 4.93123 7.13329 5.09502 7.29546C5.2588 7.45925 5.35996 7.68566 5.35996 7.93294V9.14206H3.55511ZM2.76916 10.3622L2.90481 10.9469H3.17677L3.17942 10.9469H5.73736L5.74001 10.9469H6.01191L6.1477 10.3616C6.08877 10.3809 6.02585 10.3913 5.96051 10.3913H2.95457C2.88988 10.3913 2.82757 10.3811 2.76916 10.3622ZM3.54708 5.28025C3.59686 5.47294 3.6627 5.656 3.73977 5.82781H5.1753C5.25238 5.656 5.31821 5.47294 5.36799 5.28025C5.44506 4.9848 5.48681 4.66526 5.48681 4.32966C5.48681 3.72911 5.35033 3.17353 5.11428 2.70626C4.94247 2.36584 4.71767 2.07199 4.45754 1.84398C4.1958 2.07199 3.9726 2.36584 3.80079 2.70626C3.56475 3.17513 3.42826 3.73072 3.42826 4.32966C3.42665 4.66526 3.4684 4.9848 3.54708 5.28025ZM6.60443 24.1814V29.2941H27.8227V24.1814H6.60443ZM5.40173 17.866H3.51339V29.2957H5.40173V17.866ZM3.77997 14.8569V12.1512H5.1336V14.8569H3.77997ZM3.13498 16.0596C3.14966 16.0606 3.16448 16.0612 3.17942 16.0612H5.73576C5.7507 16.0612 5.76552 16.0606 5.7802 16.0596H6.5563L6.39251 16.6617H2.52429L2.3589 16.0596H3.13498ZM23.5723 21.959H10.8565L10.3121 22.9514H24.1167L23.5723 21.959Z" clip-rule="evenodd" fill-rule="evenodd"></path>
</svg>
