<svg xmlns="http://www.w3.org/2000/svg" fill="none" viewBox="0 0 16 13" height="13" width="16">
<path fill="#A2CC80" d="M0 12.1875C0 12.6362 0.35825 13 0.8 13H2.4C2.84175 13 3.2 12.6362 3.2 12.1875V4.0625H0V12.1875ZM14.479 7.3125C14.9255 6.87096 15.2 6.36441 15.2 5.81674C15.2 4.47459 14.1553 3.43535 13.002 2.69623C11.9535 2.02414 10.9862 1.22941 10.203 0.253145L10 0L9.797 0.253145C9.01375 1.22941 8.04675 2.02439 6.998 2.69623C5.84475 3.43535 4.8 4.47459 4.8 5.81674C4.8 6.36441 5.0745 6.87096 5.521 7.3125H14.479ZM15.2 8.125H4.8C4.35825 8.125 4 8.48885 4 8.9375V12.1875C4 12.6362 4.35825 13 4.8 13H5.6V11.375C5.6 10.9263 5.95825 10.5625 6.4 10.5625C6.84175 10.5625 7.2 10.9263 7.2 11.375V13H8.8V11.1719C8.8 9.95312 10 9.34375 10 9.34375C10 9.34375 11.2 9.95312 11.2 11.1719V13H12.8V11.375C12.8 10.9263 13.1582 10.5625 13.6 10.5625C14.0417 10.5625 14.4 10.9263 14.4 11.375V13H15.2C15.6418 13 16 12.6362 16 12.1875V8.9375C16 8.48885 15.6418 8.125 15.2 8.125ZM1.6 0C1.6 0 0 0.8125 0 2.4375V3.25H3.2V2.4375C3.2 0.8125 1.6 0 1.6 0Z"></path>
</svg>
