<svg width="31" height="29" viewBox="0 0 31 29" fill="none" xmlns="http://www.w3.org/2000/svg">
  <path d="M28.6249 8.99289C28.5632 8.99289 28.5014 9.0029 28.4397 9.02125L17.3753 12.478V13.7577C17.437 13.7577 17.4988 13.7493 17.5605 13.7293L28.6249 10.2708V8.99289Z" fill="#FFE000"/>
  <path d="M28.6249 11.2985C28.5632 11.2985 28.5014 11.3069 28.4397 11.3269L24.4524 12.5731V13.8811L28.6249 12.5765V11.2985Z" fill="#FFE000"/>
  <path d="M17.5605 16.0333L21.5478 14.787V13.479L17.3753 14.7837V16.0616C17.437 16.0616 17.4988 16.0533 17.5605 16.0333Z" fill="#FFE000"/>
  <path d="M2.56049 9.02125C2.49876 9.0029 2.43703 8.99289 2.37531 8.99289V10.2708L13.4397 13.7293C13.5014 13.7493 13.5632 13.7577 13.6249 13.7577V12.478L2.56049 9.02125Z" fill="#FFE000"/>
  <path d="M2.56049 11.3269C2.49876 11.3069 2.43703 11.2985 2.37531 11.2985V12.5765L6.54781 13.8811V12.5731L2.56049 11.3269Z" fill="#FFE000"/>
  <path d="M9.45238 14.787L13.4397 16.0333C13.5014 16.0533 13.5632 16.0616 13.6249 16.0616V14.7837L9.45238 13.479V14.787Z" fill="#FFE000"/>
  <path fill-rule="evenodd" clip-rule="evenodd" d="M0.998929 4.38663L15.3183 0.0289414V0.027273C15.4601 -0.0161037 15.6069 -0.00609365 15.7353 0.0456247L30.0563 4.40331L29.9867 4.63358L30.058 4.40165C30.3698 4.49614 30.5538 4.81362 30.4878 5.12535C30.4959 5.16538 30.5001 5.20678 30.5001 5.24916V23.374C30.5001 23.6772 30.2839 23.9303 29.9974 23.9875L15.7492 28.324C15.6729 28.3572 15.5886 28.3756 15.5001 28.3756C15.4076 28.3756 15.3198 28.3555 15.2408 28.3194L0.945543 23.9696C0.658798 23.8837 0.479996 23.6073 0.50553 23.3199C0.501943 23.2928 0.500092 23.2652 0.500092 23.2371V5.11235C0.500092 5.09512 0.50079 5.07805 0.502159 5.06117C0.494037 4.98077 0.501505 4.89746 0.52679 4.81539C0.59686 4.59017 0.782045 4.43168 0.998929 4.38663ZM29.2488 15.784V5.84065L16.1257 9.83384V20.0249C16.2195 20.1591 16.3465 20.27 16.4994 20.3543C16.7647 20.4994 17.1084 20.5661 17.5021 20.5444C17.7507 20.5311 18.0159 20.4827 18.2912 20.3943C18.9469 20.1857 19.5525 19.7954 20.0096 19.3232C20.455 18.8628 20.7553 18.3289 20.8187 17.8184C20.8404 17.6482 20.9956 17.5264 21.1674 17.5464C21.3376 17.5681 21.4594 17.7233 21.4393 17.8951C21.434 17.9379 21.4273 17.9808 21.4195 18.0237C21.4291 18.0515 21.4348 18.0811 21.436 18.112C21.4444 18.2872 21.4761 18.444 21.5311 18.5775C21.6145 18.7843 21.748 18.9445 21.9198 19.0479C22.0967 19.1564 22.3169 19.2081 22.5688 19.1964C22.7657 19.1864 22.9792 19.1397 23.2045 19.0496C23.7133 18.8461 24.1854 18.464 24.5441 17.9986C24.8868 17.555 25.1234 17.0393 25.1876 16.5383C25.185 16.5077 25.1829 16.4767 25.1814 16.4453C25.1747 16.2735 25.3082 16.1267 25.4801 16.12C25.6519 16.1133 25.7987 16.2468 25.8054 16.4186L25.8055 16.4212C25.8156 16.4573 25.8192 16.4958 25.8154 16.5354L25.8152 16.5378C25.8302 16.6655 25.8591 16.7817 25.8988 16.8841C25.9822 17.091 26.1157 17.2511 26.2875 17.3546C26.466 17.463 26.6863 17.5147 26.9382 17.503C27.135 17.493 27.3486 17.4463 27.5738 17.3562C28.0827 17.1527 28.5548 16.7706 28.9135 16.3052C29.0411 16.14 29.1541 15.9647 29.2488 15.784ZM21.0413 18.9997C20.8836 19.2656 20.686 19.5216 20.4567 19.7587C20.2481 19.9739 20.0122 20.1746 19.756 20.3534V21.6672L22.5255 20.8997V19.8207C22.1776 19.8246 21.8605 19.7412 21.5962 19.5801C21.3649 19.4411 21.1765 19.2453 21.0413 18.9997ZM19.132 21.8401V20.7237C18.9219 20.8281 18.7035 20.9172 18.4797 20.9882C18.1511 21.0933 17.8341 21.1517 17.5371 21.1684C17.0266 21.1968 16.5661 21.1017 16.2008 20.9015C16.1753 20.8876 16.1503 20.8732 16.1257 20.8583V22.6732L19.132 21.8401ZM23.1494 19.7263V20.7267L26.4393 19.815V18.0789C26.2682 18.0388 26.1091 17.9742 25.9655 17.8868C25.8053 17.7905 25.6657 17.6669 25.55 17.5184C25.4182 17.8202 25.2441 18.1113 25.038 18.3789C24.6159 18.9278 24.052 19.3816 23.4347 19.6285C23.3384 19.667 23.2433 19.6995 23.1494 19.7263ZM27.0633 18.1188V19.6421L29.2488 19.0364V16.8795C28.8487 17.3407 28.347 17.718 27.804 17.9351C27.5479 18.0376 27.2995 18.0977 27.0633 18.1188ZM17.6889 22.8869L16.1257 23.3201V24.6372L17.6894 24.2039C17.6891 24.1981 17.6889 24.1923 17.6889 24.1864V22.8869ZM18.3129 22.7139V24.0311L21.0072 23.2844V21.9672L18.3129 22.7139ZM21.6312 21.7943V23.1115L24.132 22.4184V21.1012L21.6312 21.7943ZM24.756 20.9283V22.2455L27.6889 21.4327V20.1155L24.756 20.9283ZM24.4741 22.9704C24.5108 22.9669 24.5456 22.957 24.5775 22.9418L26.2458 22.4794V23.8282L23.3129 24.7207V23.2923L24.4741 22.9704ZM28.3129 19.9426V21.2598L29.2488 21.0004V19.6832L28.3129 19.9426ZM19.5641 24.3312L16.1257 25.2841V26.9078L19.5641 25.8615V24.3312ZM20.1869 24.1586C20.1877 24.1678 20.1881 24.177 20.1881 24.1864V25.6716L22.6889 24.9106V23.4652L20.1869 24.1586ZM26.8698 22.3065V23.6384L29.2488 22.9144V21.6472L26.8698 22.3065ZM1.75134 5.84021L14.8745 9.8334V20.0249C14.7807 20.1599 14.6541 20.2708 14.5007 20.3543C14.2355 20.4994 13.8918 20.5678 13.4981 20.5444C13.2495 20.5311 12.9842 20.481 12.7089 20.3943C12.0533 20.1858 11.4477 19.7954 10.9906 19.3232C10.5451 18.8628 10.2448 18.3306 10.1814 17.8184C10.1614 17.6465 10.0046 17.5248 9.83441 17.5464C9.66257 17.5665 9.54078 17.7233 9.56247 17.8951C9.56756 17.9364 9.57382 17.9778 9.5812 18.0191C9.57054 18.0483 9.56404 18.0794 9.56246 18.112C9.55412 18.2872 9.52242 18.4423 9.46903 18.5775C9.38729 18.7843 9.25215 18.9428 9.08031 19.0479C8.90347 19.1547 8.68158 19.2064 8.43133 19.1964C8.23447 19.1881 8.02092 19.1397 7.79569 19.0496C7.28518 18.8461 6.81471 18.464 6.45602 17.9986C6.11161 17.5512 5.87433 17.0339 5.81156 16.5306C5.81387 16.5025 5.8157 16.4741 5.81706 16.4453C5.82373 16.2735 5.69027 16.1283 5.51843 16.12C5.34659 16.1133 5.20145 16.2451 5.1931 16.4186L5.19253 16.4299C5.18447 16.462 5.18147 16.4959 5.18432 16.5305C5.16989 16.6606 5.14141 16.7785 5.09968 16.8841C5.01793 17.091 4.88279 17.2495 4.71096 17.3546C4.53411 17.4613 4.31222 17.5131 4.06197 17.503C3.86511 17.4947 3.6499 17.4463 3.42634 17.3562C2.91583 17.1527 2.44536 16.7706 2.08667 16.3052C1.95904 16.1394 1.84612 15.964 1.75134 15.7833V5.84021ZM14.801 20.9015C14.826 20.8879 14.8504 20.8738 14.8745 20.8592V22.6737L11.4359 21.7207C11.4371 21.7097 11.4377 21.6986 11.4377 21.6873V20.4814C11.7741 20.6934 12.1402 20.8671 12.5221 20.9882C12.8508 21.0933 13.1677 21.1517 13.4647 21.1684C13.9769 21.1968 14.4357 21.1017 14.801 20.9015ZM10.8137 21.5483L8.31293 20.8553V19.8127C8.34371 19.8154 8.37428 19.8174 8.40464 19.8187C8.78001 19.8354 9.12035 19.752 9.40397 19.5801C9.63413 19.441 9.82351 19.2438 9.95919 18.9982C10.1172 19.2647 10.3154 19.5211 10.5451 19.7587C10.6326 19.8492 10.7249 19.9371 10.8214 20.0218C10.8164 20.044 10.8137 20.067 10.8137 20.0907V21.5483ZM4.75601 19.8695L7.68896 20.6823V19.6749C7.64801 19.6605 7.60684 19.6451 7.56546 19.6285C6.94985 19.3816 6.38595 18.9278 5.96219 18.3789C5.75581 18.111 5.58162 17.8196 5.44972 17.5175C5.33376 17.6663 5.19396 17.7904 5.03461 17.8868C4.94695 17.9399 4.85387 17.9845 4.75601 18.0204V19.8695ZM6.24582 20.9292L4.40136 20.4181C4.37361 20.4143 4.347 20.4068 4.32205 20.3961L3.31289 20.1164V21.4331L6.24582 22.2459V20.9292ZM1.75134 19.0368L4.13205 19.6966V18.1274C4.10007 18.1275 4.0678 18.1268 4.03528 18.1253C3.77002 18.1137 3.48807 18.0519 3.19611 17.9351C2.65439 17.7179 2.15272 17.3404 1.75134 16.8789V19.0368ZM1.75134 19.6837L2.68893 19.9435V21.2602L1.75134 21.0004V19.6837ZM14.8745 23.3205L13.3129 22.8878V24.1864C13.3129 24.1924 13.3127 24.1984 13.3124 24.2043L14.8745 24.6372V23.3205ZM12.6889 24.0315V22.7148L9.99456 21.9681V23.2848L12.6889 24.0315ZM9.37061 23.1119V21.7952L6.86978 21.1022V22.4189L9.37061 23.1119ZM4.75601 22.4799L6.42663 22.9429C6.45713 22.9571 6.49029 22.9665 6.52512 22.9702L7.68896 23.2927V24.7205L4.75601 23.8281V22.4799ZM1.75134 21.6472L4.13205 22.307V23.6383L1.75134 22.9139V21.6472ZM8.31293 24.9104V23.4656L10.8149 24.159C10.8141 24.1681 10.8137 24.1772 10.8137 24.1864V25.6713L8.31293 24.9104ZM11.4377 25.8611V24.3316L14.8745 25.2841V26.9068L11.4377 25.8611ZM15.5001 1.27519L3.26286 4.99891L15.5001 8.72263L27.7373 4.99891L15.5001 1.27519Z" fill="#FFE000"/>
</svg>
