<svg width="31" height="27" viewBox="0 0 31 27" fill="none" xmlns="http://www.w3.org/2000/svg">
<path fill-rule="evenodd" clip-rule="evenodd" d="M30.3836 26.2357C30.1834 26.5186 29.7947 26.5859 29.5144 26.3838L15.4987 16.2959L1.4847 26.3822C1.20442 26.5825 0.815702 26.5169 0.615502 26.234C0.517546 26.0944 0.483762 25.9282 0.508336 25.7713C0.492453 25.6512 0.510785 25.5253 0.568468 25.4088L3.438 19.6147L1.68458 18.5084C1.39263 18.3248 1.30254 17.9342 1.48605 17.6395C1.54278 17.5486 1.61952 17.4762 1.70627 17.4257L9.65681 12.0906L0.762315 5.68924L1.12434 5.17735L0.760647 5.69093C0.518738 5.51581 0.43699 5.19756 0.548768 4.93151C0.588808 4.83553 0.6472 4.75639 0.720607 4.69409L5.09999 0.302586C5.30872 0.0933506 5.62773 0.0646586 5.86801 0.21545C5.91187 0.235066 5.95416 0.260117 5.99394 0.290721L7.07047 1.11842L7.56884 0.620767C7.69897 0.484375 7.90418 0.435543 8.08769 0.513C11.1591 1.81125 13.1678 3.74095 15.1147 5.61172C15.1797 5.67383 15.2442 5.73594 15.3089 5.79827L15.3091 5.79843C15.3707 5.85772 15.4325 5.91722 15.4951 5.97712C16.5979 4.90787 17.724 3.92281 18.9068 3.0691C20.2065 2.13119 21.5745 1.34988 23.056 0.782417C23.2262 0.703276 23.4347 0.731902 23.5782 0.869978L23.5774 0.870818L23.7804 1.06778L24.7911 0.290721C24.9203 0.19129 25.076 0.150478 25.2263 0.164204C25.3847 0.160277 25.5447 0.216725 25.6689 0.334579L30.3002 4.71934L30.3019 4.71766C30.3536 4.76817 30.3953 4.82374 30.427 4.88436L30.4337 4.89615C30.5738 5.17567 30.487 5.52423 30.2218 5.70272C30.2134 5.70777 30.2068 5.71282 30.1984 5.71787L21.3419 12.0923L29.2905 17.4257C29.3773 17.4762 29.454 17.5469 29.5107 17.6395C29.6943 17.9342 29.6042 18.3232 29.3122 18.5084L27.5588 19.6147L30.43 25.4105C30.487 25.5255 30.5056 25.6498 30.4907 25.7686C30.5168 25.9268 30.4833 26.0948 30.3836 26.2357ZM6.17505 2.01253L5.60276 1.57252L2.08697 5.09821L3.1808 5.88543L3.68327 4.58454C3.68977 4.56767 3.69712 4.55139 3.70526 4.53573C3.72835 4.47611 3.76386 4.4203 3.81175 4.3724L6.17505 2.01253ZM27.1551 4.34209L24.6904 1.95069L25.1672 1.58409L28.8938 5.11L27.7848 5.90832L27.3264 4.72143C27.3285 4.65094 27.3148 4.57889 27.2836 4.51048C27.2519 4.44312 27.2085 4.38587 27.1551 4.34209ZM21.2342 8.57194C22.9548 7.32487 24.7333 6.25024 26.5723 5.36381L27.0006 6.47285L15.9693 14.4142L15.9626 13.0871C17.6526 11.4048 19.4082 9.89399 21.2342 8.57194ZM15.0284 13.0906C13.315 11.5033 11.5572 10.0329 9.74435 8.7117C8.01965 7.45537 6.23749 6.32954 4.38452 5.36382L3.96504 6.44984L15.035 14.4169L15.0284 13.0906ZM20.2552 12.8745L16.5731 15.5247L28.3347 23.9894L26.1891 19.6618L26.1874 19.6635C26.0373 19.3587 26.1524 18.99 26.446 18.8283L27.8291 17.9561L20.2552 12.8745ZM14.426 15.523L2.66224 23.9893L4.80604 19.6618L4.80771 19.6635C4.95786 19.3587 4.84274 18.99 4.54912 18.8283L3.16607 17.9561L10.7435 12.8727L14.426 15.523ZM20.6886 7.80242C19.0661 8.97847 17.4941 10.3034 15.9689 11.7671V6.82755C17.0961 5.72173 18.2434 4.70805 19.4491 3.83862C20.6152 2.99669 21.8364 2.28947 23.1461 1.76074L26.0457 4.57278C24.1921 5.47533 22.4087 6.55636 20.6886 7.80242ZM10.2899 7.94723C11.9181 9.13263 13.4952 10.4309 15.0313 11.8179V6.83157C14.8492 6.6582 14.6603 6.47678 14.4724 6.29537L14.4683 6.29143C12.6444 4.54145 10.765 2.73814 8.01262 1.50816L4.9312 4.58457C6.77638 5.55447 8.55983 6.68602 10.2899 7.94723Z" fill="#FFE000"/>

</svg>
