<svg xmlns="http://www.w3.org/2000/svg" fill="none" viewBox="0 0 29 30" height="30" width="29">
  <path fill="#FFE000" d="M28.7728 0.277534C28.6242 0.116018 28.4126 0.0110326 28.1752 0.00134168C27.9394 -0.00834929 27.7213 0.0788694 27.5582 0.227464C27.3967 0.376059 27.2917 0.587645 27.282 0.825074C27.2762 0.966089 27.3047 1.10027 27.3598 1.21983L26.373 2.13353C26.2514 2.12237 26.1258 2.16023 26.0286 2.24805L25.6003 2.63555C25.4674 2.64407 25.3364 2.69652 25.2307 2.79393L23.9111 4.00853C23.7458 4.16074 23.6845 4.3832 23.731 4.58725L23.3029 4.98088C23.2041 4.89306 23.0951 4.82742 22.9759 4.78543C22.6141 4.65945 22.2523 4.54962 21.8921 4.45917C21.6192 4.39063 21.3434 4.33136 21.0656 4.27996C21.0547 4.17106 21.0248 4.06549 20.978 3.9682C20.8746 3.75177 20.6889 3.57572 20.445 3.49011C20.2011 3.40451 19.9475 3.42551 19.7311 3.52888C19.5243 3.62902 19.3531 3.80507 19.2643 4.03442C19.259 4.04604 19.2544 4.05835 19.2505 4.0709C19.2163 4.06938 19.1816 4.06798 19.1464 4.06669C19.1074 4.06515 19.0682 4.06378 19.0286 4.06256C19.015 4.01913 18.9982 3.97679 18.9784 3.9359C18.8783 3.72916 18.7022 3.55795 18.4729 3.46912C18.4551 3.46104 18.4357 3.45458 18.4163 3.44973C18.1821 3.37544 17.9382 3.39805 17.7315 3.49819C17.5248 3.59833 17.3535 3.77438 17.2647 4.00373C17.2566 4.0215 17.2502 4.04088 17.2453 4.06027C17.2383 4.08245 17.2321 4.10473 17.2268 4.12705C17.1515 4.13447 17.0758 4.1424 16.9998 4.15067C16.9966 4.15067 16.9917 4.15067 16.9885 4.15229C16.9133 4.16024 16.8384 4.16917 16.7642 4.17863C16.7576 4.16266 16.7505 4.14689 16.743 4.13133C16.6429 3.92459 16.4668 3.75338 16.2375 3.66455C16.2294 3.66133 16.2197 3.6581 16.2101 3.65488L16.21 3.65486C15.9661 3.56926 15.7109 3.59025 15.4977 3.69847C15.2813 3.80184 15.1052 3.98758 15.0196 4.23147C14.9873 4.32485 14.9705 4.42014 14.968 4.5143C14.8917 4.53358 14.8153 4.55354 14.7386 4.57385C14.6685 4.59277 14.5984 4.6123 14.5281 4.63218C14.4232 4.42383 14.2409 4.25498 14.0037 4.17171C13.7614 4.08611 13.5062 4.10872 13.2866 4.21371C13.0798 4.31385 12.9086 4.4899 12.8198 4.71925C12.8149 4.72894 12.8117 4.73702 12.8085 4.74671H12.8101L12.8115 4.74721C12.7574 4.90376 12.747 5.06568 12.7744 5.21861L12.6518 5.26675C12.6067 5.28467 12.562 5.30259 12.5177 5.32058C12.4098 5.16919 12.2559 5.04877 12.0671 4.98252C11.8232 4.89692 11.5697 4.91792 11.3532 5.0229C11.1465 5.12304 10.9753 5.29909 10.8864 5.52845C10.8784 5.5446 10.8719 5.56398 10.8671 5.58336C10.8125 5.75525 10.8102 5.93236 10.8524 6.09617C10.7873 6.13025 10.7229 6.16447 10.6587 6.1987C10.59 6.23495 10.5207 6.2723 10.4507 6.31076C10.3557 6.2171 10.239 6.14252 10.1047 6.09537C9.86243 6.00976 9.60724 6.03076 9.39242 6.13575C9.17599 6.23912 8.99994 6.42486 8.91433 6.66875C8.84647 6.86451 8.84715 7.06871 8.90444 7.25323C8.81032 7.31612 8.7167 7.3798 8.62358 7.44399C8.53529 7.50563 8.44872 7.5664 8.36364 7.62699C8.26988 7.53642 8.15554 7.46422 8.02438 7.41818C7.7821 7.33258 7.52691 7.35519 7.31209 7.45856C7.09566 7.56193 6.91961 7.74768 6.834 7.99157C6.7484 8.23384 6.77101 8.48904 6.87438 8.70385C6.88383 8.72364 6.89397 8.74308 6.90478 8.76215C6.84904 8.80945 6.79422 8.85627 6.7403 8.90248C6.68086 8.95549 6.61983 9.0101 6.55739 9.06631C6.51472 9.04131 6.46957 9.01941 6.42214 9.00104C6.40437 8.99297 6.38499 8.98651 6.36561 8.98005C6.13141 8.90575 5.88752 8.92836 5.68078 9.0285C5.47404 9.12864 5.30283 9.30469 5.214 9.53405C5.20592 9.55181 5.19946 9.57119 5.19462 9.59058C5.12032 9.82477 5.14293 10.0687 5.24307 10.2754C5.24949 10.2886 5.25621 10.3017 5.26324 10.3147C5.20085 10.3799 5.13974 10.4447 5.07992 10.5096C5.02749 10.565 4.97399 10.623 4.91926 10.6833C4.87813 10.6595 4.83472 10.6387 4.78921 10.621C4.77144 10.613 4.75206 10.6065 4.73268 10.6017C4.49848 10.5274 4.25459 10.5516 4.04785 10.6501C3.84111 10.7503 3.6699 10.9263 3.58107 11.1557C3.57299 11.1734 3.56653 11.1928 3.56169 11.2122C3.48739 11.4464 3.51162 11.6903 3.61014 11.897C3.64522 11.9694 3.68942 12.0375 3.74197 12.0992C3.70247 12.1508 3.66548 12.1998 3.63112 12.2459C3.59414 12.2924 3.55514 12.3441 3.5138 12.4005L3.49708 12.3945C3.25481 12.3089 2.99961 12.3299 2.7848 12.4349C2.56836 12.5382 2.39231 12.724 2.30671 12.9679C2.22272 13.2102 2.24372 13.4653 2.34709 13.6802C2.38942 13.7688 2.44556 13.8506 2.51385 13.9223C2.46917 13.9985 2.42488 14.0751 2.38098 14.1518C2.33952 14.2249 2.29911 14.2973 2.2596 14.3693C2.03663 14.3079 1.80663 14.3337 1.60896 14.4296C1.40222 14.5297 1.23101 14.7058 1.14218 14.9351C1.1341 14.9529 1.12764 14.9723 1.12279 14.9917C1.0485 15.2259 1.07111 15.4698 1.17125 15.6765C1.2388 15.816 1.34091 15.9393 1.47061 16.032C1.42989 16.1329 1.39031 16.2339 1.35213 16.3354C1.31203 16.4388 1.27439 16.5417 1.2384 16.6443C1.09121 16.6417 0.947074 16.6743 0.817529 16.736C0.610788 16.8362 0.439581 17.0122 0.350747 17.2416C0.342672 17.2594 0.336211 17.2787 0.331366 17.2981C0.257068 17.5323 0.27968 17.7762 0.37982 17.983C0.461992 18.1526 0.595279 18.2983 0.767187 18.3942C0.751423 18.4764 0.736431 18.559 0.722212 18.6419C0.707261 18.7291 0.693592 18.8163 0.681204 18.9029C0.629203 18.9176 0.578625 18.9367 0.53003 18.9601C0.313599 19.0635 0.137546 19.2492 0.0519427 19.4931C-0.0320457 19.7354 -0.0110486 19.9906 0.0923217 20.2054C0.191443 20.4129 0.366305 20.5834 0.595547 20.6725C0.600402 20.783 0.607194 20.8904 0.615612 20.9952C0.623345 21.0949 0.633364 21.1936 0.645182 21.2922L0.644707 21.2924C0.428275 21.3958 0.252223 21.5815 0.166619 21.8254C0.0826307 22.0677 0.103628 22.3229 0.206998 22.5377C0.310368 22.7541 0.496112 22.9302 0.740001 23.0158C0.847071 23.0529 0.956664 23.0695 1.06418 23.0676C1.09988 23.1654 1.13817 23.2634 1.1793 23.3614C1.2177 23.4532 1.25782 23.5446 1.29967 23.6353C1.17694 23.7351 1.07852 23.8669 1.01781 24.0237L1.01386 24.0329C1.01131 24.0387 1.00857 24.0449 1.0065 24.0511H1.00812L1.26654 24.1416L1.29077 24.1513L1.0065 24.0527C0.920899 24.295 0.943511 24.5502 1.04688 24.765C1.14702 24.9734 1.32307 25.1446 1.55243 25.2318L1.56166 25.2357C1.56745 25.2383 1.57367 25.241 1.57989 25.2431L1.66226 25.0089L1.68002 24.9588L1.5815 25.2431C1.81461 25.3255 2.05968 25.3076 2.26923 25.2141C2.31374 25.2703 2.35902 25.3258 2.40521 25.3804C2.44843 25.4322 2.49301 25.4841 2.53874 25.5358C2.47418 25.6162 2.42197 25.7087 2.38585 25.8116C2.30186 26.0539 2.32286 26.3091 2.42623 26.5239C2.5296 26.7404 2.71534 26.9164 2.95923 27.002C3.20151 27.086 3.4567 27.065 3.67152 26.9616C3.75749 26.9206 3.83708 26.8665 3.90717 26.801C3.97715 26.8547 4.04767 26.9077 4.1189 26.96C4.19607 27.0154 4.27484 27.0705 4.35522 27.1252C4.347 27.143 4.33929 27.1612 4.33212 27.1797C4.32404 27.1974 4.31758 27.2168 4.31274 27.2362C4.23844 27.4704 4.26105 27.7143 4.36119 27.921C4.46456 28.1375 4.65031 28.3135 4.8942 28.3991C5.13647 28.4831 5.39167 28.4621 5.60648 28.3587C5.75188 28.2893 5.87905 28.1827 5.97282 28.0462C6.0351 28.0761 6.09765 28.1054 6.16046 28.1342C6.22474 28.1644 6.28929 28.194 6.35432 28.2232L6.35269 28.2295C6.27839 28.4637 6.301 28.7076 6.40114 28.9144C6.50128 29.1211 6.67733 29.2923 6.90669 29.3811C6.92445 29.3892 6.94383 29.3957 6.96322 29.4005C7.19741 29.4748 7.4413 29.4522 7.64805 29.3521C7.84354 29.2574 8.00727 29.0948 8.09961 28.8835C8.12023 28.8903 8.14042 28.8969 8.16003 28.903C8.26986 28.9369 8.37808 28.9692 8.48468 28.9983L8.52631 29.0091C8.51727 29.169 8.54965 29.3265 8.61714 29.4667C8.71728 29.6735 8.89333 29.8447 9.12269 29.9335C9.13238 29.9384 9.14045 29.9416 9.15014 29.9448V29.9432L9.15065 29.9418C9.39277 30.0256 9.64776 30.0045 9.86243 29.9012C10.0692 29.8011 10.2404 29.625 10.3292 29.3957C10.3373 29.3779 10.3437 29.3585 10.3486 29.3391C10.3551 29.3185 10.3609 29.2979 10.366 29.2772C10.4581 29.2798 10.5507 29.281 10.6441 29.281C10.7313 29.281 10.8173 29.2793 10.902 29.2761C10.9175 29.3432 10.9405 29.4082 10.9704 29.47C11.0738 29.6864 11.2595 29.8625 11.5034 29.9481C11.7457 30.0321 12.0009 30.0111 12.2157 29.9077C12.4322 29.8043 12.6082 29.6186 12.6938 29.3747C12.7403 29.2405 12.7546 29.1024 12.7406 28.9693C12.8262 28.9438 12.9114 28.9169 12.9958 28.8885C13.0882 28.8574 13.1802 28.8246 13.2712 28.7902C13.3722 28.9196 13.5082 29.0241 13.671 29.0872C13.6887 29.0953 13.7081 29.1017 13.7275 29.1066C13.9617 29.1809 14.2056 29.1582 14.4123 29.0581C14.6288 28.9547 14.8048 28.769 14.8904 28.5251C14.9561 28.3356 14.9576 28.1381 14.9056 27.9582C14.9616 27.9225 15.0179 27.8858 15.0745 27.8483C15.1288 27.8123 15.1835 27.7752 15.2382 27.7371C15.3244 27.8115 15.4257 27.8713 15.5397 27.9113C15.782 27.997 16.0372 27.9743 16.252 27.871C16.4604 27.7708 16.6316 27.5948 16.7188 27.3654L16.7233 27.3549L16.7249 27.3512C16.7268 27.3469 16.7286 27.3424 16.7301 27.338H16.7285L16.4684 27.2475L16.4426 27.2378L16.7269 27.3363C16.8125 27.0941 16.7899 26.8389 16.6865 26.6241C16.677 26.6034 16.6667 26.5832 16.6556 26.5633C16.732 26.4899 16.8083 26.415 16.8851 26.3381C16.9565 26.2668 17.0287 26.1933 17.1015 26.1171C17.168 26.1627 17.2415 26.2004 17.3212 26.2283C17.5635 26.3123 17.8187 26.2913 18.0335 26.188C18.25 26.0846 18.426 25.8989 18.5116 25.655C18.5956 25.4127 18.5746 25.1575 18.4712 24.9427C18.4287 24.8537 18.3723 24.7715 18.3036 24.6996C18.3605 24.6246 18.4177 24.5479 18.4744 24.4694C18.5364 24.3877 18.5979 24.3032 18.6596 24.2164L18.6792 24.2248L18.6974 24.232C18.7151 24.2401 18.7345 24.2465 18.7539 24.2514C18.9881 24.3257 19.232 24.3015 19.4387 24.2029C19.6455 24.1028 19.8167 23.9267 19.9055 23.6974C19.9136 23.6796 19.92 23.6602 19.9249 23.6409C19.9992 23.4067 19.975 23.1628 19.8764 22.956C19.8249 22.8505 19.7538 22.7543 19.6659 22.6737C19.6951 22.6248 19.7249 22.5746 19.7553 22.5231C19.7885 22.4667 19.82 22.4127 19.8499 22.361C20.0749 22.4242 20.3068 22.3994 20.5047 22.3035C20.7115 22.2034 20.8827 22.0273 20.9715 21.798C20.9796 21.7802 20.986 21.7608 20.9909 21.7414C21.0652 21.5072 21.0426 21.2633 20.9424 21.0566C20.8868 20.9401 20.8072 20.8352 20.7076 20.7499C20.7366 20.6908 20.7642 20.6343 20.7906 20.5801C20.8175 20.5197 20.8444 20.4604 20.8712 20.4021C21.0743 20.4431 21.2797 20.4144 21.4577 20.3282C21.6741 20.2248 21.8502 20.0391 21.9358 19.7952C22.0197 19.5529 21.9988 19.2977 21.8954 19.0829C21.8297 18.9454 21.7308 18.8241 21.6048 18.7321C21.6361 18.6555 21.6689 18.5749 21.7032 18.4901C21.7381 18.4015 21.7711 18.3181 21.8016 18.2399C21.9762 18.258 22.1495 18.2261 22.3024 18.1525C22.5188 18.0492 22.6949 17.8634 22.7805 17.6195C22.8645 17.3773 22.8435 17.1221 22.7401 16.9073C22.669 16.7583 22.5589 16.6285 22.4177 16.5342L22.4416 16.4623L22.4687 16.3807C22.4853 16.3305 22.5016 16.2803 22.5177 16.2303C22.6694 16.235 22.8183 16.2026 22.9517 16.1384C23.1584 16.0383 23.3296 15.8622 23.4185 15.6329C23.4266 15.6151 23.433 15.5957 23.4379 15.5764C23.5122 15.3422 23.4895 15.0983 23.3894 14.8915C23.3119 14.7316 23.189 14.5929 23.0311 14.4971C23.0489 14.4312 23.066 14.3667 23.0825 14.3036L23.1315 14.1149C23.2539 14.1077 23.3728 14.0765 23.4815 14.0242C23.6979 13.9208 23.874 13.7351 23.9596 13.4912C24.0435 13.2489 24.0225 12.9937 23.9192 12.7789C23.838 12.6089 23.7059 12.4638 23.5348 12.3679C23.5484 12.3018 23.5613 12.2375 23.5735 12.1748C23.5836 12.123 23.5943 12.0667 23.6058 12.0057C23.7295 11.9989 23.8498 11.9676 23.9596 11.9148C24.176 11.8114 24.352 11.6257 24.4376 11.3818C24.5216 11.1395 24.5006 10.8843 24.3973 10.6695C24.2972 10.4628 24.1212 10.2917 23.892 10.2028C23.9007 10.1338 23.9088 10.0675 23.9159 10.004C23.923 9.94261 23.93 9.87905 23.9371 9.81319C24.023 9.79844 24.1062 9.77179 24.1841 9.73433C24.3908 9.63418 24.562 9.45813 24.6508 9.22878C24.6589 9.21101 24.6654 9.19325 24.6702 9.17386C24.7445 8.93967 24.7219 8.69578 24.6218 8.48904C24.5216 8.2823 24.3456 8.11109 24.1162 8.02225C24.0985 8.01418 24.0791 8.00772 24.0597 8.00287L24.0475 7.99909C24.0519 7.17549 23.9808 6.47667 23.8319 5.94673C23.7829 5.77199 23.7248 5.61418 23.6577 5.47456L24.1416 5.02961C24.34 5.09083 24.5644 5.04787 24.7284 4.89687L26.0479 3.68227C26.168 3.57166 26.2333 3.42394 26.2421 3.27315L26.6343 2.91835C26.7358 2.82657 26.7857 2.69961 26.7829 2.57327L27.7872 1.64338C27.8848 1.68726 27.9923 1.71363 28.1057 1.71826C28.3431 1.72795 28.5612 1.64073 28.7227 1.49214C28.8842 1.34354 28.9892 1.13195 28.9989 0.894526C29.0086 0.657097 28.9214 0.43905 28.7728 0.277534ZM28.1526 0.605412C28.222 0.608642 28.285 0.63933 28.3286 0.687785C28.3738 0.73624 28.3997 0.800846 28.3964 0.871913C28.3932 0.941365 28.3625 1.00436 28.3141 1.04797C28.2656 1.09319 28.201 1.11903 28.1299 1.1158C28.0605 1.11257 27.9975 1.08188 27.9539 1.03343C27.9087 0.984975 27.8828 0.920368 27.8861 0.849301C27.8893 0.779849 27.92 0.716858 27.9684 0.673249C28.0169 0.628024 28.0815 0.602181 28.1526 0.605412ZM1.35699 21.252C1.60088 21.3376 1.78663 21.5137 1.89 21.7301C1.99337 21.9449 2.01436 22.2001 1.93037 22.4424C1.85167 22.6667 1.6965 22.8417 1.50379 22.9488C1.53384 23.0299 1.56518 23.1098 1.59763 23.1886C1.63318 23.2737 1.67042 23.3585 1.70936 23.443C1.86701 23.4116 2.03483 23.4205 2.19688 23.4777C2.44077 23.5633 2.62651 23.7394 2.72988 23.9558C2.83325 24.1706 2.85586 24.4258 2.77026 24.6681L2.48599 24.5696L2.51183 24.5793L2.77026 24.6697H2.77187C2.7698 24.6759 2.76707 24.6821 2.76452 24.6879L2.76057 24.6972C2.72669 24.7846 2.68106 24.8644 2.62601 24.9351C2.66722 24.9868 2.70941 25.0384 2.75247 25.0896C2.80101 25.1474 2.85065 25.2048 2.90122 25.2617C3.10793 25.1732 3.34782 25.1591 3.57622 25.2383C3.82011 25.3239 4.00586 25.4999 4.10923 25.7163C4.21113 25.9281 4.23298 26.1791 4.15312 26.4183C4.22926 26.4767 4.30722 26.535 4.38701 26.5933C4.46973 26.6536 4.55444 26.7128 4.64061 26.771C4.69019 26.7335 4.74326 26.7011 4.7989 26.6741C5.00564 26.574 5.24953 26.5514 5.48373 26.6257L5.49499 26.6297C5.50948 26.6349 5.52457 26.6403 5.53864 26.6467C5.768 26.7355 5.94405 26.9067 6.04419 27.1135C6.1186 27.2681 6.15033 27.4436 6.13094 27.6202C6.20264 27.6551 6.27548 27.6897 6.34943 27.7239C6.43067 27.762 6.51283 27.7995 6.59617 27.8364C6.66806 27.7673 6.75019 27.7104 6.83885 27.6675C7.04559 27.5705 7.28948 27.5463 7.52368 27.6206C7.54306 27.6255 7.56244 27.6319 7.58021 27.64C7.80956 27.7288 7.98561 27.9 8.08575 28.1068C8.13464 28.2077 8.16505 28.3175 8.17473 28.4307C8.21257 28.4434 8.25235 28.4565 8.2957 28.4701C8.39746 28.5025 8.49921 28.5315 8.60258 28.559L8.66202 28.5748C8.75762 28.4187 8.89526 28.2977 9.05485 28.2215C9.25998 28.1181 9.50387 28.0939 9.73806 28.1682C9.75745 28.173 9.77683 28.1795 9.79459 28.1875C10.0239 28.2764 10.2 28.4476 10.3001 28.6543C10.3265 28.7087 10.3474 28.7656 10.3627 28.8242C10.4571 28.8274 10.5499 28.8287 10.6409 28.8287C10.7293 28.8287 10.8195 28.8265 10.911 28.8222C10.9144 28.8099 10.9181 28.7975 10.922 28.7851C10.9268 28.7658 10.9333 28.7464 10.9414 28.7286C11.0302 28.4993 11.2014 28.3232 11.4081 28.2231C11.6149 28.1229 11.8588 28.1003 12.093 28.1746C12.1123 28.1811 12.1301 28.1875 12.1479 28.1956C12.3318 28.2668 12.4814 28.391 12.5851 28.544C12.674 28.5179 12.7624 28.4901 12.8505 28.4605C12.9289 28.4343 13.0078 28.4063 13.0869 28.3766C13.0619 28.2335 13.0703 28.0826 13.117 27.9356C13.1218 27.9162 13.1283 27.8968 13.1364 27.8807C13.2252 27.6513 13.3964 27.4753 13.6031 27.3751C13.8196 27.2701 14.0732 27.2491 14.317 27.3347C14.4587 27.3844 14.5807 27.4646 14.6783 27.5655C14.7276 27.5342 14.7763 27.5025 14.8242 27.4704C14.8762 27.4362 14.9273 27.4014 14.9779 27.3662C14.9042 27.1749 14.8918 26.9578 14.9583 26.7484C14.9631 26.729 14.9696 26.7097 14.9776 26.6919C15.0665 26.4625 15.2377 26.2865 15.4444 26.1864C15.6512 26.0878 15.8951 26.0636 16.1293 26.1379C16.1486 26.1427 16.168 26.1492 16.1858 26.1573C16.2417 26.1789 16.2944 26.2055 16.3436 26.2362C16.4182 26.1649 16.4916 26.0929 16.5637 26.02C16.6449 25.9378 16.724 25.8568 16.801 25.7759C16.7966 25.7674 16.7923 25.7589 16.7882 25.7503C16.6849 25.5354 16.6639 25.2802 16.7479 25.038C16.8335 24.7941 17.0095 24.6083 17.226 24.505C17.4348 24.4045 17.6803 24.3818 17.9178 24.4578C17.9829 24.3725 18.0467 24.2875 18.1094 24.2029C18.1745 24.1147 18.2385 24.027 18.3011 23.9395C18.2583 23.8854 18.2217 23.8269 18.1918 23.7652C18.0933 23.5585 18.0691 23.3146 18.1434 23.0804C18.1482 23.061 18.1547 23.0433 18.1627 23.0255C18.2516 22.7945 18.4228 22.6201 18.6295 22.5199C18.8222 22.4272 19.0475 22.3995 19.2667 22.4566C19.2999 22.4006 19.332 22.3463 19.3628 22.2938C19.3865 22.2539 19.4108 22.2112 19.4364 22.1664L19.4364 22.1663L19.4539 22.1356C19.3725 22.0575 19.3063 21.9658 19.2578 21.8658C19.1545 21.6511 19.1335 21.3961 19.2173 21.154L19.2158 21.1535H19.2142C19.2174 21.1438 19.2207 21.1357 19.2255 21.1261C19.3144 20.8967 19.4856 20.7207 19.6923 20.6205C19.8782 20.5317 20.0895 20.5018 20.297 20.5466C20.3234 20.4925 20.3507 20.4365 20.3787 20.3782C20.4058 20.3226 20.4332 20.2659 20.4608 20.2081C20.3544 20.1208 20.2695 20.0117 20.2108 19.8905C20.1106 19.6837 20.088 19.4398 20.1623 19.2056C20.1672 19.1862 20.1736 19.1669 20.1817 19.1491C20.2705 18.9197 20.4417 18.7437 20.6485 18.6436C20.8129 18.5663 20.9996 18.5356 21.1861 18.5621C21.2117 18.4989 21.2361 18.4385 21.2592 18.381L21.2816 18.3253C21.3103 18.2528 21.3416 18.1727 21.3756 18.0852C21.2363 17.9911 21.1276 17.8623 21.0571 17.7148C20.9537 17.5 20.9327 17.2448 21.0167 17.0026C21.1023 16.7587 21.2784 16.5729 21.4948 16.4695C21.6463 16.3966 21.8179 16.3647 21.9909 16.3817C22.0067 16.3345 22.0222 16.2873 22.0375 16.2402C22.0524 16.1962 22.0669 16.1523 22.0813 16.1081C21.9154 16.0122 21.7866 15.8695 21.7064 15.704C21.603 15.4891 21.582 15.2339 21.666 14.9917C21.7516 14.7478 21.9277 14.562 22.1441 14.4587C22.2836 14.3889 22.4401 14.3552 22.5991 14.3635C22.6143 14.3069 22.6295 14.2492 22.6448 14.1905C22.6575 14.1426 22.6702 14.0928 22.6833 14.0417L22.6836 14.0408L22.6837 14.0403L22.6861 14.0309C22.483 13.9373 22.3275 13.7776 22.2362 13.5865C22.1328 13.3717 22.1118 13.1165 22.1958 12.8742C22.2814 12.6303 22.4575 12.4446 22.6739 12.3412C22.8043 12.2774 22.9491 12.2447 23.0973 12.2479L23.1202 12.1332L23.1293 12.0876L23.139 12.0394C23.1473 11.9981 23.1552 11.9586 23.1626 11.9208C22.9603 11.827 22.8053 11.6677 22.7143 11.4771C22.6141 11.2703 22.5915 11.0265 22.6658 10.7923C22.6707 10.7729 22.6771 10.7535 22.6852 10.7357C22.774 10.5064 22.9452 10.3303 23.152 10.2302C23.2428 10.1862 23.3407 10.1572 23.4419 10.1447C23.4497 10.0816 23.4575 10.017 23.4653 9.95072C23.4722 9.89141 23.4787 9.83416 23.4848 9.77911L23.4718 9.7747C23.2279 9.6891 23.0421 9.51305 22.9388 9.29662C22.8354 9.0818 22.8144 8.8266 22.8984 8.58433C22.984 8.34044 23.1601 8.1547 23.3765 8.05133C23.4456 8.01814 23.5191 7.99338 23.5951 7.97798C23.598 7.20598 23.5331 6.55633 23.3958 6.06949C23.2634 5.60109 23.0744 5.30067 22.8257 5.21345C22.4817 5.09393 22.1328 4.98894 21.7807 4.90011C21.5202 4.83439 21.2597 4.77751 20.9999 4.72882C20.9089 4.94895 20.7422 5.11706 20.5403 5.21349C20.3335 5.31363 20.0896 5.33624 19.8554 5.26194C19.8361 5.2571 19.8167 5.25064 19.7989 5.24256C19.5695 5.15373 19.3935 4.98252 19.2934 4.77578C19.2548 4.69609 19.2277 4.61087 19.2132 4.52282L19.127 4.51893L19.0535 4.51627C19.0467 4.5512 19.0378 4.58607 19.0269 4.62073C19.022 4.64011 19.0155 4.65949 19.0075 4.67726C18.9186 4.90661 18.7474 5.08266 18.5407 5.1828C18.334 5.28294 18.0901 5.30555 17.8559 5.23126C17.8365 5.22641 17.8171 5.21995 17.7993 5.21187C17.57 5.12304 17.3939 4.95183 17.2938 4.74509C17.2685 4.69279 17.2481 4.6381 17.233 4.5818C17.1717 4.58787 17.1107 4.59434 17.0499 4.6013C17.0483 4.6013 17.0463 4.60171 17.0442 4.60211L17.0442 4.60211C17.0422 4.60252 17.0402 4.60292 17.0386 4.60292L17.0127 4.3768L17.037 4.6013C16.9689 4.60902 16.9003 4.61735 16.831 4.62628C16.8239 4.69894 16.8083 4.77184 16.7834 4.84362L16.4991 4.74509L16.5492 4.76286L16.7834 4.84523H16.785C16.7818 4.85492 16.7785 4.863 16.7737 4.87269C16.6849 5.10204 16.5137 5.2781 16.3069 5.37824C16.0921 5.48161 15.8369 5.5026 15.5946 5.41862L15.6932 5.13435L15.6835 5.16019L15.593 5.42023V5.42185C15.5833 5.41862 15.5753 5.41539 15.5656 5.41054C15.341 5.32357 15.1676 5.15766 15.0664 4.95674C14.9957 4.9746 14.9251 4.99292 14.8549 5.01156L14.8548 5.01158C14.7793 5.03215 14.7039 5.05273 14.6288 5.07364C14.6268 5.16039 14.6126 5.24817 14.5852 5.33463C14.5803 5.35401 14.5739 5.37339 14.5658 5.39116C14.4769 5.62051 14.3057 5.79656 14.099 5.8967C13.8923 5.99684 13.6484 6.01945 13.4142 5.94516C13.3948 5.94031 13.3754 5.93385 13.3576 5.92578C13.1959 5.86315 13.0607 5.75957 12.9599 5.63146C12.9139 5.64942 12.8671 5.66786 12.8198 5.68669C12.7748 5.70458 12.7296 5.72287 12.6842 5.7415C12.7031 5.8825 12.6901 6.02995 12.6405 6.1729C12.5549 6.41678 12.3789 6.60253 12.1624 6.7059C11.9557 6.80604 11.7118 6.82865 11.4776 6.75435C11.4582 6.74951 11.4388 6.74305 11.4211 6.73497C11.2822 6.68118 11.1629 6.59719 11.0681 6.4934C11.0028 6.52736 10.9373 6.56201 10.8719 6.59764C10.8093 6.63097 10.7476 6.66431 10.6868 6.69764C10.7453 6.8831 10.7464 7.0887 10.6781 7.28574C10.5925 7.52963 10.4164 7.71537 10.2 7.81874C9.98518 7.92212 9.72999 7.94311 9.48771 7.85912C9.35216 7.81155 9.23457 7.73603 9.1391 7.64116C9.05241 7.69907 8.96618 7.75763 8.88039 7.81709C8.78874 7.88004 8.69655 7.94512 8.60383 8.01171C8.66534 8.19945 8.66848 8.40841 8.59776 8.60856C8.51216 8.85245 8.3361 9.03819 8.11967 9.14156C7.90486 9.24493 7.64966 9.26754 7.40739 9.18194C7.34016 9.15834 7.27735 9.12788 7.21946 9.09158C7.16006 9.14228 7.09994 9.19404 7.03911 9.24651C6.98563 9.29338 6.93324 9.33944 6.88214 9.3847C6.89872 9.41165 6.91392 9.4394 6.92768 9.46782C7.03105 9.68264 7.05205 9.93784 6.96806 10.1801C6.88246 10.424 6.70641 10.6097 6.48997 10.7131C6.28323 10.8133 6.03934 10.8359 5.80515 10.7616C5.78576 10.7567 5.76638 10.7503 5.74862 10.7422C5.68469 10.7174 5.62491 10.6863 5.56976 10.6497C5.5177 10.7046 5.46533 10.7602 5.41264 10.8164C5.35444 10.8792 5.29872 10.9401 5.24498 10.9995C5.26264 11.0281 5.27872 11.0576 5.29314 11.0878C5.39166 11.2946 5.41589 11.5385 5.3416 11.7727C5.33675 11.792 5.33029 11.8114 5.32221 11.8292C5.23338 12.0585 5.06217 12.2346 4.85543 12.3347C4.64869 12.4333 4.4048 12.4575 4.1706 12.3832C4.15284 12.3783 4.13345 12.3719 4.11569 12.3638L4.11045 12.3618C4.07297 12.4111 4.03383 12.4629 3.99291 12.5172C3.95623 12.5663 3.92133 12.6132 3.88841 12.6578C3.94546 12.7227 3.99306 12.7951 4.03008 12.8726C4.13345 13.0874 4.15445 13.3426 4.07046 13.5849C3.98486 13.8288 3.80881 14.0145 3.59238 14.1179C3.38248 14.2189 3.13404 14.2412 2.89676 14.1639C2.85524 14.2344 2.81462 14.3047 2.77508 14.3746C2.73441 14.4458 2.69411 14.5178 2.6542 14.5905C2.73843 14.6699 2.80653 14.764 2.85586 14.8673C2.956 15.074 2.97861 15.3179 2.90432 15.5521C2.89947 15.5715 2.89301 15.5909 2.88494 15.6087C2.7961 15.838 2.62489 16.0141 2.41815 16.1142C2.25717 16.1922 2.07365 16.2232 1.88973 16.198C1.84978 16.297 1.81139 16.3958 1.77368 16.4953C1.74073 16.5838 1.70858 16.673 1.67723 16.7626C1.84906 16.8585 1.98229 17.0042 2.06443 17.1738C2.16457 17.3805 2.18719 17.6244 2.11289 17.8586C2.10804 17.878 2.10158 17.8974 2.09351 17.9151C2.00467 18.1445 1.83347 18.3205 1.62672 18.4207C1.49682 18.4836 1.35225 18.5159 1.20463 18.5128C1.19176 18.5809 1.17959 18.6487 1.168 18.7162C1.15801 18.7743 1.14867 18.8325 1.13989 18.8907C1.17413 18.8984 1.20832 18.908 1.24232 18.9197C1.48621 19.0053 1.67195 19.1814 1.77532 19.3978C1.87869 19.6126 1.89969 19.8678 1.8157 20.1101C1.73009 20.354 1.55404 20.5398 1.33761 20.6431C1.248 20.6862 1.15136 20.715 1.05156 20.7278C1.05573 20.8034 1.06109 20.8802 1.06786 20.958C1.07451 21.0394 1.08252 21.12 1.09173 21.2003C1.18016 21.2043 1.26942 21.2211 1.35699 21.252ZM9.25029 29.6573L9.19465 29.8153L9.24059 29.6832L9.25029 29.6573ZM1.3473 21.9902C1.31015 21.9143 1.24555 21.8529 1.15833 21.8222C1.07111 21.7915 0.98066 21.7996 0.904748 21.8367C0.828835 21.8739 0.767459 21.9385 0.736771 22.0257C0.706083 22.1129 0.714159 22.2034 0.751307 22.2793C0.788456 22.3552 0.853063 22.4166 0.940281 22.4473C1.0275 22.4779 1.11795 22.4699 1.19386 22.4327C1.26977 22.3956 1.33115 22.331 1.36184 22.2437C1.39091 22.1565 1.38445 22.0661 1.3473 21.9902ZM17.9269 25.2027C17.8898 25.1268 17.8252 25.0654 17.738 25.0347C17.6507 25.0041 17.5603 25.0121 17.4844 25.0493C17.4085 25.0864 17.3471 25.151 17.3164 25.2383C17.2857 25.3255 17.2938 25.4159 17.3309 25.4918C17.3681 25.5677 17.4327 25.6291 17.5199 25.6598C17.6071 25.6905 17.6976 25.6824 17.7735 25.6453C17.8494 25.6081 17.9108 25.5435 17.9415 25.4563C17.9722 25.3707 17.9641 25.2786 17.9269 25.2027ZM24.0758 8.75069C24.0419 8.67963 23.9822 8.61986 23.903 8.58918L23.8949 8.58675L23.8869 8.58433V8.58272C23.7997 8.55203 23.7092 8.5601 23.6333 8.59725C23.5574 8.6344 23.496 8.69901 23.4653 8.78623C23.4346 8.87344 23.4427 8.96389 23.4799 9.03981C23.517 9.11572 23.5816 9.1771 23.6688 9.20778C23.756 9.23847 23.8465 9.2304 23.9224 9.19325C23.9935 9.15933 24.0532 9.09957 24.0839 9.02042C24.0855 9.01558 24.0872 9.00912 24.0888 9.00427H24.0904C24.1211 8.91705 24.113 8.8266 24.0758 8.75069ZM23.853 10.9295C23.819 10.8585 23.7593 10.7987 23.6801 10.768C23.6753 10.7664 23.6688 10.7648 23.664 10.7632V10.7616C23.5768 10.7309 23.4863 10.739 23.4104 10.7761C23.3393 10.81 23.2796 10.8698 23.2489 10.9489L23.2465 10.957L23.244 10.9651H23.2424C23.2117 11.0523 23.2198 11.1427 23.257 11.2187C23.2941 11.2946 23.3587 11.3559 23.4459 11.3866C23.5332 11.4173 23.6236 11.4092 23.6995 11.3721C23.7754 11.335 23.8368 11.2703 23.8675 11.1831C23.8966 11.0975 23.8885 11.0071 23.853 10.9295ZM23.3749 13.0373C23.3377 12.9614 23.2731 12.9 23.1859 12.8694C23.0987 12.8387 23.0082 12.8467 22.9323 12.8839C22.8564 12.921 22.795 12.9856 22.7643 13.0729C22.7336 13.1601 22.7417 13.2505 22.7789 13.3264C22.816 13.4024 22.8806 13.4637 22.9678 13.4944C23.0551 13.5251 23.1455 13.517 23.2214 13.4799C23.2973 13.4427 23.3587 13.3781 23.3894 13.2909C23.4201 13.2053 23.412 13.1149 23.3749 13.0373ZM22.8467 15.1532C22.8128 15.0821 22.753 15.0224 22.6739 14.9917L22.667 14.9896L22.6577 14.9868C22.5705 14.9561 22.4801 14.9642 22.4042 15.0014C22.3282 15.0385 22.2669 15.1031 22.2362 15.1903C22.2055 15.2776 22.2136 15.368 22.2507 15.4439C22.2846 15.515 22.3444 15.5731 22.4235 15.6054C22.4348 15.6087 22.4445 15.6119 22.4558 15.6167C22.5382 15.641 22.6222 15.6313 22.6933 15.5974C22.7643 15.5634 22.8225 15.5037 22.8548 15.4245C22.858 15.4132 22.8612 15.4019 22.8661 15.3922C22.8903 15.3082 22.8806 15.2243 22.8467 15.1532ZM22.1974 17.1673C22.1603 17.0914 22.0957 17.03 22.0084 16.9993C21.9212 16.9686 21.8308 16.9767 21.7549 17.0139C21.6789 17.051 21.6176 17.1156 21.5869 17.2028C21.5562 17.29 21.5643 17.3805 21.6014 17.4564C21.6386 17.5323 21.7032 17.5937 21.7904 17.6244C21.8776 17.6551 21.9681 17.647 22.044 17.6098C22.1199 17.5727 22.1813 17.5081 22.212 17.4209C22.241 17.3353 22.2346 17.2432 22.1974 17.1673ZM21.3527 19.3429C21.3155 19.267 21.2509 19.2056 21.1637 19.1749C21.0765 19.1443 20.986 19.1523 20.9101 19.1895C20.8391 19.2234 20.7793 19.2832 20.7486 19.3623C20.747 19.3671 20.7454 19.3736 20.7438 19.3785C20.7131 19.4657 20.7212 19.5561 20.7583 19.632C20.7922 19.7031 20.852 19.7629 20.9311 19.7935L20.9392 19.796L20.9473 19.7984V19.8C21.0345 19.8307 21.1249 19.8226 21.2009 19.7855C21.2768 19.7483 21.3381 19.6837 21.3688 19.5965C21.3979 19.5109 21.3898 19.4188 21.3527 19.3429ZM20.3997 21.3166C20.3626 21.2407 20.298 21.1794 20.2108 21.1487C20.1235 21.118 20.0331 21.1261 19.9572 21.1632C19.8861 21.1971 19.828 21.2569 19.7957 21.336C19.7924 21.3473 19.7892 21.3586 19.7844 21.3683C19.7601 21.4507 19.7698 21.5347 19.8037 21.6058C19.8377 21.6768 19.8974 21.7366 19.9766 21.7673C19.9879 21.7705 19.9976 21.7737 20.0089 21.7786C20.0912 21.8028 20.1752 21.7931 20.2463 21.7592C20.3174 21.7253 20.3771 21.6655 20.4078 21.5864L20.4102 21.5783L20.411 21.5757L20.4127 21.5702H20.4143C20.4433 21.483 20.4353 21.3926 20.3997 21.3166ZM19.3321 23.2177C19.3693 23.2936 19.3757 23.3841 19.3467 23.4713H19.345L19.3426 23.4793L19.3402 23.4874C19.3079 23.5666 19.2497 23.6263 19.1787 23.6602C19.1028 23.6974 19.0123 23.7039 18.9251 23.6748V23.6732C18.9203 23.6715 18.9138 23.6699 18.9089 23.6683C18.8298 23.636 18.77 23.5779 18.7361 23.5068C18.699 23.4309 18.6925 23.3404 18.7216 23.2532L18.724 23.2451L18.7264 23.2371C18.7587 23.1579 18.8169 23.0982 18.8879 23.0642C18.9639 23.0271 19.0559 23.0206 19.1415 23.0497C19.2287 23.0788 19.295 23.1418 19.3321 23.2177ZM20.4353 4.22663C20.3981 4.15071 20.3335 4.08934 20.2463 4.05865C20.1591 4.02796 20.0686 4.03604 19.9927 4.07319C19.9217 4.1071 19.8619 4.16687 19.8312 4.24601L19.8288 4.25407L19.8264 4.26216H19.8247C19.7941 4.34938 19.8021 4.43983 19.8393 4.51574C19.8732 4.58681 19.933 4.64657 20.0121 4.67726L20.0202 4.67968L20.0283 4.6821V4.68372C20.1155 4.71441 20.2059 4.70633 20.2818 4.66918C20.3577 4.63203 20.4191 4.56743 20.4498 4.48021C20.4789 4.3946 20.4708 4.30415 20.4353 4.22663ZM1.23101 19.6579C1.19386 19.582 1.12926 19.5206 1.04204 19.4899C0.954818 19.4592 0.864369 19.4673 0.788456 19.5044C0.712543 19.5416 0.651167 19.6062 0.620479 19.6934C0.589791 19.7806 0.597867 19.8711 0.635016 19.947C0.672165 20.0229 0.736771 20.0843 0.82399 20.115C0.911208 20.1457 1.00166 20.1376 1.07757 20.1004C1.15348 20.0633 1.21486 19.9987 1.24555 19.9115C1.27623 19.8259 1.26816 19.7338 1.23101 19.6579ZM1.52012 17.4354C1.48621 17.3643 1.42644 17.3046 1.3473 17.2739L1.33921 17.2715L1.33115 17.2691V17.2674C1.24393 17.2367 1.15348 17.2448 1.07757 17.282C1.0065 17.3159 0.946742 17.3757 0.916054 17.4548L0.913631 17.4629L0.911208 17.4709H0.909593C0.878905 17.5582 0.886981 17.6486 0.92413 17.7245C0.958048 17.7956 1.01781 17.8554 1.09695 17.886L1.10503 17.8885L1.1131 17.8909V17.8925C1.20032 17.9232 1.29077 17.9151 1.36668 17.878C1.43775 17.844 1.49751 17.7843 1.5282 17.7051L1.53062 17.6971L1.53305 17.689H1.53466C1.56373 17.6018 1.55727 17.5113 1.52012 17.4354ZM2.31317 15.1257C2.27602 15.0498 2.21141 14.9884 2.12419 14.9578C2.03698 14.9271 1.94653 14.9351 1.87061 14.9723C1.79955 15.0062 1.73979 15.066 1.7091 15.1451L1.70668 15.1532L1.70425 15.1613C1.67356 15.2485 1.68164 15.3389 1.71879 15.4148C1.75271 15.4859 1.81247 15.5457 1.89161 15.5764L1.89969 15.5788L1.90776 15.5812V15.5828C1.99498 15.6135 2.08543 15.6054 2.16134 15.5683C2.23241 15.5344 2.29217 15.4746 2.32286 15.3955L2.32528 15.3874L2.3277 15.3793C2.35678 15.2937 2.35032 15.2033 2.31317 15.1257ZM3.48739 13.1326C3.45024 13.0567 3.38564 12.9953 3.29842 12.9646C3.2112 12.934 3.12075 12.942 3.04484 12.9792C2.96892 13.0163 2.90755 13.0809 2.87686 13.1682C2.84617 13.2554 2.85425 13.3458 2.8914 13.4217C2.92854 13.4977 2.99315 13.559 3.08037 13.5897C3.16759 13.6204 3.25804 13.6123 3.33395 13.5752C3.40986 13.538 3.47124 13.4734 3.50193 13.3862C3.531 13.299 3.52292 13.2085 3.48739 13.1326ZM6.38337 9.72787C6.34946 9.6568 6.28969 9.59704 6.21055 9.56635L6.20247 9.56392L6.1944 9.5615V9.55989C6.10718 9.5292 6.01673 9.53728 5.94082 9.57442C5.86975 9.60834 5.80999 9.6681 5.7793 9.74725L5.77688 9.75532L5.77446 9.7634H5.77284C5.74216 9.85062 5.75023 9.94107 5.78738 10.017C5.8213 10.088 5.88106 10.1478 5.9602 10.1785L5.96829 10.1809L5.97635 10.1833V10.185C6.06357 10.2156 6.15402 10.2076 6.22993 10.1704C6.30585 10.1333 6.36722 10.0687 6.39791 9.98145C6.42698 9.89584 6.41891 9.80378 6.38337 9.72787ZM8.01469 8.15631C8.05184 8.23223 8.0583 8.32429 8.02922 8.40989C7.99854 8.4955 7.93716 8.56172 7.86125 8.59887C7.78533 8.63602 7.69327 8.64248 7.60767 8.6134C7.52206 8.58272 7.45584 8.52134 7.41869 8.44543C7.38154 8.36951 7.37508 8.27745 7.40416 8.19185C7.43484 8.10624 7.49622 8.04002 7.57213 8.00287C7.64805 7.96572 7.74011 7.95926 7.82571 7.98834C7.91132 8.01741 7.97754 8.0804 8.01469 8.15631ZM10.095 6.83188C10.0579 6.75597 9.99326 6.69459 9.90604 6.6639C9.81882 6.63322 9.72837 6.64129 9.65246 6.67844C9.57655 6.71559 9.51517 6.7802 9.48448 6.86741C9.4538 6.95463 9.46187 7.04508 9.49902 7.121C9.53617 7.19691 9.60077 7.25828 9.68799 7.28897C9.77521 7.31966 9.86566 7.31158 9.94157 7.27444C10.0175 7.23729 10.0789 7.17268 10.1096 7.08546C10.1386 6.99986 10.1322 6.90941 10.095 6.83188ZM12.0558 5.72065C12.0187 5.64474 11.9541 5.58336 11.8668 5.55267C11.7796 5.52199 11.6892 5.53006 11.6133 5.56721C11.5422 5.60113 11.4824 5.66089 11.4517 5.74003L11.4493 5.74811L11.4469 5.75618H11.4453C11.4146 5.8434 11.4227 5.93385 11.4598 6.00976C11.4937 6.08083 11.5535 6.14059 11.6326 6.17128L11.6368 6.17258C11.6408 6.17376 11.6453 6.17494 11.6488 6.17613V6.17774C11.736 6.20843 11.8265 6.20035 11.9024 6.1632C11.9783 6.12606 12.0397 6.06145 12.0704 5.97423C12.101 5.88701 12.093 5.79656 12.0558 5.72065ZM13.994 4.90984C13.9569 4.83393 13.8923 4.77255 13.805 4.74186C13.7178 4.71117 13.6274 4.71925 13.5515 4.7564C13.4804 4.79032 13.4222 4.85008 13.3899 4.92922C13.3867 4.94053 13.3835 4.95183 13.3786 4.96152C13.3544 5.0439 13.3641 5.12789 13.398 5.19895C13.4319 5.27002 13.4917 5.32978 13.5708 5.36047L13.5709 5.36047C13.5822 5.3637 13.5935 5.36693 13.6031 5.37178C13.6855 5.396 13.7695 5.38631 13.8406 5.35239C13.9116 5.31848 13.9714 5.25871 14.0021 5.17957L14.0045 5.1715L14.0069 5.16342H14.0085C14.0376 5.0762 14.0295 4.98575 13.994 4.90984ZM16.0275 4.22986C16.0162 4.22663 16.0049 4.2234 15.9952 4.21855C15.9128 4.19432 15.8288 4.20401 15.7578 4.23793C15.6819 4.27508 15.6205 4.33969 15.5898 4.42691C15.5591 4.51413 15.5672 4.60457 15.6043 4.68049C15.6382 4.75155 15.698 4.8097 15.7772 4.842C15.7885 4.84523 15.7981 4.84846 15.8095 4.85331C15.8918 4.87754 15.9758 4.86785 16.0469 4.83393C16.1179 4.80001 16.1761 4.74025 16.2084 4.66111C16.2116 4.6498 16.2149 4.63849 16.2197 4.6288C16.2439 4.54643 16.2342 4.46244 16.2003 4.39137C16.1648 4.32031 16.105 4.26216 16.0275 4.22986ZM18.4341 4.19594C18.4002 4.12487 18.3404 4.06511 18.2613 4.03442L18.2523 4.03174L18.2451 4.02958V4.02796C18.1579 3.99727 18.0674 4.00535 17.9915 4.0425C17.9205 4.07642 17.8607 4.13618 17.83 4.21532L17.8274 4.22404L17.8252 4.23147H17.8236C17.7929 4.31869 17.8009 4.40914 17.8381 4.48505C17.872 4.55612 17.9318 4.61588 18.0109 4.64657L18.019 4.64899L18.0271 4.65141C18.1143 4.6821 18.2047 4.67403 18.2806 4.63688C18.3517 4.60296 18.4115 4.5432 18.4422 4.46406L18.4446 4.45598L18.447 4.4479H18.4486C18.4777 4.36392 18.4712 4.27185 18.4341 4.19594ZM14.3057 28.0729C14.2686 27.997 14.204 27.9356 14.1168 27.9049C14.0295 27.8742 13.9391 27.8823 13.8632 27.9194C13.7921 27.9533 13.7324 28.0131 13.7017 28.0922L13.6992 28.1003L13.6968 28.1084H13.6952C13.6645 28.1956 13.6726 28.2861 13.7097 28.362C13.7437 28.433 13.8034 28.4928 13.8826 28.5235L13.8906 28.5259L13.8987 28.5283V28.53C13.9859 28.5606 14.0764 28.5526 14.1523 28.5154C14.2282 28.4783 14.2896 28.4137 14.3203 28.3264C14.351 28.2392 14.3429 28.1488 14.3057 28.0729ZM12.1091 28.9224C12.0752 28.8514 12.0154 28.7916 11.9363 28.7609L11.9283 28.7585L11.9201 28.7561V28.7545C11.8329 28.7238 11.7425 28.7318 11.6666 28.769C11.5955 28.8029 11.5357 28.8627 11.505 28.9418L11.5026 28.9499L11.5002 28.958H11.4986C11.4679 29.0452 11.476 29.1356 11.5131 29.2116C11.5503 29.2875 11.6149 29.3488 11.7021 29.3795C11.7893 29.4102 11.8798 29.4021 11.9557 29.365C12.0316 29.3278 12.093 29.2632 12.1237 29.176C12.1543 29.0904 12.1463 28.9983 12.1091 28.9224ZM9.75422 28.916C9.7203 28.8449 9.66054 28.7851 9.58139 28.7545C9.57655 28.7528 9.57009 28.7512 9.56524 28.7496V28.748C9.47802 28.7173 9.38757 28.7254 9.31166 28.7625C9.23575 28.7997 9.17437 28.8643 9.14368 28.9515C9.113 29.0387 9.12107 29.1292 9.15822 29.2051C9.19214 29.2762 9.2519 29.3359 9.33104 29.3666C9.34235 29.3698 9.35365 29.3731 9.36335 29.3779C9.44572 29.4021 9.52971 29.3924 9.60077 29.3585C9.67184 29.3246 9.7316 29.2649 9.76229 29.1857C9.76552 29.1744 9.76875 29.1647 9.7736 29.1534C9.79782 29.071 9.78975 28.987 9.75422 28.916ZM7.53983 28.3684C7.50591 28.2974 7.44615 28.2376 7.36701 28.2069C7.3557 28.2037 7.34439 28.2005 7.3347 28.1956C7.25233 28.1714 7.16834 28.1811 7.09728 28.215C7.02621 28.2489 6.96645 28.3087 6.93576 28.3878C6.93253 28.3991 6.9293 28.4088 6.92445 28.4201C6.90023 28.5025 6.90992 28.5865 6.94383 28.6576C6.97775 28.7286 7.03751 28.7884 7.11666 28.8191C7.1215 28.8207 7.12796 28.8223 7.13281 28.8239V28.8255C7.22003 28.8562 7.31048 28.8481 7.38639 28.811C7.45746 28.7771 7.51722 28.7173 7.54791 28.6382L7.55033 28.6301L7.55275 28.622C7.58505 28.5348 7.57698 28.4443 7.53983 28.3684ZM5.49988 27.3735C5.46596 27.3024 5.4062 27.2427 5.32706 27.212L5.31898 27.2096L5.31091 27.2071V27.2055C5.22369 27.1748 5.13324 27.1829 5.05733 27.2201C4.98626 27.254 4.9265 27.3137 4.89581 27.3929C4.8942 27.3977 4.89258 27.4042 4.89096 27.409H4.88935C4.85866 27.4963 4.86674 27.5867 4.90389 27.6626C4.94104 27.7385 5.00564 27.7999 5.09286 27.8306C5.18008 27.8613 5.27053 27.8532 5.34644 27.8161C5.42235 27.7789 5.48373 27.7143 5.51442 27.6271C5.54349 27.5415 5.53541 27.451 5.49988 27.3735ZM3.56653 25.9764C3.52938 25.9005 3.46478 25.8391 3.37756 25.8084C3.29034 25.7777 3.19989 25.7858 3.12398 25.8229C3.04807 25.8601 2.98669 25.9247 2.956 26.0119C2.92531 26.0991 2.93339 26.1896 2.97054 26.2655C3.00769 26.3414 3.07229 26.4028 3.15951 26.4335C3.24673 26.4642 3.33718 26.4561 3.41309 26.4189C3.48901 26.3818 3.55038 26.3172 3.58107 26.23C3.61176 26.1444 3.60368 26.0523 3.56653 25.9764ZM2.18719 24.2159C2.2211 24.2869 2.23079 24.3725 2.20657 24.4533C2.20172 24.4646 2.19849 24.4743 2.19526 24.4856C2.16296 24.5631 2.10481 24.6245 2.03375 24.6584C1.96268 24.6923 1.87869 24.702 1.79632 24.6778C1.78501 24.6729 1.77532 24.6697 1.76401 24.6665C1.68649 24.6342 1.62511 24.576 1.59119 24.505C1.55727 24.4339 1.54758 24.3483 1.57181 24.2675C1.57665 24.2562 1.57989 24.2465 1.58312 24.2352C1.61542 24.1577 1.67356 24.0963 1.74463 24.0624C1.82054 24.0253 1.91261 24.0188 1.99821 24.0479C2.08543 24.0786 2.15004 24.1399 2.18719 24.2159Z" clip-rule="evenodd" fill-rule="evenodd"></path>
</svg>
