<svg xmlns="http://www.w3.org/2000/svg" fill="none" viewBox="0 0 32 31" height="31" width="32">
  <path fill="#FFE000" d="M7.32177 19.519C6.51491 19.6491 5.70274 19.7954 4.88532 19.9579V25.153C8.5064 24.3887 12.1606 23.9541 15.8585 23.9245C19.5703 23.8948 23.3188 24.2735 27.1127 25.1373V19.9369C26.3189 19.7507 25.5182 19.5867 24.7106 19.4447C24.6481 19.4429 24.5875 19.432 24.5302 19.4134C21.8983 18.962 19.1931 18.7437 16.4169 18.7502C13.4952 18.7571 10.4925 19.0122 7.41224 19.5045C7.38274 19.5114 7.35253 19.5163 7.32177 19.519ZM7.97565 18.1004C8.54851 18.0157 9.11889 17.9391 9.68678 17.8707C9.29225 17.3487 8.96169 16.7773 8.70707 16.1675C8.31268 15.2269 8.09454 14.1956 8.09454 13.1118C8.09454 10.9287 8.97931 8.95153 10.4103 7.52055C11.8413 6.08957 13.8185 5.2048 16.0016 5.2048C18.1847 5.2048 20.1619 6.08957 21.5929 7.52055C23.0239 8.95153 23.9086 10.9287 23.9086 13.1118C23.9086 14.1711 23.6975 15.185 23.317 16.1134C23.0718 16.7113 22.7551 17.2727 22.3782 17.7863C22.9284 17.8515 23.4755 17.9262 24.0196 18.0105L23.9209 16.6823C23.8912 16.4467 23.9924 16.2024 24.2036 16.0593L24.2053 16.061L26.0987 14.7784L24.9871 12.7558C24.8632 12.5604 24.8475 12.3073 24.9662 12.0909H24.9679L26.0987 10.0335L24.2559 8.78572C24.0378 8.66531 23.8982 8.42623 23.9174 8.16272L24.0849 5.929L21.914 5.61662C21.6714 5.59743 21.448 5.44037 21.3556 5.1978L21.9663 4.96396L21.3556 5.19605L20.5546 3.0967L18.4116 3.73541C18.1934 3.81394 17.9387 3.7738 17.7537 3.60627L18.1899 3.11939L17.7537 3.60452L16.0016 2.03044L14.2774 3.58009C14.1134 3.74588 13.8656 3.81743 13.6265 3.74588L11.4486 3.0967L10.6598 5.16639C10.5848 5.395 10.3859 5.573 10.1311 5.60964L10.1308 5.60793L7.92178 5.92551L8.08582 8.12608C8.11549 8.36166 8.01427 8.60598 7.80312 8.74908L7.80137 8.74733L5.90794 10.03L7.01957 12.0525C7.14347 12.248 7.15917 12.501 7.04051 12.7174H7.03876L5.90619 14.7749L7.74553 16.0209C7.96366 16.1413 8.10327 16.3804 8.08408 16.6439L7.97565 18.1004ZM16.4187 17.4484C14.5898 17.4524 12.7321 17.5512 10.8465 17.7421C10.3325 17.1703 9.91207 16.5105 9.60929 15.7888C9.26376 14.9651 9.07354 14.0612 9.07354 13.1118C9.07354 11.1992 9.84837 9.46808 11.1031 8.21335C12.3561 6.96037 14.089 6.18555 16.0016 6.18555C17.9142 6.18555 19.6454 6.96037 20.9001 8.21335C22.1531 9.46634 22.9296 11.1992 22.9296 13.1118C22.9296 14.0455 22.7464 14.9337 22.4148 15.7417C22.125 16.4486 21.7211 17.0966 21.2256 17.6641C19.6475 17.5161 18.045 17.4448 16.4187 17.4484ZM25.3444 18.2357C26.2122 18.3967 27.0722 18.5826 27.9241 18.7939L27.7688 19.4273L27.9259 18.7921C28.2278 18.8672 28.4285 19.1411 28.4215 19.4396V22.1719C28.8141 22.2369 29.2059 22.3054 29.5977 22.3783C30.0776 22.4673 30.561 22.5615 31.0478 22.661C31.1072 22.668 31.1683 22.6837 31.2258 22.7081C31.5592 22.8512 31.7127 23.2351 31.5714 23.5667H31.5696L30.4894 26.1006L31.5766 29.6082C31.6237 29.7269 31.6359 29.8595 31.6063 29.9922C31.526 30.3447 31.177 30.5646 30.8245 30.486L30.9676 29.8491L30.8245 30.4843C29.9781 30.2941 29.1405 30.1248 28.3098 29.9747C27.4966 29.8264 26.6711 29.6973 25.8335 29.5838C25.4897 29.5646 25.2175 29.2802 25.2175 28.9312V26.0749C22.0687 25.4708 18.9537 25.2046 15.869 25.2298C12.8153 25.2546 9.78667 25.5631 6.77874 26.1117V28.9329C6.77874 29.2802 6.5065 29.5664 6.16272 29.5856C5.32681 29.699 4.50138 29.8299 3.68642 29.9765C2.85575 30.1248 2.01636 30.2958 1.17173 30.486L1.02863 29.8508L1.17173 30.4878C0.819223 30.568 0.468458 30.3464 0.389929 29.9939C0.360262 29.8613 0.372478 29.7286 0.419595 29.61L1.50679 26.1023L0.426576 23.5685H0.424831C0.283478 23.2351 0.438791 22.8512 0.77036 22.7099C0.827949 22.6854 0.889027 22.6697 0.94836 22.6628C1.43524 22.5633 1.91864 22.469 2.39854 22.38C2.79091 22.3085 3.18327 22.239 3.5765 22.1735V19.4291C3.57824 19.0923 3.82954 18.8166 4.15413 18.7782C4.9916 18.6056 5.82405 18.4495 6.65143 18.31L6.75606 16.9231L4.68288 15.5201L4.68113 15.5218C4.38796 15.3229 4.30768 14.9285 4.49441 14.6318L5.71947 12.4033L4.47521 10.1399H4.47347C4.3007 9.82406 4.41588 9.42618 4.73174 9.25167L6.75431 7.88176L6.56933 5.41419C6.54315 5.05645 6.81015 4.74407 7.16615 4.71441L9.56217 4.37062L10.4417 2.0636C10.5691 1.73203 10.9391 1.56276 11.2724 1.68142L13.6457 2.39168L15.5618 0.669267L15.9981 1.1544L15.5618 0.667522C15.8218 0.433678 16.218 0.445894 16.4623 0.691953L18.3505 2.38993L20.7587 1.67095V1.66921C21.099 1.56799 21.4568 1.75646 21.5667 2.09152L22.4358 4.37062L24.8682 4.71961L24.8684 4.7179C25.221 4.76851 25.4688 5.09135 25.4251 5.44386L25.2436 7.88002L27.3168 9.28308L27.3186 9.28133C27.6117 9.48027 27.692 9.87467 27.5053 10.1713L26.2785 12.3998L27.5227 14.6632H27.5245C27.6972 14.9791 27.5821 15.377 27.2662 15.5515L25.2436 16.9214L25.3444 18.2357ZM26.5245 26.3448V28.3622C27.1912 28.4582 27.863 28.5682 28.5401 28.6903C29.0357 28.7793 29.5261 28.8736 30.0147 28.9748L29.1719 26.2559H29.1701C29.1178 26.0866 29.137 25.9121 29.212 25.7655L30.0549 23.7901C29.9682 23.7738 29.8818 23.7573 29.7955 23.7408L29.7949 23.7406C29.6503 23.713 29.5062 23.6854 29.3621 23.6592C29.0465 23.601 28.7332 23.5457 28.4215 23.4928V25.9645C28.4215 26.3257 28.1283 26.6189 27.7671 26.6189C27.6973 26.6189 27.6309 26.6084 27.5664 26.5875C27.2187 26.5024 26.8714 26.4215 26.5245 26.3448ZM4.37401 26.6015C4.7396 26.5193 5.10548 26.4405 5.47166 26.3653V28.364C4.80503 28.46 4.13317 28.5699 3.45607 28.6921C2.96046 28.7811 2.47009 28.877 1.98146 28.9765L2.82434 26.2577H2.82609C2.87844 26.0884 2.85924 25.9139 2.7842 25.7673L1.94132 23.7918C2.17167 23.7465 2.40377 23.7028 2.63413 23.6609C2.95026 23.6027 3.26423 23.5472 3.5765 23.4942V25.9575C3.57475 26.0081 3.57999 26.0605 3.59221 26.1111C3.67248 26.4618 4.0215 26.6835 4.37401 26.6049L4.23091 25.9662L4.37401 26.6015ZM13.5235 14.0769C13.5235 14.4713 13.3194 14.8203 12.9093 15.1239C12.5009 15.4293 12.0332 15.5812 11.5097 15.5812C11.0734 15.5812 10.7314 15.4695 10.4836 15.2478C10.2375 15.0262 10.1154 14.7191 10.1154 14.3229C10.1154 13.953 10.1607 13.6301 10.2532 13.3527C10.3579 13.0403 10.5621 12.6581 10.8675 12.2061L11.1048 12.3667C10.9059 12.6651 10.7645 12.9251 10.679 13.145C10.5953 13.3649 10.5534 13.583 10.5534 13.8012C10.5534 14.0333 10.6389 14.213 10.8117 14.3404C10.9844 14.4678 11.227 14.5306 11.5428 14.5306C11.9931 14.5306 12.3578 14.4433 12.6405 14.2706C12.9215 14.0961 13.0628 13.8692 13.0628 13.5865V13.4713V13.4068C13.0628 13.3055 13.0541 13.1973 13.0384 13.0769C13.0209 12.9565 12.9773 12.707 12.9093 12.3318C12.7994 11.7269 12.6896 11.1203 12.5798 10.5136L12.5794 10.5116L12.3892 10.3738C12.3892 10.1242 12.5061 9.7403 12.7417 9.22375L12.918 9.30926C12.9075 9.34417 12.904 9.38605 12.904 9.43317C12.904 9.53438 12.9564 9.61815 13.0611 9.68272C13.1716 9.74358 13.2778 9.80355 13.3801 9.86139L13.5026 9.93052C13.4729 10.1504 13.4468 10.3092 13.4171 10.4034C13.3892 10.4977 13.3316 10.639 13.2408 10.8292L13.1257 10.7839C13.1257 10.8223 13.1623 11.0404 13.2356 11.4365C13.3089 11.8344 13.37 12.1782 13.4206 12.4662C13.4921 12.8797 13.5288 13.1328 13.5288 13.2218V14.0769H13.5235ZM16.2703 12.2532C16.2703 12.3283 16.2581 12.4016 16.2354 12.4644C16.2127 12.529 16.1691 12.6145 16.1098 12.7192C15.9579 12.3789 15.7922 12.1014 15.6107 11.8833C15.4274 11.6686 15.2128 11.4941 14.9667 11.3632C14.9667 11.4732 14.9528 11.5535 14.9266 11.6023C14.9022 11.6529 14.8655 11.6774 14.8201 11.6774C14.7434 11.6774 14.602 11.6058 14.3978 11.4592C14.1779 11.3039 14.0191 11.1538 13.9232 11.0125C13.8534 10.9113 13.801 10.7682 13.7678 10.5797C13.7329 10.3895 13.7155 10.2359 13.7155 10.1155C13.7155 9.93052 13.7644 9.83978 13.8621 9.83978C14.0122 9.83978 14.2373 9.92877 14.5357 10.1068C14.8358 10.283 15.1168 10.4977 15.3803 10.7455C15.9719 11.2882 16.2703 11.7925 16.2703 12.2532ZM17.7729 14.1746V13.131H20.2282C19.9193 12.8117 19.6331 12.5813 19.3696 12.44C19.1375 12.3161 18.9089 12.2532 18.6855 12.2532C18.6192 12.2532 18.5581 12.255 18.504 12.262C18.45 12.269 18.3697 12.2829 18.265 12.3056C18.4046 11.9845 18.5616 11.7454 18.7344 11.5919C18.9072 11.4383 19.1044 11.3615 19.3242 11.3615C19.4918 11.3615 19.6541 11.4016 19.8111 11.4854C19.9664 11.5657 20.1427 11.6983 20.3364 11.8798C20.49 12.0229 20.7064 12.2463 20.9891 12.5499C21.1793 12.7646 21.3259 12.9042 21.4271 12.9687C21.5283 13.0333 21.6801 13.0857 21.8826 13.1293V14.1746H17.7729ZM17.5024 14.1746H17.7729V14.1763H17.4936C17.3331 14.1763 17.1813 14.0455 17.0382 13.782C16.8846 13.4992 16.8078 13.1782 16.8078 12.8152C16.5827 13.487 16.2686 13.9495 15.8637 14.199C15.4728 14.4416 14.8742 14.562 14.0698 14.562L13.6248 14.555V14.309C13.8077 14.2445 13.9888 14.1818 14.17 14.1191L14.17 14.1191L14.17 14.1191L14.17 14.1191L14.17 14.1191L14.1701 14.1191L14.171 14.1188C14.3507 14.0559 14.4851 14.0018 14.5758 13.9565C15.0976 13.693 15.4501 13.501 15.6334 13.3806C15.9597 13.1677 16.197 12.9461 16.3419 12.7122C16.5129 12.4382 16.6001 12.1049 16.6001 11.7088C16.6001 11.4697 16.5809 11.2376 16.5443 11.0142C16.5077 10.7893 16.4693 10.5662 16.431 10.343L16.4309 10.3424C16.4309 10.1679 16.5792 9.81534 16.8759 9.28309C17.0085 9.72111 17.094 10.2935 17.1289 10.9985C17.1499 11.4976 17.1725 11.9967 17.1952 12.4941C17.2354 12.9199 17.3348 13.131 17.4936 13.131H17.5024V14.1746ZM8.11024 20.6489L7.29004 20.7641L7.66349 23.4184L8.48369 23.3032L8.33361 22.23L9.23059 22.1043L9.38067 23.1776L10.2044 23.0624L9.8309 20.4081L9.00722 20.5233L9.1381 21.4517L8.24112 21.5773L8.11024 20.6489ZM12.3456 22.4237L13.2879 22.3574L13.4467 22.7901L14.3123 22.7291L13.1204 20.1254L12.2199 20.1882L11.4015 22.9332L12.2461 22.8739L12.3456 22.4237ZM12.7103 20.8496L13.0733 21.7902L12.4835 21.8321L12.7103 20.8496ZM16.2965 20.0468L15.4676 20.0608L15.5147 22.7413L17.6367 22.7046L17.6245 22.045L16.3314 22.0677L16.2965 20.0468ZM19.682 22.3905L20.6226 22.4725L20.7168 22.9263L21.5807 23.0013L20.8093 20.2423L19.9089 20.1638L18.6716 22.7465L19.5145 22.8198L19.682 22.3905ZM20.2893 20.8932L20.5004 21.8792L19.9123 21.8268L20.2893 20.8932ZM24.0622 20.5966L23.2455 20.4517L22.7813 23.0938L24.8702 23.462L24.9853 22.8111L23.7114 22.586L24.0622 20.5966Z" clip-rule="evenodd" fill-rule="evenodd"></path>
</svg>
