<svg xmlns="http://www.w3.org/2000/svg" fill="none" height="28" width="28"><path fill="#FFE000" d="M23.625 14.665v-1.339l1.68-1.47a1.75 1.75 0 0 0 .333-2.231l-2.065-3.5a1.75 1.75 0 0 0-1.514-.875 1.75 1.75 0 0 0-.56.087l-2.126.718a9.926 9.926 0 0 0-1.147-.656l-.446-2.205a1.75 1.75 0 0 0-1.75-1.409h-4.095a1.75 1.75 0 0 0-1.75 1.409L9.74 5.399c-.4.193-.785.412-1.155.656L6.5 5.302a1.75 1.75 0 0 0-.56-.052 1.75 1.75 0 0 0-1.513.875l-2.065 3.5a1.75 1.75 0 0 0 .358 2.196l1.654 1.514v1.339l-1.654 1.47a1.75 1.75 0 0 0-.358 2.231l2.065 3.5a1.75 1.75 0 0 0 1.513.875c.19.001.38-.028.56-.087l2.127-.718c.367.244.75.463 1.146.656l.446 2.205a1.75 1.75 0 0 0 1.75 1.409h4.13a1.75 1.75 0 0 0 1.75-1.409l.446-2.205c.4-.193.785-.412 1.155-.656l2.118.718c.18.059.37.088.56.087a1.75 1.75 0 0 0 1.514-.875l1.995-3.5a1.75 1.75 0 0 0-.36-2.196l-1.653-1.514zM22.06 21l-3.001-1.015a7.75 7.75 0 0 1-2.372 1.374l-.62 3.141h-4.13l-.622-3.106A8.188 8.188 0 0 1 8.95 20.02l-3.01.98-2.065-3.5 2.38-2.1a7.788 7.788 0 0 1 0-2.739L3.876 10.5 5.941 7l3.002 1.015a7.752 7.752 0 0 1 2.37-1.374l.622-3.141h4.13l.621 3.106A8.19 8.19 0 0 1 19.05 7.98l3.01-.98 2.065 3.5-2.38 2.1a7.791 7.791 0 0 1 0 2.739l2.38 2.161-2.065 3.5z"></path><path fill="#FFE000" d="M14 19.25A5.25 5.25 0 1 1 19.25 14 5.2 5.2 0 0 1 14 19.25zm0-8.75a3.42 3.42 0 0 0-3.5 3.5 3.42 3.42 0 0 0 3.5 3.5 3.42 3.42 0 0 0 3.5-3.5 3.42 3.42 0 0 0-3.5-3.5z"></path></svg>