<svg width="15" height="16" fill="none" xmlns="http://www.w3.org/2000/svg"><path d="M13.213 14.401H1.025V5.026H4.79l.952-.908-.03-.03H1.026a.894.894 0 0 0-.666.28.913.913 0 0 0-.271.658v9.375a.924.924 0 0 0 .937.938h12.188c.254 0 .474-.09.66-.271a.894.894 0 0 0 .277-.667V7.077l-.937.894v6.43zm-9.258-3.75h.952a7.79 7.79 0 0 1 1.428-3.34A7.936 7.936 0 0 1 9.12 4.954a7.739 7.739 0 0 1 3.596-.864c.088 0 .249.005.483.015l-1.714 1.713a.453.453 0 0 0-.117.205.51.51 0 0 0 0 .242c.01.034.025.071.044.11.02.04.044.073.073.103a.309.309 0 0 0 .147.102.598.598 0 0 0 .307.015.43.43 0 0 0 .206-.117l2.768-2.842L12.144.793a.447.447 0 0 0-.33-.132.447.447 0 0 0-.33.132.49.49 0 0 0-.124.212.407.407 0 0 0 0 .242.495.495 0 0 0 .124.205l1.7 1.7h-.44c-1.455 0-2.815.329-4.08.988A8.866 8.866 0 0 0 5.53 6.843a8.805 8.805 0 0 0-1.575 3.808z" fill="white"/></svg>