<svg xmlns="http://www.w3.org/2000/svg" fill="none" viewBox="0 0 22 31" height="31" width="22">
  <path fill="#FFE000" d="M21.673 6.64124C21.673 6.59575 21.6668 6.55027 21.6558 6.50792C21.5915 5.92757 21.4566 5.45701 21.0597 5.0539C20.6786 4.66805 20.0888 4.39826 19.1148 4.22259L19.1007 4.21945V4.21788C19.0944 4.21632 19.0881 4.21632 19.0803 4.21475L3.61786 0.519325V0.516188C3.30258 0.4409 2.98574 0.635395 2.91046 0.950667C2.89791 1.00086 2.8932 1.05105 2.89477 1.09968V7.22943H1.71995C1.39527 7.22943 1.13176 7.49294 1.13176 7.81763V25.7975V29.3235H0.912168C0.587485 29.3235 0.323975 29.587 0.323975 29.9117C0.323975 30.2364 0.587485 30.4999 0.912168 30.4999H1.71995H20.0904C20.1861 30.5015 20.2833 30.4795 20.3743 30.4309V30.4293C20.6974 30.2584 20.9562 30.0262 21.1554 29.7549C21.5177 29.2608 21.6762 28.6381 21.673 28.0107C21.673 27.9636 21.6699 27.9181 21.6683 27.8711C21.6715 27.846 21.6762 27.8225 21.6762 27.7958V6.64124H21.673ZM19.6418 5.55426C19.9147 5.6468 20.1029 5.75189 20.2237 5.8758C20.3994 6.05305 20.4606 6.32597 20.4966 6.68359V24.7529L19.6402 24.5254V5.55426H19.6418ZM4.06959 1.8306L18.8074 5.35192C18.834 5.36133 18.8638 5.36917 18.8921 5.37388L18.9956 4.7951L18.8921 5.37074C18.9485 5.38015 18.9987 5.39113 19.052 5.40211V24.3686L4.06802 20.394V1.8306H4.06959ZM2.30658 8.40425H2.89477V20.8441C2.89477 21.1312 3.10025 21.3696 3.3716 21.4214L17.6482 25.2093H2.30658V8.40425ZM20.208 29.0616C20.1343 29.162 20.0449 29.2498 19.9398 29.3235H3.2618H2.30658V26.3857H19.8112H19.8865C20.0057 26.5033 20.1124 26.6524 20.2018 26.8218C20.3884 27.1762 20.4966 27.5997 20.4998 28.0154C20.5014 28.406 20.4119 28.7808 20.208 29.0616Z"></path>
  <path fill="#FFE000" d="M16.6304 10.7115L15.7881 10.4841C15.8508 8.39015 15.0681 7.95567 13.9137 7.31414C13.2926 6.96907 12.5491 6.55498 11.7836 5.71583C11.6864 5.60917 11.528 5.59035 11.4103 5.66407C10.6825 6.06718 9.96102 6.07972 9.35715 6.08914C8.14782 6.10796 7.31964 6.12207 7.34317 8.20663L6.64205 8.01684C6.48519 7.97449 6.32364 8.06703 6.28129 8.22388C6.27345 8.25055 6.27031 8.27878 6.27188 8.30545V18.5118C6.27188 18.6529 6.37226 18.7706 6.50559 18.7988L16.4923 21.492C16.6492 21.5343 16.8107 21.4418 16.8531 21.2849C16.8609 21.2582 16.8641 21.23 16.8641 21.2033V10.9986C16.8641 10.8574 16.7637 10.7398 16.6304 10.7115ZM16.2759 20.8269L6.86164 18.2875V8.68503L7.55963 8.87325C7.59414 8.88423 7.63021 8.88893 7.66786 8.88737C7.82941 8.87796 7.95333 8.73993 7.94548 8.57837C7.84196 6.69929 8.45368 6.68988 9.36969 6.67576C9.99083 6.66635 10.7249 6.6538 11.5076 6.27736C12.2777 7.07573 13.0118 7.48354 13.6313 7.82862C14.6321 8.38387 15.2987 8.75561 15.1952 10.6739C15.1779 10.8166 15.2673 10.9547 15.41 10.9923L15.4869 10.7084L15.4116 10.9923L16.2774 11.226V20.8269H16.2759Z"></path>
  <path fill="#FFE000" d="M14.5017 16.0414L13.8665 15.8516L13.6359 15.3606C13.6202 15.3198 13.5857 15.2869 13.5418 15.2728L13.4994 15.4139L13.5402 15.2728L13.5104 15.2634C14.1864 14.3975 13.4602 13.7152 12.825 13.1192C12.5081 12.8212 12.2164 12.5483 12.196 12.3271V11.9789C12.2556 11.9585 12.3058 11.9193 12.3371 11.8613C12.3764 11.7907 12.3528 11.7013 12.2823 11.6621C12.2179 11.626 12.1364 11.6432 12.0925 11.7013C12.0972 11.7028 12.0987 11.7028 12.0987 11.7028V11.7044C12.0972 11.7028 12.094 11.7044 12.0925 11.7028V11.7013C12.0736 11.6966 12.0564 11.6824 12.0423 11.6636C12.0313 11.6495 12.025 11.6354 12.0219 11.6213C12.0156 11.6244 12.0093 11.626 12.0015 11.6275V11.626C12.0046 11.6228 12.014 11.6166 12.0172 11.615H12.0187C12.0172 11.6181 12.0203 11.6119 12.0219 11.6119C12.0219 11.615 12.0219 11.6166 12.0219 11.6197C12.0878 11.5915 12.1254 11.5193 12.1066 11.4472C12.0862 11.3687 12.0062 11.3217 11.9278 11.3421C11.8666 11.3578 11.8148 11.3938 11.7803 11.444C11.7474 11.4911 11.7286 11.5476 11.7286 11.6103C11.7286 11.6919 11.7599 11.7734 11.8117 11.8393C11.8368 11.8722 11.8682 11.902 11.9027 11.9256V12.3208C11.8854 12.4887 11.6188 12.5812 11.327 12.6816C11.1357 12.7475 10.9365 12.8165 10.7624 12.9216C10.3545 13.1678 10.1255 13.5662 10.5585 14.407C10.5255 14.4164 10.4957 14.4368 10.4753 14.4666L10.5977 14.5466L10.4753 14.4666L10.2714 14.7771L9.77263 14.6281V13.5678C9.84792 13.5866 9.92634 13.5443 9.94987 13.469C9.95144 13.4658 9.95144 13.4627 9.95301 13.4596L10.0565 13.1114C10.0801 13.0329 10.0346 12.9514 9.95771 12.9294C9.95457 12.9278 9.95144 12.9278 9.9483 12.9263L9.71616 12.8573V12.313C9.78517 12.3208 9.85262 12.2801 9.87301 12.211C9.87458 12.2063 9.87615 12.2001 9.87772 12.1954L9.96555 11.8424C9.98438 11.764 9.93732 11.684 9.8589 11.6636L9.85576 11.6621L9.76635 11.6354V11.3813C9.76635 11.2668 9.72714 11.1523 9.66597 11.0535C9.70518 10.9923 9.73655 10.9264 9.75851 10.8511C9.78204 10.768 9.79459 10.6786 9.79459 10.5813C9.79459 10.4135 9.75694 10.2457 9.69106 10.092C9.6895 10.0888 9.6895 10.0873 9.68793 10.0841C9.61891 9.92728 9.5201 9.78454 9.40246 9.67632C9.36481 9.6371 9.30678 9.62142 9.25188 9.63867C9.11071 9.68259 8.99307 9.77984 8.91151 9.9163C8.83779 10.0402 8.79544 10.1955 8.79544 10.3727C8.79544 10.4668 8.80799 10.561 8.82995 10.6551C8.85191 10.7445 8.88328 10.8292 8.92092 10.9092C8.88955 10.9468 8.86289 10.9892 8.84563 11.0394C8.84407 11.0441 8.8425 11.0472 8.84093 11.0519C8.82838 11.0943 8.82211 11.1413 8.82211 11.1899V11.3562L8.80642 11.3515C8.728 11.328 8.64643 11.3734 8.62291 11.4503C8.61506 11.477 8.61506 11.5036 8.62134 11.5287L8.71074 11.9397L8.85348 11.9083L8.70917 11.9397C8.72172 11.9977 8.76721 12.0401 8.82054 12.0526L8.86759 12.0667V12.6063L8.70917 12.5592C8.63075 12.5357 8.54919 12.5812 8.52566 12.6581C8.51781 12.6879 8.51781 12.7161 8.52566 12.7443L8.63075 13.1584L8.77348 13.1223L8.63075 13.1584C8.64486 13.2149 8.68878 13.2541 8.74211 13.2666L8.80956 13.287V15.9065C8.80799 15.9708 8.85034 16.0304 8.91465 16.0508L8.957 15.9096L8.91622 16.0508L9.57343 16.2468C9.57656 16.2484 9.5797 16.2484 9.58284 16.2484C9.58597 16.25 9.58911 16.2515 9.59382 16.2531L14.4311 17.6914C14.5095 17.715 14.5911 17.6695 14.6131 17.5926C14.6178 17.5785 14.6193 17.5628 14.6193 17.5487V16.1857C14.6162 16.1151 14.5676 16.0555 14.5017 16.0414ZM10.9082 13.1772C11.0541 13.0894 11.2408 13.0251 11.418 12.9639C11.6533 12.8824 11.8744 12.8055 12.0219 12.6769C12.1552 12.8933 12.3811 13.1067 12.6211 13.3325C13.1841 13.8611 13.8272 14.4666 13.2014 15.1724L10.938 14.4995C10.9365 14.4979 10.9365 14.4948 10.9365 14.4932C10.4549 13.6949 10.6008 13.3623 10.9082 13.1772ZM10.6588 14.7238L13.3928 15.5363L13.4853 15.7324L10.5663 14.865L10.6588 14.7238ZM9.1562 10.0716C9.18287 10.0261 9.21737 9.98845 9.25659 9.96179C9.31933 10.0339 9.37266 10.1171 9.41187 10.208L9.54676 10.15L9.41187 10.2096L9.41501 10.2159C9.4652 10.3335 9.495 10.4606 9.495 10.5876C9.495 10.6566 9.48559 10.7209 9.4699 10.7774C9.46363 10.7962 9.45735 10.8151 9.45108 10.8323L9.33031 10.7962C9.32717 10.7947 9.32403 10.7947 9.32089 10.7931L9.16091 10.746C9.13895 10.6959 9.12012 10.6441 9.10758 10.5908C9.09032 10.5217 9.08091 10.4496 9.08091 10.3774C9.08248 10.2551 9.10914 10.15 9.1562 10.0716ZM9.11699 11.1397L9.11856 11.1319C9.12483 11.1115 9.13581 11.0974 9.14993 11.0864C9.16404 11.0754 9.1813 11.0707 9.20326 11.0707C9.21737 11.0707 9.23149 11.0723 9.24717 11.077C9.25031 11.077 9.25188 11.0786 9.25502 11.0786C9.30991 11.0974 9.36011 11.1397 9.39932 11.1931C9.4401 11.2511 9.46677 11.3201 9.46677 11.386V11.5523L9.11071 11.4456V11.1915C9.11071 11.1727 9.11228 11.1554 9.11699 11.1397L8.97582 11.0974L9.11699 11.1397ZM9.56088 11.8973C9.57656 11.9036 9.59538 11.9067 9.61264 11.9067C9.61578 11.9067 9.61734 11.9052 9.62048 11.9052L9.64087 11.9115L9.62205 11.9899L9.59695 11.982L9.21737 11.8691L9.05425 11.8205H9.05268L8.97582 11.7969L8.95857 11.717L9.56088 11.8973ZM9.41814 12.2346V12.7741L9.15934 12.6973V12.1577L9.41814 12.2346ZM9.47618 14.7473V15.9143L9.1013 15.8029V13.3764L9.24561 13.4188L9.47618 13.4878V14.7473ZM9.70675 13.251L9.66597 13.2384C9.66597 13.2384 9.6644 13.2384 9.6644 13.2368L9.28325 13.1239L9.00719 13.0423L8.89426 13.0094L8.87073 12.9184L8.98053 12.9514L9.52323 13.1129H9.5248L9.72871 13.1741L9.70675 13.251ZM14.3229 17.3542L9.76949 16.0006V14.9403L11.9309 15.5833C11.9042 15.5912 11.8807 15.6022 11.8588 15.6179C11.8211 15.6461 11.7913 15.6837 11.7741 15.7308C11.7725 15.7355 11.7693 15.7402 11.7678 15.7465C11.7599 15.7716 11.7568 15.7982 11.7568 15.8249C11.7568 15.897 11.785 15.9692 11.8289 16.0272C11.8729 16.0837 11.934 16.1292 12.0046 16.1496C12.0313 16.1574 12.0595 16.1621 12.0862 16.1621C12.1411 16.1621 12.1913 16.1449 12.2336 16.1151C12.2713 16.0868 12.3011 16.0492 12.3183 16.0021C12.3199 15.9974 12.3215 15.9927 12.3246 15.9865C12.3324 15.9614 12.3356 15.9363 12.3356 15.908C12.3356 15.8359 12.3073 15.7637 12.2634 15.7057C12.254 15.6931 12.2446 15.6822 12.2336 15.6712L14.3245 16.2923V17.3542H14.3229Z"></path>
  <path fill="#FFE000" d="M11.815 16.3315C11.8229 16.3064 11.826 16.2813 11.826 16.2531C11.826 16.1809 11.7978 16.1088 11.7538 16.0508C11.7099 15.9943 11.6488 15.9488 11.5797 15.9284C11.5531 15.9206 11.5248 15.9159 11.4982 15.9159C11.4433 15.9159 11.3931 15.9331 11.3507 15.9629C11.3131 15.9912 11.2833 16.0288 11.266 16.0759C11.2645 16.0806 11.2629 16.0853 11.2598 16.0915C11.2519 16.1166 11.2488 16.1433 11.2488 16.17C11.2488 16.2421 11.277 16.3143 11.3209 16.3723C11.3648 16.4288 11.426 16.4743 11.4966 16.4946C11.5233 16.5025 11.5515 16.5072 11.5782 16.5072C11.6331 16.5072 11.6833 16.4899 11.7256 16.4601C11.7633 16.4319 11.7931 16.3943 11.8103 16.3472C11.8119 16.3425 11.8134 16.3378 11.815 16.3315Z"></path>
  <path fill="#FFE000" d="M12.2824 16.3786C12.2808 16.3833 12.2793 16.388 12.2761 16.3943C12.2683 16.4194 12.2651 16.446 12.2651 16.4727C12.2651 16.5448 12.2934 16.617 12.3373 16.675C12.3812 16.7315 12.4424 16.777 12.513 16.7974C12.5412 16.8052 12.5694 16.8099 12.5945 16.8099C12.6494 16.8099 12.6996 16.7927 12.742 16.7629C12.7796 16.7346 12.8094 16.697 12.8267 16.6499C12.8282 16.6452 12.8298 16.6405 12.8329 16.6343C12.8408 16.6092 12.8439 16.5841 12.8439 16.5558C12.8439 16.4837 12.8157 16.4115 12.7718 16.3535C12.7278 16.297 12.6667 16.2515 12.5961 16.2311C12.5694 16.2233 12.5412 16.2186 12.5145 16.2186C12.4596 16.2186 12.4094 16.2359 12.3671 16.2657C12.3294 16.2939 12.2996 16.3315 12.2824 16.3786Z"></path>
</svg>
