<svg width="305" height="53" viewBox="0 0 305 53" fill="none" xmlns="http://www.w3.org/2000/svg">
<path d="M14.8033 31.5418C14.9361 31.658 15.0836 31.7741 15.2164 31.8758C16.8691 33.241 17.0757 33.1974 17.9906 31.3094C18.8022 29.6247 18.8612 29.6102 20.3515 30.6413C22.5502 32.1663 22.5354 32.1518 24.1143 29.9587C24.8079 29.0002 24.7784 28.274 23.7307 27.6495C23.4208 27.4607 23.1257 27.2574 22.8453 27.0395C20.9565 25.6163 20.9565 25.6163 19.717 27.6205C18.8759 28.9857 18.8907 28.9566 17.5331 27.9255C16.8691 27.4171 16.3379 26.72 15.5853 26.4296C15.2164 26.415 14.9951 26.5457 14.8033 26.7346C12.9588 28.4628 12.9735 29.9297 14.8033 31.5418Z" fill="white"/>
<path d="M8.76801 30.6413C9.04837 30.2202 9.32874 30.0604 9.87471 30.2202C11.4389 30.6704 12.0586 30.1475 12.0143 28.245C11.6012 26.691 10.7601 25.1079 9.19593 24.0042C8.54667 23.5394 7.74984 23.6992 7.48423 24.4108C6.89399 25.9358 6.61363 27.606 7.38094 29.1164C7.7646 29.8716 7.63179 30.2347 7.11533 30.6849C5.78729 31.8177 4.38546 32.8489 2.92462 33.8219C2.09828 34.3593 1.34572 34.9838 0.563649 35.5938C0.357064 35.7535 0.120967 35.9859 0.312796 36.2619C0.51938 36.5523 0.799745 36.378 1.03584 36.2473C1.89169 35.7681 2.74754 35.2743 3.60339 34.795C5.5807 33.7058 7.49899 32.5729 8.76801 30.6413Z" fill="white"/>
<path d="M0.976849 24.2656C1.67038 23.7863 2.34916 23.2489 3.07221 22.8132C5.9939 21.0414 8.81231 19.1679 10.7011 16.2342C10.9962 15.7694 11.3208 15.6387 11.8078 15.9292C12.1177 16.118 12.4718 16.3068 12.7817 15.9437C13.0768 15.5806 13.2834 14.9997 13.003 14.7092C11.9701 13.6781 12.2357 12.3129 11.9258 11.1074C11.7488 10.4684 11.4536 9.84391 10.7011 9.90201C9.53535 9.98915 9.1517 10.9767 8.73853 11.8627C8.38438 12.6179 7.9417 13.3586 8.73853 14.1719C10.0518 15.5225 10.0075 15.5661 8.66475 16.9168C6.74646 18.8629 4.44452 20.3588 2.30489 22.0435C1.53758 22.6535 0.844044 23.3506 0.135754 24.0332C0.0324619 24.1349 -0.0118062 24.3527 0.00294986 24.5125C0.00294986 24.5706 0.194778 24.6432 0.327583 24.7158C0.534167 24.5706 0.755508 24.4253 0.976849 24.2656Z" fill="white"/>
<path d="M12.3833 22.2323C12.6636 22.5373 12.9588 22.2468 13.2096 22.0726C13.8736 21.6223 14.5819 21.2012 15.1869 20.6783C17.2675 18.8774 19.8941 17.6575 21.1631 15.0287C21.3845 14.5785 21.7386 14.5204 22.1813 14.7238C23.1109 15.1304 23.2437 14.4769 23.4208 13.7943C23.3913 13.649 23.3913 13.4021 23.288 13.3295C22.0928 12.6034 22.2403 11.3979 22.1075 10.2651C22.0485 9.84392 21.8271 9.42274 21.591 9.04513C21.0598 8.17373 20.4106 8.18826 19.7318 8.8999C19.2006 9.46631 19.0382 10.236 18.7579 10.9332C18.1529 12.4145 18.2857 12.9229 19.658 13.6345C20.4548 14.0412 20.3663 14.4042 19.8941 14.9416C18.9645 16.0309 17.8873 16.9604 16.7806 17.8753C15.3788 19.0227 14.0212 20.1845 12.6636 21.3464C12.4128 21.5643 12.0291 21.8547 12.3833 22.2323Z" fill="white"/>
<path d="M17.1347 3.38104C17.4298 3.51175 17.6807 3.38104 17.7545 3.06152C17.961 2.20465 17.7692 1.46395 16.9281 1.01373C16.087 0.563508 15.6001 0.999208 15.2164 1.72538C14.759 2.58225 14.9508 3.54079 14.6704 4.65909C13.7408 3.96197 13.1948 3.09057 12.2947 2.65487C11.8225 2.4225 11.3356 1.9868 10.8044 2.3644C10.2879 2.74201 10.2584 3.36651 10.3322 3.94745C10.406 4.57195 10.583 5.35621 11.3208 5.34169C13.0768 5.34169 13.9769 6.40189 14.7885 7.67994C14.9508 7.94136 15.1722 8.23183 15.5263 8.15921C15.9837 8.05755 15.9542 7.63637 15.9542 7.28781C15.9395 6.35832 15.8362 5.42883 15.8804 4.49933C15.9395 3.83126 15.7919 2.77106 17.1347 3.38104Z" fill="white"/>
<path d="M22.2108 50.3205C21.3697 50.5238 21.4583 49.9574 21.6353 49.5071C21.9747 48.6503 22.4174 47.837 22.8011 46.9946C22.8896 46.8058 22.9781 46.5444 22.7273 46.3992C22.4912 46.2539 22.2846 46.4427 22.1961 46.6461C21.5763 47.9096 20.7057 49.0714 20.4548 50.4802C20.322 51.2499 20.4106 52.1213 21.3255 52.2956C22.1961 52.4699 22.4617 51.584 22.7716 50.974C23.0224 50.4802 22.9486 50.1026 22.2108 50.3205Z" fill="white"/>
<path d="M98.411 31.4837C98.3077 31.1351 98.1749 30.7866 98.5291 30.5106C99.1636 30.0313 98.957 29.4649 98.6471 28.9711C98.0569 28.0271 97.4076 27.1121 96.7583 26.2117C96.5075 25.8486 96.0205 25.5582 95.8435 26.1391C95.4893 27.301 94.722 28.4338 95.1057 29.7118C96.2124 33.4008 96.9502 37.2204 98.8537 40.6479C99.0898 41.0691 99.1341 41.4467 98.6914 41.8243C97.4076 42.9281 95.7992 43.1169 94.2941 42.3036C92.361 41.2579 91.3133 39.6603 91.151 37.4963C91.0625 36.349 91.0182 35.1871 90.8559 34.0543C90.5165 31.687 90.3247 29.2906 89.3951 27.0395C89.2623 26.7055 89.1442 26.3279 88.6868 26.3424C88.2146 26.3569 88.1703 26.7636 88.0375 27.0831C87.3587 28.7242 87.1964 30.3363 87.6243 32.1372C88.2441 34.7514 88.7458 37.4382 88.0965 40.1541C87.5506 42.4052 85.0568 44.1625 82.8581 43.8866C80.748 43.6106 79.3019 41.7081 79.2872 39.2246C79.2872 38.237 79.4347 37.2785 79.7151 36.3345C80.1873 34.795 80.4086 33.2265 80.6005 31.6289C80.6595 31.1496 80.63 30.5977 80.0545 30.3799C79.5528 30.1911 79.1986 30.5542 78.8888 30.8592C78.0329 31.6725 77.4279 32.6601 77.059 33.7784C76.513 35.4631 76.0556 37.1768 75.6867 38.9196C75.303 40.735 74.9932 42.594 73.916 44.1916C72.7945 45.8472 71.2894 45.8472 70.1974 44.1335C69.8876 43.6542 69.7105 43.0878 69.4892 42.565C68.7366 40.7931 69.2088 38.9922 69.3121 37.1768C69.5187 33.8219 68.6923 30.8446 65.9477 28.5935C64.4869 27.3881 63.3506 27.3155 61.816 28.4483C60.3994 29.494 59.7059 31.0189 59.4993 32.6601C59.0566 36.1602 60.4437 37.598 64.0294 37.598C64.6639 37.598 65.2984 37.627 65.9182 37.7287C66.4051 37.8013 66.9364 37.9466 67.1282 38.4549C67.3348 39.0213 66.8478 39.3408 66.5084 39.6748C64.6344 41.5193 62.6866 43.3347 60.5175 44.8306C58.2008 46.4427 55.7365 47.8515 52.7558 47.9531C49.7161 48.0548 47.9158 45.7311 48.7569 42.87C49.1848 41.4321 49.5242 39.9508 49.7456 38.4694C49.8636 37.6706 50.0997 37.1768 50.8965 36.8863C52.2541 36.3926 53.1099 35.4195 53.5084 34.0398C53.6854 33.4153 53.892 32.7908 54.4232 32.2534C54.7774 32.6601 54.8069 33.0231 54.7774 33.4443C54.7626 33.8219 54.6446 34.3593 55.1905 34.4029C55.6332 34.4464 55.648 33.9236 55.7365 33.6041C55.9874 32.6165 56.1792 31.6144 56.4301 30.6268C56.6366 29.7844 56.3858 29.0438 55.8988 28.3612C55.4266 27.6931 54.9397 27.6059 54.4232 28.3321C53.892 29.0583 53.6412 29.9297 53.2723 30.7285C52.0918 33.241 49.539 33.5315 47.8716 31.382C47.665 31.1061 47.5322 30.6994 47.0895 30.7575C46.6616 30.8156 46.632 31.2513 46.4697 31.5563C45.3925 33.546 46.2927 35.129 47.3551 36.8137C48.7569 39.0213 48.6389 39.5296 46.7944 41.2724C43.3414 44.5547 39.5196 47.2124 34.5616 47.7934C31.3005 48.171 29.2937 45.978 30.0315 42.8264C30.1791 42.2019 30.3266 41.8533 31.0939 42.1583C32.3925 42.6521 33.75 42.594 35.0781 42.2309C38.2949 41.345 40.8772 39.4425 43.2677 37.264C46.3812 34.4319 45.6729 28.4773 41.9544 26.4296C40.4198 25.5872 38.8113 24.8756 37.262 24.0913C36.229 23.5685 35.2994 22.9294 34.4731 22.058C34.9895 21.8111 35.6831 22.029 35.7273 21.3319C35.7716 20.7364 35.2256 20.504 34.7977 20.3007C33.4697 19.6472 32.0973 19.0807 30.7693 18.4272C29.2347 17.6865 29.2199 17.5122 30.5775 16.5827C37.1587 12.1096 44.153 8.36253 51.5458 5.37073C52.9476 4.80432 54.4823 4.5429 55.9579 4.17981C56.5481 4.03458 57.1531 4.20886 57.5515 4.70265C57.9942 5.26906 57.4335 5.67572 57.1974 6.12594C56.4743 7.44756 55.6332 8.72561 55.0282 10.1053C54.3495 11.6448 53.7592 13.2424 53.5526 14.9271C53.5084 15.3192 53.4641 15.7985 54.0248 15.8711C54.4823 15.9292 54.6446 15.508 54.7036 15.174C55.0873 13.0245 56.371 11.2672 57.3449 9.37916C58.4959 7.11352 59.6321 4.83336 59.5583 2.21916C59.5141 0.54898 58.7763 -0.14814 57.0793 0.0261404C55.4119 0.20042 53.8182 0.752307 52.2984 1.40586C46.5288 3.91839 40.8772 6.69235 35.5355 9.98914C32.6728 11.761 29.1756 12.9083 28.0247 16.6699C27.6558 14.3461 27.3754 12.1095 27.1541 9.85843C26.8885 7.30233 26.7114 4.7317 25.8113 2.29178C25.7227 2.04488 25.6785 1.73989 25.3686 1.69632C25.1177 1.65275 24.9407 1.85608 24.8669 2.05941C24.3652 3.41008 23.5388 4.68813 23.9225 6.25665C25.162 11.3253 25.4129 16.5101 25.708 21.6949C25.9146 25.2822 26.0031 28.8695 26.313 32.4422C26.5491 35.1871 26.977 37.9175 28.6887 40.2558C29.0428 40.7496 28.9543 41.2579 28.851 41.7952C28.5854 43.233 28.3493 44.6854 28.4231 46.1522C28.6739 50.7126 31.7137 52.9782 36.2143 51.918C39.077 51.2354 41.4822 49.6959 43.7546 47.9241C44.817 47.0962 45.8205 46.2103 47.119 45.1356C46.9567 47.0382 47.3256 48.4905 48.0339 49.8557C48.8602 51.4532 50.203 52.4263 52.0032 52.4118C53.7592 52.3827 55.5004 52.0342 57.0941 51.2063C59.8535 49.7685 62.3472 47.9386 64.6049 45.8327C65.7116 44.8016 66.8331 43.7704 67.9545 42.7247C68.1906 43.4364 68.3529 44.1335 68.6333 44.7725C68.9284 45.4551 69.2678 46.1522 69.7105 46.7622C71.5698 49.3038 73.8865 49.1295 75.3768 46.341C76.0556 45.0775 76.3655 43.6833 76.6016 42.2745C76.941 40.3719 77.3836 38.4984 78.4166 36.8283C78.2838 37.4818 78.151 38.1208 78.0329 38.7744C77.605 40.9819 77.5312 43.1749 78.4018 45.3099C79.2429 47.3722 80.748 48.4034 82.9909 48.2872C85.3371 48.1565 86.798 46.6751 87.9637 44.8451C88.7606 43.6106 89.0114 42.1728 89.4688 40.5027C89.7492 41.2869 89.9263 41.7807 90.1033 42.2745C90.546 43.4945 91.151 44.6273 92.0807 45.5713C94.6925 48.2145 98.4258 47.6336 99.9014 44.2497C101.2 41.2724 101.377 38.2225 99.8276 35.2452C99.1783 34.0398 98.7947 32.7617 98.411 31.4837ZM66.3609 34.9257C66.3609 34.9257 66.1248 34.2576 64.6049 34.2867C62.9522 34.3157 61.816 33.9091 61.9636 32.8053C62.0964 31.7015 63.2916 31.2223 64.9443 31.8032C66.597 32.3841 66.9511 33.6186 66.3609 34.9257ZM28.1132 28.9857C28.1132 27.3881 27.9804 25.805 27.8919 24.1058C28.0837 23.4523 27.3902 22.3485 28.187 22.0145C28.8658 21.724 29.6183 22.639 30.1791 23.1618C33.5434 26.3134 37.439 28.6516 41.6297 30.5687C41.8658 30.6849 42.1019 30.8301 42.3233 30.9754C44.035 32.1953 44.0055 32.602 42.3823 33.9091C40.346 35.5647 38.1473 36.9009 35.5798 37.5835C32.1269 38.4984 29.7659 37.1478 28.8805 33.6912C28.4969 32.1663 28.1132 30.6123 28.1132 28.9857Z" fill="white"/>
<path d="M240.408 11.0784C243.315 16.423 247.063 21.1721 251.107 25.7034C254.028 28.9857 257.009 32.2244 258.721 36.378C259.163 37.4528 258.912 38.6292 259.488 39.6022C259.872 40.2558 259.754 40.735 259.414 41.3305C258.13 43.5235 256.507 45.4116 254.515 47.0091C252.862 48.3308 251.225 49.6669 249.483 50.8723C249.1 51.1338 248.495 51.4823 248.805 52.0342C249.144 52.6587 249.69 52.1504 250.103 51.9761C251.785 51.2064 253.512 50.5093 255.12 49.6088C256.788 48.6793 258.632 48.0112 259.754 46.2539C261.288 43.8285 261.996 41.1417 262.705 38.2806C263 39.5151 263.265 40.6479 263.531 41.7662C263.723 42.5505 263.9 43.3928 264.535 43.9302C266.01 45.2228 266.04 46.5153 264.859 48.0258C264.372 48.6503 264.003 49.4055 263.885 50.2188C263.797 50.9304 264.018 51.5404 264.623 51.9761C264.992 52.2375 265.42 52.2666 265.759 51.9906C266.364 51.4968 266.807 50.8869 267.014 50.1171C267.087 49.8412 267.102 49.5652 266.822 49.4055C266.571 49.2748 266.394 49.4491 266.231 49.5943C266.01 49.7976 265.804 50.1607 265.464 49.8121C265.199 49.5507 265.317 49.2167 265.479 48.9407C265.848 48.3308 266.29 47.7498 266.6 47.1108C266.881 46.5153 267.22 46.3411 267.869 46.5153C269.463 46.9365 270.88 46.4718 272.281 45.6875C273.27 45.1356 273.831 44.0899 274.79 43.48C275.867 45.6439 277.225 46.646 278.641 46.283C280.382 45.8327 281.651 44.7725 282.537 43.0297C283.422 44.7144 284.558 45.6149 286.359 45.2228C288.129 44.8306 288.646 43.2476 289.428 41.8388C289.944 42.4343 290.328 42.9862 290.815 43.4364C292.541 45.092 294.356 44.9468 295.743 43.0443C297.367 40.8222 297.588 38.237 297.618 35.6374C297.677 29.3778 296.378 23.2199 295.876 17.0039C295.699 14.7092 295.434 12.4291 295.212 10.1344C295.316 10.1053 295.434 10.0908 295.537 10.0618C295.67 10.1779 295.803 10.2941 295.935 10.4103C296.275 10.7153 296.452 11.4415 297.072 11.0203C297.588 10.6863 297.278 10.1199 297.116 9.66963C296.614 8.28992 296.083 6.9102 295.552 5.54501C295.124 4.41219 294.932 3.20675 294.356 2.13202C294.061 1.59466 293.692 1.42038 293.397 2.03036C292.896 3.10508 292.158 4.19434 292.35 5.42882C293.102 10.236 292.94 15.1159 293.707 19.9376C294.312 23.8008 294.327 27.7512 294.843 31.658C295.124 33.8219 295.271 36.015 295.434 38.1935C295.478 38.8034 295.537 39.5296 294.814 39.8201C294.15 40.0815 293.471 39.9653 292.866 39.5732C292.158 39.123 291.627 38.5275 291.42 37.6997C291.317 37.3075 291.213 36.8718 290.682 36.8864C290.269 36.9009 290.092 37.2495 289.93 37.5835C289.62 38.2225 289.339 38.8906 288.985 39.5151C288.336 40.6334 286.89 41.2579 285.872 40.8803C284.544 40.372 284.632 39.4134 285.075 38.3387C285.178 38.0918 285.208 37.7868 284.942 37.598C284.603 37.3656 284.293 37.598 284.116 37.8304C283.481 38.5856 282.847 39.3408 282.301 40.1686C281.578 41.2579 280.515 41.65 279.305 41.7517C277.756 41.8824 276.885 40.9819 277.121 39.5151C277.18 39.1665 277.402 38.7889 276.974 38.5566C276.605 38.3677 276.251 38.6001 275.985 38.818C275.233 39.457 274.51 40.1396 273.757 40.7641C270.26 43.6397 266.143 42.2164 265.213 37.8304C265.169 37.6125 265.125 37.3947 265.08 37.1768C264.372 32.8344 264.859 28.4483 264.475 24.0913C263.989 18.587 263.959 13.039 263.28 7.54923C263.059 5.77738 262.69 4.03458 262.365 2.27725C262.306 1.98679 262.233 1.6237 261.849 1.55109C261.451 1.47847 261.303 1.81251 261.185 2.10297C260.713 3.25032 260.034 4.38314 260.108 5.66119C260.24 7.88326 260.403 10.1199 260.668 12.3274C261.495 18.9791 261.878 25.6453 261.878 32.3406C261.878 34.5191 261.495 36.6395 260.403 38.6146C260.639 36.349 260.314 34.185 259.517 32.0501C258.248 28.6516 255.946 25.9503 253.556 23.3361C250.649 20.141 247.816 16.9023 245.248 13.4457C244.407 12.3129 243.729 11.0639 242.932 9.78582C243.581 9.65511 243.92 9.90201 244.304 10.0182C244.688 10.1344 245.116 10.3668 245.381 9.87296C245.588 9.48083 245.293 9.20489 245.027 8.95799C243.035 7.14257 241.22 5.13835 238.903 3.71507C238.505 3.46817 238.136 3.13413 237.782 3.74411C237.442 4.33957 237.693 7.38947 238.18 7.88326C239.11 8.8418 239.789 9.94558 240.408 11.0784Z" fill="white"/>
<path d="M107.811 24.2946C110.954 22.2323 114.156 20.2136 116.531 17.2363C116.827 16.8587 117.107 16.6699 117.668 16.8442C118.45 17.0765 119.261 16.2487 118.804 15.7259C117.815 14.5785 118.037 13.2569 117.786 11.9934C117.653 11.3398 117.254 10.5846 116.443 10.7879C115.336 11.0639 114.923 12.0805 114.525 13.0391C114.2 13.8378 114.318 14.6076 115.012 15.0723C116.103 15.7985 115.867 16.3358 115.071 17.1492C112.842 19.4293 110.157 21.1576 107.752 23.2199C107.501 23.4378 107.294 23.8735 106.881 23.6992C106.483 23.5394 106.615 23.0892 106.542 22.7552C105.907 19.3422 105.7 15.9001 105.45 12.4436C105.376 11.4851 105.036 10.5265 105.332 9.45179C105.922 9.69869 106.084 10.6282 106.719 10.207C107.235 9.85844 106.881 9.20489 106.719 8.72562C105.996 6.48903 105.258 4.25243 104.49 2.03036C104.358 1.62371 104.181 1.11539 103.635 1.11539C103.148 1.11539 103.044 1.60919 102.882 1.95775C102.277 3.38103 101.938 4.7898 102.13 6.43093C102.749 11.8046 103.015 17.2073 103.679 22.5664C104.535 29.4214 106.01 36.2183 105.656 43.175C105.641 43.509 105.553 43.9738 105.996 44.0899C106.542 44.2352 106.645 43.7269 106.792 43.3783C107.766 41.0255 107.678 38.513 107.84 36.044C108.061 32.7472 107.397 29.5085 106.896 26.2698C106.778 25.3984 106.984 24.832 107.811 24.2946Z" fill="white"/>
<path d="M24.0996 33.3427C23.6864 33.4589 23.6422 33.88 23.5684 34.2141C23.2585 35.8116 22.8011 37.3366 24.38 38.7163C25.3686 39.5732 25.1325 40.096 23.9225 40.706C20.9861 42.2019 19.4367 41.7807 17.7545 39.0213C16.515 36.988 15.5411 36.8283 13.6523 38.3242C11.129 40.3139 9.97807 43.0878 9.18124 46.0361C8.91563 46.9946 8.53197 47.866 7.91222 48.6503C7.0121 49.7831 5.77259 49.8557 4.82821 48.781C3.92809 47.7498 3.29358 46.5879 3.26407 45.1937C3.23455 44.0464 3.04273 42.9135 3.2198 41.7517C3.27882 41.3305 3.44114 40.6189 2.77712 40.5462C2.20163 40.4881 2.2459 41.1562 2.17212 41.5629C2.02456 42.3907 1.95078 43.2331 1.89175 43.7123C1.98029 46.922 2.40822 49.6233 4.6954 51.7002C6.20052 53.0654 7.76466 52.9346 8.93039 51.3226C9.59441 50.4076 10.0223 49.4055 10.3175 48.3162C10.8192 46.5153 11.4537 44.8016 12.8112 43.3928C14.641 41.4903 15.2607 41.4903 16.7068 43.6833C18.8169 46.9075 23.4208 46.8494 25.4867 43.5235C27.4935 40.2703 26.8885 36.8283 24.9554 33.8655C24.7489 33.5896 24.5423 33.2265 24.0996 33.3427Z" fill="white"/>
<path d="M163.485 3.96197C164.489 3.59889 164.975 2.87272 165.064 1.85609C165.167 1.17349 164.857 0.941118 164.208 1.14444C163.736 1.28968 163.264 1.44943 162.806 1.63824C158.32 3.4827 153.849 5.32716 149.364 7.18615C146.516 8.37706 143.609 9.45179 140.82 10.817C138.562 11.9208 136.334 13.0826 134.017 14.0266C129.104 16.0309 124.47 18.587 119.822 21.0995C119.01 21.5352 118.155 22.0145 117.845 23.0021C117.697 23.4668 117.373 23.9751 117.756 24.3818C118.228 24.8901 118.671 24.3237 119.069 24.1204C121.844 22.639 124.514 20.9833 127.348 19.6617C133.442 16.8442 139.477 13.8814 145.719 11.3834C151.71 9.00157 157.45 6.15499 163.485 3.96197Z" fill="white"/>
<path d="M96.5812 1.37681C96.3451 1.0573 96.0205 1.14444 95.7254 1.28967C94.9876 1.62371 94.2793 2.00131 93.5267 2.29178C87.9637 4.35409 82.5925 6.86663 77.2656 9.4663C72.4698 11.8046 67.6299 14.0702 62.8932 16.5246C58.1565 18.9936 53.4198 21.4481 48.8897 24.2511C48.2109 24.6722 47.9601 25.3113 47.8273 26.0084C47.7682 26.2988 47.7535 26.6619 48.3142 26.6474C48.5946 26.5022 48.9192 26.3569 49.2291 26.1827C50.4391 25.5001 51.6343 24.7884 52.8443 24.1203C61.5209 19.3277 70.4778 15.0578 79.3904 10.7298C84.2747 8.36253 89.2917 6.2857 94.2793 4.1072C95.2679 3.6715 96.0795 3.14866 96.5074 2.1175C96.596 1.8706 96.7583 1.62371 96.5812 1.37681Z" fill="white"/>
<path d="M300.525 9.81486C300.79 13.3295 301.041 16.8442 301.307 20.3443C301.705 25.5001 302.458 30.6268 302.797 35.7826C302.959 38.237 303.048 40.6769 303.018 43.1314C303.018 43.4799 302.945 43.9447 303.387 44.0318C303.904 44.1335 303.889 43.6397 303.978 43.3202C304.568 41.1998 304.922 39.0794 304.981 36.8718C305.173 30.5542 303.889 24.3527 303.476 18.0932C303.299 15.5225 302.827 12.9809 303.122 10.3377C303.874 10.3813 303.948 11.3543 304.627 11.0348C305.025 10.8605 304.937 10.4103 304.819 10.0763C303.918 7.50565 303.004 4.93502 302.089 2.37892C302 2.13202 301.897 1.84155 301.587 1.81251C301.189 1.76894 301.026 2.10297 300.938 2.37892C300.525 3.67149 299.787 4.86241 300.215 6.37283C300.525 7.46208 300.451 8.653 300.525 9.81486Z" fill="white"/>
<path d="M173.401 4.36862C173.062 3.70055 172.442 4.26696 171.999 4.47029C168.104 6.19856 164.223 7.97041 160.313 9.66964C155.502 11.761 150.78 14.0557 146.176 16.5682C144.612 17.4251 143.476 18.6305 143.328 20.6638C143.196 21.5642 143.904 22.1452 144.642 22.6825C145.011 22.944 145.291 23.6411 145.837 23.2635C146.383 22.9004 146.235 22.2323 146.088 21.6659C145.985 21.2738 145.778 20.9107 145.409 20.7074C144.125 19.9957 144.715 19.3712 145.542 18.8774C147.003 18.006 148.508 17.1927 150.013 16.4085C155.797 13.4312 161.803 10.9041 167.705 8.17373C169.329 7.41852 170.967 6.66331 172.56 5.86453C173.136 5.55954 173.726 5.00765 173.401 4.36862Z" fill="white"/>
<path d="M173.696 23.5539C173.844 22.3049 173.534 21.0995 173.564 19.8795C173.578 19.255 173.711 18.7467 174.523 19.1969C174.892 19.4003 175.201 19.4293 175.408 18.9791C175.747 18.2384 175.246 17.0765 174.419 16.7425C173.46 16.3504 172.885 16.757 172.501 17.6284C172.176 18.3691 172.235 19.1824 172.058 20.0829C171.262 19.4584 170.568 18.892 169.874 18.3546C169.461 18.0351 168.989 17.8608 168.487 18.1367C168.015 18.4127 167.853 18.8774 167.868 19.4003C167.882 20.3733 168.325 20.9978 169.343 21.1866C170.007 21.3173 170.568 21.5788 171.114 22.0726C171.675 22.5809 171.896 23.1037 171.94 23.6266C172.029 23.7137 173.224 24.556 173.696 23.5539Z" fill="white"/>
<path d="M175.039 25.7905C174.67 25.3548 174.552 25.137 174.198 24.9046C174.183 24.8901 173.859 24.7884 173.814 24.7884C172.708 24.7158 172.501 25.0934 172.368 25.6163C172.457 26.7346 171.586 26.7781 171.498 27.8383C171.38 29.2471 170.907 30.5687 171.439 31.992C172.295 34.3012 172.752 36.7121 173.195 39.123C173.268 39.486 173.091 40.096 173.623 40.1105C174.139 40.1251 174.065 39.5296 174.11 39.152C174.434 36.3345 173.637 33.6767 172.767 31.048C172.132 29.1164 172.103 29.0438 174.095 28.8259C174.774 28.7533 175.452 28.7823 175.703 27.9255C175.969 27.0395 175.688 26.5603 175.039 25.7905Z" fill="white"/>
<path d="M56.8285 14.2881C56.7842 14.6802 56.9022 14.9997 57.463 15.0142C57.64 14.9126 57.8761 14.7819 58.1122 14.6657C60.8864 13.315 63.6753 11.9789 66.4494 10.6137C71.3041 8.20278 76.4097 6.31475 81.2055 3.78769C81.7957 3.4827 82.445 3.25033 82.7696 2.59678C82.9467 2.24822 83.2565 1.88514 82.9319 1.49301C82.5778 1.07183 82.1941 1.42039 81.84 1.56562C73.8274 4.94956 65.9624 8.63848 58.1565 12.4436C57.3302 12.8357 56.9465 13.4602 56.8285 14.2881Z" fill="white"/>
<path d="M266.335 15.9873C266.556 15.8421 266.807 15.6678 267.087 15.508C268.917 14.4333 270.688 13.2424 272.591 12.3274C278.361 9.52441 284.175 6.83759 289.974 4.1072C290.653 3.78769 291.258 3.41008 291.538 2.69844C291.7 2.30631 292.128 1.87061 291.686 1.493C291.332 1.17349 290.918 1.50753 290.564 1.68181C286.049 3.75864 281.548 5.86453 277.048 7.92684C273.713 9.45179 270.496 11.1801 267.382 13.0826C266.556 13.5909 266.04 14.259 265.848 15.1885C265.774 15.5516 265.745 15.9147 266.335 15.9873Z" fill="white"/>
<path d="M274.096 21.2593C274.495 20.504 274.893 19.7488 275.041 18.9065C275.1 18.5579 275.144 18.1367 274.746 17.9625C274.288 17.7737 274.096 18.1658 273.919 18.4563C271.544 22.4647 269.33 26.5603 268.563 31.2223C268.342 32.602 268.637 33.88 269.463 35.0274C270.466 36.4071 271.706 36.5233 272.857 35.2743C274.067 33.9817 274.628 32.3987 274.79 30.743C274.716 30.1185 274.967 29.3633 274.244 29.1745C273.536 28.9857 273.491 29.7845 273.196 30.1911C273.093 30.3363 273.034 30.5106 272.945 30.6704C272.739 31.0335 272.503 31.353 272.016 31.3385C271.455 31.3094 271.249 30.9028 271.13 30.4671C270.865 29.4504 270.939 28.4483 271.175 27.4317C271.691 25.137 273.034 23.2635 274.096 21.2593Z" fill="white"/>
<path d="M113.403 33.0522C114.613 34.2141 114.687 34.2141 115.705 32.8198C115.971 32.4567 116.31 32.1518 116.517 31.7596C116.974 30.9318 117.402 31.1206 117.948 31.658C118.553 32.2534 119.217 32.7763 119.852 33.3281C120.117 33.5605 120.457 33.9236 120.766 33.5896C121.593 32.6601 122.286 31.6289 122.817 30.5542C122.685 29.6828 121.932 29.4068 121.416 28.9566C119.306 27.1267 119.276 27.1267 117.535 29.3052C116.989 29.9878 116.561 30.0894 115.912 29.4504C115.277 28.8259 114.554 28.2885 113.89 27.7076C113.492 27.3591 113.167 27.301 112.754 27.7512C110.791 29.8425 110.791 30.5397 112.813 32.5148C113.019 32.6746 113.211 32.8634 113.403 33.0522Z" fill="white"/>
<path d="M215.825 51.4242C215.987 51.3516 216.194 51.279 216.371 51.1483C218.496 49.6088 218.555 48.0403 216.592 46.4137C216.415 46.2684 216.208 46.1668 216.061 46.007C215.102 44.9613 214.423 45.2082 213.656 46.312C212.387 48.1419 212.328 48.1129 210.66 46.7477C210.38 46.5153 210.085 46.312 209.834 46.0651C209.273 45.5277 208.875 45.6294 208.388 46.2103C206.514 48.476 206.514 48.5631 208.565 50.5238C210.07 51.9616 210.07 51.9616 211.354 50.3495C212.549 48.8536 212.534 48.8681 214.069 50.1171C214.615 50.5528 215.013 51.1918 215.825 51.4242Z" fill="white"/>
<path d="M236.528 29.3923C234.742 30.7575 232.912 32.0646 231.127 33.4298C230.832 33.6622 230.286 33.9381 230.581 34.3593C230.935 34.8531 231.407 34.4029 231.761 34.185C232.352 33.851 232.912 33.4734 233.473 33.0958C236.97 30.8011 240.644 28.6952 242.74 24.8756C242.961 24.4834 243.256 24.2656 243.743 24.498C244.097 24.6868 244.525 24.9627 244.776 24.4108C245.027 23.888 245.263 23.249 244.673 22.8133C243.994 22.334 243.92 21.695 243.847 20.9688C243.788 20.2717 243.61 19.56 243.404 18.8774C243.256 18.3836 242.873 18.0496 242.15 18.0496C241.146 18.5579 240.394 19.3567 240.113 20.5767C239.862 21.6804 239.744 22.7842 241.058 23.307C241.987 23.6701 241.973 24.0623 241.412 24.7594C240.01 26.5458 238.313 28.0126 236.528 29.3923Z" fill="white"/>
<path d="M167.189 16.2342C169.137 15.0142 171.025 13.7217 173.018 12.5598C175.231 11.2672 177.193 9.72773 178.787 7.76708C179.245 7.20067 179.672 7.08449 180.292 7.43305C180.661 7.63637 181.06 7.82518 181.325 7.30234C181.576 6.79402 181.753 6.0969 181.178 5.86453C179.909 5.37073 180.041 4.38315 179.938 3.36651C179.864 2.55321 179.687 1.52205 178.713 1.3042C177.71 1.07183 177.415 2.11751 176.972 2.74201C176.087 3.99102 176.175 5.28359 177.238 5.9081C178.359 6.56165 178.035 7.04092 177.312 7.67994C174.936 9.74226 172.383 11.5867 169.756 13.315C168.251 14.3026 166.584 15.1449 165.433 16.8732C166.333 16.9023 166.746 16.5101 167.189 16.2342Z" fill="white"/>
<path d="M138.547 7.22971C138.267 7.38947 138.001 7.5928 138.031 7.94136C138.06 8.20278 138.311 8.33349 138.533 8.24635C139.743 7.81065 141.13 7.85422 142.163 6.93925C143.55 5.70476 144.435 4.09268 145.527 2.64034C146.014 2.00132 145.734 1.47848 144.966 1.21706C141.853 0.156852 138.71 1.34777 137.293 4.15077C137.131 4.47028 136.895 4.7898 137.16 5.13836C137.426 5.47239 137.795 5.34168 138.164 5.26906C139.197 5.06574 140.23 4.7317 141.513 5.09479C140.628 6.21308 139.536 6.6633 138.547 7.22971Z" fill="white"/>
<path d="M287.377 17.1637C287.731 16.2487 287.82 15.3483 287.406 14.4333C287.037 13.62 286.654 12.8212 286.3 11.9934C286.152 11.6593 286.255 11.0348 285.695 11.1074C285.163 11.1801 285.134 11.7755 285.119 12.1967C285.104 12.676 285.163 13.1843 285.311 13.6345C285.562 14.3897 285.901 15.1014 286.27 16.0163C285.09 15.9292 284.913 15.174 284.691 14.5204C284.396 13.6781 284.19 12.8067 283.909 11.9643C283.791 11.6158 283.776 11.0639 283.186 11.1801C282.714 11.2817 282.655 11.761 282.64 12.1531C282.625 12.5888 282.699 13.039 282.773 13.4747C282.862 13.9976 283.068 14.5204 283.112 15.0433C283.157 15.6678 283.363 16.5973 282.448 16.6699C281.681 16.728 281.622 15.8711 281.548 15.2466C281.474 14.535 281.415 13.8233 281.312 13.1262C281.253 12.7486 281.283 12.2112 280.692 12.2693C280.191 12.3274 280.117 12.8357 280.146 13.2133C280.235 14.6366 280.338 16.0599 280.545 17.4687C280.663 18.2384 281.238 18.7177 282.035 18.8484C282.758 18.9791 283.289 18.6741 283.57 18.0206C283.939 17.1927 284.278 17.7156 284.677 17.9915C285.827 18.7758 286.89 18.4272 287.377 17.1637Z" fill="white"/>
<path d="M38.0735 17.8898C37.7046 17.7882 37.2324 17.5558 36.9373 17.9625C36.5979 18.4417 36.9226 18.9065 37.1587 19.3277C37.4538 19.836 37.9702 20.0393 38.5162 20.0683C40.0951 20.1555 41.674 19.9667 43.1939 19.5745C44.1235 19.3277 44.8023 17.8898 44.5515 16.8151C44.3006 15.7549 43.5333 15.4644 42.5151 15.479C41.9839 15.479 41.3937 15.7113 40.8919 15.2756C41.3346 14.7092 41.9396 14.8109 42.4118 14.6076C43.0021 14.3462 43.3267 13.8088 43.1054 13.1988C42.8545 12.5162 42.2495 12.6614 41.7478 12.9083C40.3607 13.5764 39.254 14.4769 38.8999 16.0599C38.6785 17.0184 39.077 17.5268 40.0213 17.5994C40.7739 17.6575 41.5265 17.6139 42.279 17.6139C40.9067 18.006 39.5196 18.2965 38.0735 17.8898Z" fill="white"/>
<path d="M223.749 19.9231C224.501 19.5165 225.21 19.0372 225.962 18.6305C229.784 16.5101 233.606 14.4042 237.442 12.3129C238.121 11.9353 238.534 11.3979 238.726 10.6863C238.623 10.0037 238.21 10.0327 237.738 10.2651C236.941 10.6717 236.159 11.122 235.347 11.5286C231.422 13.4602 227.571 15.5225 223.823 17.7446C223.35 18.0206 222.878 18.2965 222.657 18.8193C222.495 19.1969 222.362 19.6036 222.657 19.9522C222.996 20.3588 223.409 20.1264 223.749 19.9231Z" fill="white"/>
<path d="M207.399 31.9484C207.561 32.2244 207.871 32.0646 208.137 32.021C211.088 31.4546 212.918 29.523 214.335 27.0686C214.689 26.4441 214.748 25.8777 213.936 25.5291C211.191 24.3527 207.68 25.5146 206.366 28.0126C206.219 28.2885 205.953 28.5645 206.13 28.884C206.366 29.2906 206.794 29.1164 207.104 29.0292C208.344 28.6952 209.583 28.7388 211.132 28.8549C209.819 29.7554 208.786 30.467 207.753 31.1787C207.517 31.382 207.207 31.5999 207.399 31.9484Z" fill="white"/>
<path d="M90.9297 20.4024C90.7969 19.6617 90.9592 18.892 90.6051 18.1803C90.4723 17.9189 90.369 17.5413 89.9558 17.6139C89.5869 17.6865 89.4541 18.0351 89.4984 18.3401C89.6459 19.7343 89.6902 21.1721 90.0591 22.5083C90.4132 23.8299 91.4166 24.0042 92.4938 23.0747C92.9513 22.6825 93.3054 22.5664 93.9104 22.8133C95.5336 23.4813 96.2861 22.9294 96.5665 21.2012C96.8173 19.7053 95.8139 18.616 95.445 17.3089C95.3713 17.0184 95.2532 16.6554 94.84 16.728C94.4564 16.7861 94.4269 17.1637 94.3679 17.4541C94.1318 18.6596 94.6777 19.7053 95.1942 20.9252C94.2055 20.7509 93.9547 20.141 93.8219 19.4729C93.6743 18.6886 93.5268 17.9044 93.1726 17.1782C93.0103 16.8442 92.8775 16.3213 92.361 16.4666C91.8888 16.5827 91.8593 17.0911 91.9036 17.4687C92.0216 18.3836 92.2282 19.2986 92.361 20.2136C92.4348 20.7509 92.4348 21.4045 91.7118 21.4481C91.151 21.4916 91.0182 20.8816 90.9297 20.4024Z" fill="white"/>
<path d="M128.853 2.62582C129.045 2.29179 129.192 1.84156 128.72 1.56562C128.351 1.36229 128.13 1.68181 127.982 1.94323C126.226 4.80433 124.898 7.82518 124.337 11.151C124.337 11.8917 124.47 12.5743 124.751 13.2424C125.09 14.0557 125.739 14.5204 126.595 14.6076C127.495 14.6947 127.982 14.0993 128.292 13.344C128.705 12.3129 129.104 11.2817 129.472 10.2361C129.605 9.8875 129.871 9.37918 129.384 9.17585C128.882 8.97252 128.764 9.55346 128.572 9.87297C128.307 10.2796 128.085 10.7879 127.451 10.5991C126.905 10.4394 126.713 9.97464 126.625 9.48084C126.433 8.47873 126.713 7.54924 127.067 6.61974C127.569 5.25455 128.115 3.88936 128.853 2.62582Z" fill="white"/>
<path d="M29.7069 10.1489C29.9282 10.0327 30.2086 9.90201 30.4742 9.75678C31.2415 9.30655 32.0088 8.82728 32.7762 8.39158C35.8159 6.67783 38.8557 4.96408 41.8954 3.2358C42.5299 2.87272 43.0021 2.24821 42.6922 1.59466C42.2643 0.708738 41.5855 1.4349 41.0986 1.66728C37.3358 3.4827 33.7353 5.55953 30.1496 7.69446C29.5003 8.08659 29.0281 8.58039 28.9691 9.36465C28.9543 9.78582 29.0724 10.1489 29.7069 10.1489Z" fill="white"/>
<path d="M189.707 17.8463C189.338 17.7301 188.88 17.4106 188.6 17.8608C188.349 18.2675 188.615 18.7322 188.88 19.0953C189.146 19.4729 189.559 19.6762 189.987 19.836C191.566 20.4024 193.204 20.2717 194.827 20.1555C195.668 20.0974 196.642 18.6015 196.568 17.6865C196.494 16.8442 196.052 16.3068 195.152 16.147C194.488 16.0163 193.366 16.452 193.263 15.6968C193.16 15.0287 194.37 15.2321 194.916 14.898C195.402 14.6076 195.845 14.1719 195.594 13.5909C195.314 12.9229 194.665 13.1407 194.178 13.3586C193.233 13.7943 192.377 14.3897 191.787 15.2611C191.404 15.7985 190.902 16.3649 191.271 17.0911C191.64 17.8027 192.363 17.7591 193.041 17.8027C193.661 17.8463 194.311 17.6575 195.24 18.282C193.145 18.2965 191.404 18.3691 189.707 17.8463Z" fill="white"/>
<path d="M283.894 25.5582C284.337 25.1951 284.617 25.6598 284.927 25.8777C285.208 26.081 285.503 26.2843 285.724 25.9067C286.049 25.3694 286.019 24.7594 285.695 24.2511C285.296 23.612 284.824 22.9294 283.939 22.9585C283.319 22.973 283.068 23.4959 282.876 24.0332C282.522 24.9772 282.714 25.9793 282.507 27.1848C282.183 26.9234 281.976 26.8217 281.858 26.6619C281.238 25.8196 280.53 25.0789 279.541 24.6722C278.892 24.4108 278.302 24.3382 277.992 25.166C277.549 26.3424 277.992 27.6931 279.187 27.9981C280.81 28.4193 281.888 29.2907 282.552 30.772C282.699 31.1061 282.921 31.5708 283.452 31.3675C283.865 31.2077 283.806 30.772 283.791 30.4235C283.762 29.1745 283.703 27.9255 283.658 26.691C283.644 26.2843 283.57 25.8341 283.894 25.5582Z" fill="white"/>
<path d="M268.873 5.47239C270.452 5.53048 271.44 6.37284 272.134 7.69446C272.355 8.11564 272.65 8.78371 273.344 8.49324C273.919 8.24635 273.86 7.60732 273.846 7.06996C273.816 6.05332 273.728 5.02217 273.728 4.00553C273.728 3.43912 273.905 3.00342 274.628 3.30841C275.72 3.75864 275.793 3.11961 275.69 2.33535C275.557 1.37681 274.997 0.737784 274.023 0.708737C273.064 0.67969 272.754 1.46395 272.65 2.24821C272.547 3.06152 272.547 3.88935 272.473 4.94955C271.426 3.84578 270.599 2.85819 269.404 2.27726C268.932 2.04488 268.46 1.79799 268.046 2.24821C267.53 2.82914 267.589 3.56983 267.737 4.28148C267.869 4.9205 268.165 5.44334 268.873 5.47239Z" fill="white"/>
<path d="M117.948 3.43912C118.376 3.71506 118.774 3.84577 119.01 3.22127C119.35 2.33535 118.671 1.188 117.579 0.839444C116.517 0.490884 115.912 1.02825 115.676 1.95774C115.469 2.75652 115.439 3.6134 115.292 4.70265C114.348 3.96196 113.713 3.13413 112.769 2.69843C112.178 2.42249 111.559 2.23368 111.101 2.91628C110.393 3.96196 110.924 5.66119 112.149 5.74833C113.757 5.86452 114.628 6.72139 115.395 7.9123C115.572 8.18825 115.794 8.5949 116.222 8.46419C116.708 8.31896 116.708 7.85421 116.694 7.46208C116.664 6.40188 116.561 5.34168 116.561 4.28147C116.561 3.30841 116.886 2.742 117.948 3.43912Z" fill="white"/>
<path d="M249.528 47.1398C249.911 46.4572 249.498 44.5401 248.805 44.1916C247.683 43.6397 247.063 44.453 246.665 45.2373C245.824 46.951 244.437 48.0257 242.769 48.81C240.969 49.6524 239.316 50.7852 237.369 51.3226C237 51.4242 236.572 51.5694 236.41 52.4263C240.158 51.8744 243.36 50.5819 246.03 48.2C246.68 47.6191 247.152 47.2996 247.993 47.6336C248.598 47.8805 249.173 47.7498 249.528 47.1398Z" fill="white"/>
<path d="M288.366 48.8536C289.649 48.7665 289.679 47.7934 289.649 46.893C289.635 46.3556 289.295 46.1087 288.705 46.5008C288.011 46.9656 286.919 46.8494 286.654 47.9677C286.58 48.2582 286.108 48.142 285.783 48.0548C285.355 47.9241 284.913 47.8224 284.588 47.7353C283.614 47.866 282.788 48.0984 282.006 48.476C279.689 49.5943 277.358 50.6981 274.82 51.2645C274.451 51.3516 273.816 51.3952 273.919 51.8745C274.037 52.4263 274.657 52.2521 275.085 52.194C277.372 51.8309 279.6 51.279 281.681 50.1898C282.847 49.5798 284.057 49.0715 285.414 49.8121C285.975 50.1171 286.565 49.8557 287.052 49.4636C287.436 49.1586 287.834 48.8972 288.366 48.8536Z" fill="white"/>
<path d="M225.815 5.90809C227.364 6.08237 228.087 6.95377 228.633 8.2173C228.781 8.56586 228.943 9.05966 229.445 9.00156C230.035 8.92895 230.035 8.34801 230.035 7.94136C230.05 6.88116 229.932 5.80643 229.946 4.74623C229.946 4.16529 230.005 3.43912 230.95 3.97649C231.304 4.17981 231.643 4.49933 232.027 4.09267C232.366 3.72959 232.366 3.25032 232.219 2.82914C231.938 2.07393 231.392 1.493 230.566 1.4349C229.622 1.36229 229.371 2.14655 229.223 2.84367C229.046 3.74411 228.987 4.65909 228.854 5.74834C227.94 4.7317 227.379 3.62793 226.257 3.06152C225.77 2.81462 225.357 2.62582 224.944 3.16318C224.31 3.99101 224.767 5.79191 225.815 5.90809Z" fill="white"/>
<path d="M208.181 16.3794C209.435 16.6844 210.262 17.3234 210.837 18.4127C211.029 18.7758 211.354 19.2405 211.9 19.0081C212.387 18.8048 212.387 18.282 212.372 17.8463C212.328 16.8732 212.21 15.9001 212.151 14.9126C212.106 14.1719 212.298 13.6781 213.124 14.3461C213.464 14.6221 213.847 14.898 214.113 14.3607C214.408 13.7943 214.202 13.1988 213.818 12.7341C213.39 12.2112 212.874 11.7029 212.121 11.8046C211.501 11.8917 211.25 12.4145 211.177 12.9664C211.073 13.7943 211.029 14.6221 210.955 15.6097C210.055 14.8399 209.362 14.2009 208.624 13.62C208.27 13.344 207.827 13.1262 207.429 13.62C206.868 14.3461 207.266 16.1616 208.181 16.3794Z" fill="white"/>
<path d="M153.997 26.7926C153.923 27.1848 153.997 27.5043 154.558 27.5333C154.72 27.4607 154.927 27.3881 155.118 27.2719C157.893 25.5291 160.932 24.2946 163.869 22.8423C164.267 22.639 164.636 22.3776 164.946 22.0726C165.256 21.7676 165.625 21.3609 165.344 20.8962C165.02 20.3733 164.503 20.7219 164.134 20.8962C161.065 22.3776 157.937 23.7282 154.986 25.442C154.44 25.747 154.115 26.1972 153.997 26.7926Z" fill="white"/>
<path d="M247.462 8.21731C247.595 8.15922 247.816 8.0866 248.008 7.97042C250.472 6.38737 253.231 5.34169 255.873 4.10721C256.64 3.74413 257.378 3.2939 258.042 2.75654C258.396 2.46607 258.662 1.88514 258.293 1.43492C257.924 0.984692 257.422 1.30421 257.097 1.58015C256.271 2.24822 255.238 2.49512 254.309 2.94534C252.08 4.02007 249.778 4.96409 247.698 6.32928C247.211 6.64879 246.901 7.04092 246.857 7.62186C246.827 7.99946 246.975 8.23184 247.462 8.21731Z" fill="white"/>
<path d="M55.1463 37.5254C52.9329 39.5441 52.9624 40.4591 55.3086 42.3181C55.5152 42.4778 55.7218 42.6521 55.9431 42.8119C56.1939 43.0007 56.4743 43.1459 56.8137 43.0588C57.2564 42.9426 58.9386 40.5608 58.9091 39.9798C58.8795 39.9072 58.85 39.7039 58.732 39.6022C57.8614 38.8325 56.9908 38.0773 56.1054 37.3366C55.7365 37.0461 55.4414 37.264 55.1463 37.5254Z" fill="white"/>
<path d="M125.872 46.3556C125.06 46.1232 124.441 46.8494 124.101 47.5174C123.57 48.5486 122.714 49.1295 121.696 49.5362C120.575 49.9864 119.409 50.3495 118.302 50.8433C117.107 51.3807 115.749 51.5695 114.716 52.5135C117.845 52.3392 120.884 51.8309 123.422 49.8702C124.057 49.391 124.514 49.115 125.311 49.449C126.27 49.8412 126.802 49.3038 126.816 48.3743C126.831 47.5755 126.743 46.6025 125.872 46.3556Z" fill="white"/>
<path d="M41.9986 23.5975C42.1167 23.5394 42.279 23.4523 42.4413 23.3651C45.245 21.7676 48.0486 20.17 50.867 18.587C51.2359 18.3836 51.531 18.1367 51.6786 17.7446C51.7967 17.4106 51.9885 17.0475 51.6934 16.7425C51.3687 16.4085 51.0146 16.6408 50.7047 16.8006C48.0486 18.282 45.3778 19.7779 42.7364 21.2883C42.1462 21.6223 41.615 22.058 41.5117 22.7842C41.4232 23.1763 41.4379 23.5104 41.9986 23.5975Z" fill="white"/>
<path d="M208.668 6.92473C209.052 6.76497 209.568 6.60522 210.026 6.32927C212.092 5.13836 214.32 4.26696 216.474 3.26485C216.858 3.09057 217.197 2.90177 217.404 2.53868C217.596 2.19012 217.861 1.81252 217.581 1.43491C217.3 1.08635 216.887 1.27515 216.577 1.40586C214.01 2.59678 211.324 3.52627 208.845 4.90599C208.299 5.21098 208.004 5.70477 207.916 6.30023C207.871 6.75045 208.048 6.99735 208.668 6.92473Z" fill="white"/>
<path d="M186.283 49.6524C187.228 50.0009 187.655 49.4055 187.67 48.5777C187.685 47.8224 187.596 46.922 186.755 46.6606C185.885 46.3992 185.472 47.227 185.221 47.866C184.704 49.2312 183.73 49.9428 182.358 50.4657C180.263 51.2354 178.241 52.1794 176.131 52.9782C179.333 53.1234 182.299 52.557 184.675 50.2769C185.162 49.8121 185.486 49.3619 186.283 49.6524Z" fill="white"/>
<path d="M183.804 32.5294C184.439 32.0211 184.513 31.2223 184.616 30.5106C184.572 29.799 184.35 29.2471 183.657 28.9857C182.993 28.7388 182.329 28.55 181.901 27.8528C181.547 27.2574 181.192 27.7512 181.089 28.1288C180.838 29.0292 180.617 29.9442 180.455 30.8592C180.307 31.7015 180.499 32.5584 181.281 32.9651C182.137 33.4298 183.066 33.1248 183.804 32.5294Z" fill="white"/>
<path d="M291.095 23.1037C290.048 24.7884 289.162 26.5312 288.912 28.4919C288.941 29.3197 289.103 30.0459 289.871 30.4671C290.254 30.6704 290.697 30.6559 291.022 30.3509C291.715 29.6973 291.966 28.8404 292.01 27.94C292.025 27.635 291.833 27.4898 291.464 27.5333C290.446 27.6786 290.387 27.606 290.786 26.6329C291.213 25.6017 291.686 24.5851 292.114 23.5539C292.232 23.2635 292.217 22.9004 291.863 22.7406C291.494 22.5664 291.258 22.8423 291.095 23.1037Z" fill="white"/>
<path d="M255.342 13.3731C255.71 12.4726 256.124 11.5722 256.478 10.6717C256.566 10.4394 256.581 10.1199 256.256 9.98915C255.991 9.88749 255.799 10.0763 255.725 10.2796C254.958 12.1096 253.777 13.7943 253.512 15.7404C253.556 16.6263 253.822 17.2944 254.574 17.701C254.973 17.9189 255.401 17.8753 255.696 17.5413C256.242 16.9313 256.625 16.2051 256.522 15.3628C256.478 14.9271 256.183 14.7092 255.755 15.0433C254.825 15.784 254.899 15.0142 254.958 14.4914C254.987 14.1138 255.194 13.7362 255.342 13.3731Z" fill="white"/>
<path d="M295.64 51.5404C296.112 52.1213 296.673 52.1068 297.145 51.613C297.691 51.0466 298.296 50.4366 298.06 49.5217C298.016 49.3329 297.765 49.3474 297.588 49.3764C296.422 49.6088 296.644 48.8391 296.865 48.2727C297.131 47.5755 297.559 46.9365 297.883 46.2539C298.134 45.7166 298.562 45.2082 298.193 44.1916C296.732 46.2249 295.257 47.9241 295.153 50.3204C295.153 50.7707 295.345 51.1773 295.64 51.5404Z" fill="white"/>
<path d="M92.966 7.20066C92.6562 6.80853 92.3463 6.11141 91.7413 6.48902C91.1363 6.86663 91.2691 7.57827 91.5199 8.1592C91.638 8.43515 91.8888 8.653 92.0807 8.89989C92.789 9.82939 93.2611 10.8605 93.4382 12.0224C93.5415 12.7486 93.2021 13.4021 93.1283 14.0992C93.0841 14.4042 92.9955 14.7964 93.3644 14.9126C93.7924 15.0433 93.8366 14.593 93.9399 14.3316C94.2793 13.4602 94.4859 12.5598 94.4269 11.6012C94.5449 9.9601 93.999 8.50777 92.966 7.20066Z" fill="white"/>
<path d="M70.2417 19.0227C70.4041 18.7322 70.4483 18.3982 70.1237 18.1948C69.8433 18.006 69.5777 18.1803 69.4597 18.4272C68.6038 20.1119 67.4381 21.6804 67.2758 23.3942C67.2463 24.8029 67.8217 25.7034 68.5596 25.7034C69.2531 25.7034 70.227 24.4108 70.227 23.5104C70.227 22.9585 69.9466 22.8859 69.563 23.1909C68.6776 23.9025 68.7219 23.1909 68.6924 22.6535C68.6628 22.058 68.8547 21.5062 69.1203 20.9978C69.4597 20.3152 69.8728 19.6907 70.2417 19.0227Z" fill="white"/>
<path d="M136.85 18.1513C136.998 17.8898 137.131 17.5413 136.732 17.3525C136.452 17.2218 136.186 17.3961 136.039 17.6139C135.065 19.0953 134.253 20.6638 133.914 22.2468C133.914 23.5104 134.49 24.2946 135.257 24.222C135.936 24.1639 136.836 22.8423 136.732 22.0726C136.673 21.6659 136.482 21.5497 136.083 21.7385C134.888 22.334 135.272 21.4916 135.419 20.9833C135.744 19.9667 136.334 19.0808 136.85 18.1513Z" fill="white"/>
<path d="M202.943 21.4771C203.031 21.2738 203.076 21.0124 202.84 20.8817C202.603 20.7364 202.397 20.9252 202.294 21.114C201.305 22.8568 200.139 24.5125 199.918 26.5603C199.962 27.5188 200.11 28.4047 201.246 28.6081C201.851 28.7243 202.825 27.4317 202.84 26.5458C202.84 26.386 202.81 26.1536 202.692 26.0665C202.471 25.8922 202.294 26.081 202.117 26.2262C201.32 26.9524 201.143 26.386 201.084 25.7179C201.025 25.2096 201.275 24.7739 201.497 24.3382C201.998 23.3942 202.471 22.4502 202.943 21.4771Z" fill="white"/>
<path d="M77.4132 48.1129C75.5244 48.9262 73.6504 49.754 71.7764 50.5964C71.3484 50.7852 70.9943 51.1628 71.2894 51.6566C71.555 52.1068 71.9977 51.9035 72.3666 51.7437C74.0783 50.974 75.7753 50.1897 77.487 49.4055C77.8706 49.2312 78.1657 48.9843 78.2543 48.505C78.2248 47.9241 77.8263 47.9386 77.4132 48.1129Z" fill="white"/>
<path d="M159.176 15.2756C159.28 15.0433 159.294 14.7383 158.97 14.5931C158.719 14.4914 158.512 14.6657 158.424 14.8545C157.804 16.3504 156.786 17.701 156.742 19.1679C156.756 19.9957 156.801 20.5767 157.391 20.8962C157.789 21.114 158.188 21.0414 158.527 20.7655C159.117 20.2862 159.28 19.5746 159.353 18.8774C159.398 18.5434 159.103 18.4272 158.807 18.587C157.509 19.2841 157.922 18.2094 158.055 17.7882C158.35 16.9458 158.822 16.1325 159.176 15.2756Z" fill="white"/>
<path d="M199.18 50.9595C199.018 51.2354 198.988 51.584 199.283 51.8018C199.49 51.9616 199.726 51.889 199.874 51.7002C200.936 50.364 201.836 48.9407 202.131 47.5029C202.117 46.7768 202.058 46.312 201.571 46.1087C201.039 45.8763 200.597 46.1523 200.242 46.5153C199.874 46.8929 199.46 47.2851 199.475 47.866C199.49 48.1565 199.77 48.142 199.992 48.0548C200.242 47.9532 200.538 47.8224 200.715 48.1129C200.921 48.4469 200.611 48.6793 200.434 48.9262C200.021 49.6088 199.578 50.2769 199.18 50.9595Z" fill="white"/>
<path d="M90.9297 49.696C89.4246 50.0009 90.1771 49.0569 90.3542 48.5922C90.6346 47.837 91.2248 47.1834 91.2101 46.2539C90.1771 46.7768 88.4359 49.9574 88.672 50.8433C88.8638 51.5259 89.277 52.1359 90.1034 51.8744C90.974 51.5985 91.2838 50.8578 91.2986 49.9864C91.2838 49.7976 91.1363 49.6524 90.9297 49.696Z" fill="white"/>
<path d="M33.9419 34.3303C34.6797 34.0253 34.8715 33.4153 34.8568 32.7182C34.8568 32.3115 34.7682 31.8177 34.237 31.8613C32.9532 31.9775 33.3074 31.2223 33.5287 30.6123C33.7943 29.8716 34.1632 29.1454 34.4584 28.4047C34.5764 28.0998 34.5174 27.7802 34.1632 27.6205C33.9271 27.5043 33.691 27.606 33.5877 27.8093C32.8647 29.2761 32.0384 30.714 31.876 32.4277C31.9351 32.9796 32.0826 33.5315 32.4663 33.9817C32.8499 34.4319 33.3664 34.5626 33.9419 34.3303Z" fill="white"/>
<path d="M145.247 33.0086C139.698 32.0501 134.224 30.743 128.528 31.3094C134.224 30.7285 139.698 32.0356 145.247 33.0086Z" fill="white"/>
<path d="M137.81 35.5212C136.998 35.8262 136.186 36.1457 135.39 36.4797C136.201 36.1602 136.998 35.8407 137.81 35.5212Z" fill="white"/>
<path d="M255.489 32.9796C255.46 32.7763 255.342 32.5294 255.194 32.4132C253.453 31.077 251.844 29.5085 249.572 29.0292C248.185 28.7388 246.754 28.4193 245.691 29.7264C244.437 31.2803 243.979 33.0377 244.968 34.8386C245.544 35.8842 245.219 36.1892 244.275 36.5523C240.866 37.8449 237.708 39.5586 235.155 42.2164C233.503 43.9302 231.85 45.6584 230.168 47.3286C229.209 48.2872 228.117 49.086 226.73 49.3619C224.693 49.7686 223.262 48.6938 223.085 46.6751C222.863 44.2497 223.705 42.1148 224.782 40.0234C225.092 39.4134 225.475 39.2682 226.198 39.5441C227.6 40.0524 229.091 40.4591 230.596 40.1105C235.303 39.0358 238.903 36.5378 240.94 32.1082C241.161 31.6144 241.692 30.9608 241.028 30.5542C240.438 30.1766 240.158 30.9899 239.715 31.2513C239.479 31.382 239.302 31.5853 239.095 31.7741C237.428 33.3136 235.554 34.5336 233.385 35.3324C232.101 35.7971 230.92 35.7535 229.769 34.9693C227.571 33.4734 226.597 31.2658 225.962 28.8404C225.815 28.2595 226.051 27.8964 226.582 27.6786C230.079 26.2408 233.665 25.5727 237.457 26.2262C237.767 26.2843 238.106 26.5167 238.343 26.2117C238.638 25.805 238.225 25.5582 237.974 25.3258C236.395 23.8008 234.432 23.307 232.263 23.2054C227.777 22.973 224.501 25.471 223.719 29.7409C223.528 30.8011 223.985 31.8177 223.882 33.0086C223.218 32.3551 222.982 31.658 222.834 30.9173C221.831 26.0519 221.668 21.085 221.24 16.1616C220.871 11.8917 220.089 7.66541 219.691 3.41007C219.647 2.94532 219.558 2.32082 218.909 2.33534C218.348 2.34987 218.363 2.95985 218.186 3.35198C217.33 5.31263 217.551 7.33137 217.787 9.39368C218.333 14.2735 218.909 19.1534 219.13 24.0332C219.293 27.6495 220.207 31.1932 220.03 34.824C219.957 36.2619 219.16 37.0025 217.33 37.1913C216.09 37.3221 215.146 36.683 214.836 35.434C214.718 34.9548 214.689 34.461 214.644 33.9817C214.6 33.5896 214.674 33.1103 214.187 32.9651C213.715 32.8053 213.464 33.2265 213.154 33.4734C212.283 34.2141 211.767 35.2307 211.073 36.1021C209.273 38.3387 206.779 39.0503 204.064 38.1789C202.249 37.598 200.966 36.4216 199.874 34.9548C197.837 32.2244 196.066 29.2761 193.646 26.8507C189.957 23.1618 186.121 19.6181 182.196 16.1906C181.089 15.2321 181.119 15.0287 182.417 14.3026C187.419 11.485 192.614 9.04512 198.029 7.099C199.578 6.54711 201.202 5.99522 202.913 6.03879C204.404 6.08237 204.699 6.61973 203.961 7.86873C203.504 8.63847 203.017 9.39368 202.53 10.1489C201.231 12.1822 200.508 14.4188 199.903 16.7134C199.829 16.9894 199.682 17.4106 200.11 17.5122C200.523 17.6139 200.626 17.1927 200.7 16.9168C201.084 15.3192 201.851 13.8814 202.795 12.5888C204.271 10.5556 205.304 8.348 206.042 5.99522C206.396 4.8624 207.015 3.6134 206.071 2.55319C205.127 1.49299 203.799 1.95774 202.603 2.19011C200.11 2.6839 197.763 3.62792 195.402 4.55741C190.725 6.40188 186.136 8.4061 181.856 11.0348C179.023 12.7631 178.477 17.0765 180.676 19.5455C183.967 23.2344 187.405 26.7926 190.489 30.6558C191.994 32.5439 193.425 34.5045 194.458 36.7121C194.812 37.4673 194.65 37.9901 193.927 38.3968C192.54 39.152 190.976 39.6167 189.707 38.6001C188.57 37.6997 187.405 37.6997 186.15 37.5109C182.919 37.0316 180.204 38.208 177.917 40.2122C175.275 42.5214 172.87 45.0775 170.361 47.532C169.417 48.4469 168.428 49.3038 167.204 49.8266C165.344 50.6254 163.662 49.6233 163.5 47.6481C163.47 47.3867 163.47 47.1108 163.485 46.8494C163.529 46.2103 163.839 45.3535 164.134 44.6418C164.223 44.424 163.928 44.2352 163.765 44.424C163.264 44.9613 162.792 45.4551 162.452 45.8182C162.128 46.1522 161.98 46.6025 162.024 47.0527C162.024 47.0672 162.024 47.0817 162.024 47.1108C162.142 49.6233 163.279 51.4387 165.713 52.3828C168.281 53.3703 170.258 52.4989 171.999 50.5819C173.696 48.7229 175.452 46.922 177.223 45.1356C178.772 43.5816 180.646 42.4924 182.771 41.8679C185.236 41.1417 186.829 41.9986 187.582 44.3223C188.202 46.2539 189.485 47.6336 191.418 48.4034C192.259 48.7374 192.761 48.4905 192.82 47.59C192.879 46.7477 192.982 45.8763 192.85 45.0485C192.614 43.6542 192.835 42.6231 194.384 42.1728C194.783 42.0567 195.034 41.6791 195.211 41.316C196.096 39.4425 196.494 37.5254 195.963 35.4631C195.86 35.0709 195.565 34.6643 195.875 34.1124C196.908 35.6519 197.911 37.1187 198.885 38.6001C200.331 40.8222 202.131 42.6085 204.92 42.9571C208.255 43.3783 210.38 41.5774 212.033 38.9922C212.269 38.6292 212.401 38.0482 212.933 38.1208C213.405 38.1789 213.331 38.7599 213.434 39.1229C214.084 41.2869 215.663 42.0857 217.802 41.3595C218.924 40.9819 219.75 40.3574 220.325 39.2827C220.798 38.4113 221.181 37.5109 221.462 36.5814C221.639 36.0004 221.772 35.7826 222.303 36.3926C224.192 38.542 224.221 38.5275 222.982 41.0836C222.937 41.1707 222.893 41.2434 222.863 41.3305C221.831 43.8285 221.299 46.312 222.244 49.0133C223.616 52.9927 228.751 54.1836 231.555 51.0611C232.883 49.5943 234.373 48.2726 235.613 46.7477C238.313 43.4364 242.002 41.7081 245.839 40.1686C246.355 39.9653 246.96 39.7475 247.55 40.0379C247.949 40.2412 248.273 40.1832 248.436 39.762C248.672 39.1084 249.262 39.0068 249.808 38.8034C250.915 38.4113 252.021 38.0192 253.099 37.5544C254.087 37.0752 255.666 34.0398 255.489 32.9796ZM248.421 34.9838C248.421 34.9838 247.004 32.5439 247.388 31.9049C247.772 31.2803 251.003 32.326 251.83 33.2265C252.641 34.156 248.421 34.9838 248.421 34.9838Z" fill="white"/>
<path d="M164.12 28.0126C162.497 26.8798 161.154 26.996 159.752 28.4047C158.365 29.7845 157.657 31.5273 157.701 33.4589C157.76 36.0295 158.911 37.0607 161.493 37.0897C162.438 37.1042 163.382 37.0752 164.326 37.1623C164.902 37.2204 165.566 37.3366 165.787 37.9611C166.008 38.5711 165.418 38.9196 165.064 39.2827C163.087 41.2869 160.991 43.1604 158.719 44.8597C156.491 46.5299 154.086 47.7643 151.164 47.6772C149.349 47.6191 148.139 46.6896 147.401 45.1066C147.106 44.4821 147.106 43.8285 147.534 43.3493C149.378 41.2434 153.363 38.6146 156.668 41.011C157.037 41.2869 157.391 41.3596 157.716 40.9384C158.409 40.0234 158.055 37.3366 157.125 36.6395C155.34 35.3178 153.407 35.1871 151.385 36.044C148.729 37.1768 146.604 39.0213 144.642 41.0546C142.753 43.0152 141.012 45.1066 139.02 46.9801C138.075 47.866 136.998 48.4615 135.729 48.7084C134.416 48.9553 133.383 48.3453 133.014 47.1108C132.616 45.8037 132.616 44.4821 132.925 43.1604C133.014 42.7974 133.029 42.26 133.501 42.2019C133.929 42.1438 133.988 42.6667 134.15 42.9571C134.991 44.5256 136.423 45.339 138.046 45.8182C139.167 46.1523 139.802 45.673 139.713 44.5983C139.595 43.1895 139.669 41.7081 139.005 40.4301C138.488 39.4134 138.798 39.0358 139.757 38.7018C143.446 37.4237 147.106 36.0295 150.81 34.795C151.961 34.4174 152.728 33.851 153.259 32.7617C154.322 30.5542 154.248 30.3073 151.798 29.8135C147.608 28.9712 143.417 28.1143 139.211 27.3445C136.378 26.8217 133.501 26.5312 130.609 26.691C128.307 26.8217 126.359 28.0562 126.049 29.7845C125.665 31.9339 125.695 34.3012 128.322 35.6228C129.236 36.0876 130.063 36.7266 130.933 37.2785C131.524 37.6416 131.686 38.0192 131.037 38.4839C129.723 39.428 128.395 40.372 126.875 40.9384C124.19 41.9405 121.785 41.2288 120.058 38.9632C119.497 38.2225 118.981 37.4528 118.199 36.8718C117.564 36.4071 116.989 36.349 116.325 36.6976C114.215 37.8159 112.503 39.2972 111.308 41.3886C110.334 43.1024 109.876 45.034 108.903 46.7332C108.298 47.7934 107.575 48.8972 106.173 48.7955C104.697 48.6938 104.018 47.4884 103.487 46.2684C103.354 45.9489 103.281 45.5858 103.251 45.2373C103.074 43.5235 102.926 41.7953 102.764 40.0815C102.72 39.7039 102.823 39.1665 102.277 39.1375C101.761 39.123 101.716 39.6458 101.657 40.0234C101.156 43.7559 101.628 47.3141 103.871 50.4366C105.155 52.223 107.634 53.0218 109.449 50.4076C109.935 49.7105 110.26 48.9407 110.496 48.1129C111.219 45.6585 112.592 43.6252 114.584 41.9841C116.487 40.4155 117.24 40.5317 118.671 42.5795C120.56 45.2809 123.526 47.0672 127.421 45.063C128.513 44.4966 129.546 43.9011 130.491 43.1459C130.756 42.9281 131.037 42.5359 131.42 42.7538C131.804 42.9716 131.568 43.4073 131.509 43.7269C131.228 45.2954 131.347 46.8203 131.907 48.3162C133.265 52.0052 137.869 53.1235 140.702 50.3931C142.015 49.1295 143.21 47.7208 144.465 46.3992C144.834 46.0215 145.129 45.2809 145.63 45.4116C146.25 45.5568 145.94 46.3265 145.999 46.8203C146.56 50.8288 149.113 52.6297 153.126 51.889C154.543 51.6276 155.753 50.974 156.919 50.2043C158.867 48.9262 160.593 47.3722 162.57 45.7746C162.57 45.7746 164.134 44.1916 165.359 42.7828C165.374 42.7538 165.403 42.7247 165.418 42.7102C165.433 42.6957 165.448 42.6812 165.462 42.6667C165.448 42.6812 165.433 42.6957 165.418 42.7102C165.463 42.6521 165.522 42.594 165.581 42.5359C167.204 40.8658 167.543 38.4985 167.794 36.349C168.207 33.0232 167.027 30.0604 164.12 28.0126ZM164.976 34.3157C164.976 34.3157 164.666 33.6767 163.161 33.851C161.523 34.0398 160.342 33.7348 160.372 32.631C160.401 31.5127 161.537 30.9318 163.234 31.353C164.946 31.7742 165.433 32.9651 164.976 34.3157ZM131.597 33.7639C130.978 33.241 130.328 32.7472 129.694 32.2389C129.31 31.9339 128.912 31.6289 128.528 31.3094C134.224 30.7285 139.698 32.0356 145.247 33.0086C144.834 33.1393 144.406 33.2701 143.992 33.4008C141.912 34.0543 139.846 34.766 137.81 35.5357C136.998 35.8407 136.187 36.1602 135.39 36.4942C135.05 36.6395 134.667 36.7557 134.386 36.4361C133.53 35.4486 132.586 34.5917 131.597 33.7639Z" fill="white"/>
<path d="M131.597 33.7638C130.978 33.241 130.328 32.7472 129.694 32.2389C130.328 32.7472 130.963 33.2555 131.597 33.7638Z" fill="white"/>
<path d="M128.528 31.3094C128.912 31.6289 129.31 31.9339 129.694 32.2389C129.295 31.9339 128.912 31.6144 128.528 31.3094Z" fill="white"/>
<path d="M143.992 33.3862C141.912 34.0398 139.846 34.7514 137.81 35.5212C139.846 34.7514 141.912 34.0543 143.992 33.3862Z" fill="white"/>
<path d="M131.597 33.7638C130.978 33.241 130.328 32.7472 129.694 32.2389C130.328 32.7472 130.963 33.2555 131.597 33.7638Z" fill="white"/>
<path d="M145.247 33.0086C144.834 33.1391 144.406 33.2696 143.992 33.4C144.406 33.2551 144.834 33.1246 145.247 33.0086Z" fill="white"/>
<path d="M82.3417 17.2218C81.0874 15.8275 79.4052 16.1906 78.992 17.9915C78.7264 19.1679 78.4313 20.6202 78.8887 21.6223C79.5823 23.1182 78.8445 23.6847 77.9149 24.3963C77.4869 24.7158 77.1033 25.0934 76.6753 25.4129C74.9636 26.7055 73.2224 27.969 71.5107 29.2616C71.2304 29.4649 70.8467 29.6973 71.1271 30.1185C71.3632 30.4671 71.7173 30.2347 71.9682 30.0604C74.8899 28.0707 78.1214 26.4877 80.4086 23.6992C80.9546 23.0311 81.5448 22.944 82.3121 23.1328C83.9943 23.5539 84.7469 22.9149 84.7321 20.8671C84.5993 19.4438 83.3746 18.3691 82.3417 17.2218ZM80.807 21.0414C80.807 21.0414 80.143 19.1534 80.689 18.5724C81.235 18.006 82.6515 20.2281 82.7548 20.809C82.8581 21.3754 80.807 21.0414 80.807 21.0414Z" fill="white"/>
</svg>
